<?xml version="1.0" encoding="utf-8"?>
<!-- Generator: Adobe Illustrator 16.0.0, SVG Export Plug-In . SVG Version: 6.00 Build 0)  -->
<!DOCTYPE svg PUBLIC "-//W3C//DTD SVG 1.1//EN" "http://www.w3.org/Graphics/SVG/1.1/DTD/svg11.dtd">
<svg version="1.1" id="Layer_1" xmlns="http://www.w3.org/2000/svg" xmlns:xlink="http://www.w3.org/1999/xlink" x="0px" y="0px"
	 width="720px" height="800px" viewBox="0 0 720 800" enable-background="new 0 0 720 800" xml:space="preserve">
<g>
	<path fill="#00A14B" d="M370.373,196.208c0-25.919,21.01-46.93,46.929-46.93c5.459,0,8.985,0.653,12.685,1.744
		c2.494,1.059,3.447-1.025,3.707-1.993c1.696-6.333,2.646-12.791,2.646-19.301c0-0.434-0.242-55.828-0.242-56.512
		c0-5.463-3.131-5.451-4.529-5.444c-10.026,0.051-20.245,0.054-30.998-3.045c-22.342-6.439-42.197-23.939-49.747-23.939
		c-7.313,0-22.061,17.5-44.396,23.939c-12.596,3.631-24.677,2.958-35.977,2.433c-1.329-0.06-3.444-0.412-4.113,4.189
		c-0.17,1.16-1.032,57.758-1.032,58.38c0,55.291,68.403,107.224,85.516,107.224c5.475,0,14.301-4.396,26.174-13.235
		c1.582-1.367,0.732-2.272,0.266-3.036C372.896,213.556,370.373,205.181,370.373,196.208L370.373,196.208z M370.373,196.208"/>
	<path fill="#8DC63F" d="M417.599,220.138c-1.581,1.703-4.405,1.967-6.273,0.587l-29.719-21.978c-1.868-1.38-2.253-4.03-0.854-5.887
		l3.811-5.062c1.398-1.854,4.074-2.25,5.947-0.874l19.059,13.986c1.874,1.374,4.697,1.104,6.279-0.6l26.9-28.155
		c1.579-1.706,4.265-1.803,5.966-0.22l4.639,4.316c1.701,1.583,1.799,4.273,0.22,5.978L417.599,220.138z M417.599,220.138"/>
</g>
<g>
	<g>
		<path fill="#00A14B" d="M197.239,308.042l5.772-8.215c3.478,3.626,8.88,6.734,15.688,6.734c5.847,0,8.585-2.59,8.585-5.477
			c0-8.584-28.418-2.59-28.418-21.165c0-8.215,7.104-15.023,18.723-15.023c7.845,0,14.357,2.368,19.242,6.883l-5.847,7.845
			c-3.996-3.701-9.325-5.402-14.357-5.402c-4.44,0-6.956,1.924-6.956,4.884c0,7.771,28.344,2.517,28.344,20.943
			c0,9.028-6.513,15.837-19.759,15.837C208.71,315.886,201.901,312.704,197.239,308.042z"/>
		<path fill="#00A14B" d="M245.043,314.998v-49.361h34.93v9.251h-24.421v10.36h23.903v9.251h-23.903v11.248h24.421v9.251H245.043z"
			/>
		<path fill="#00A14B" d="M287.74,314.998v-49.361h10.583v40.11h20.869v9.251H287.74z"/>
		<path fill="#00A14B" d="M360.411,314.998l-3.108-8.362h-21.166l-3.107,8.362h-11.915l19.02-49.361h13.173l19.019,49.361H360.411z
			 M346.72,276.146l-7.696,21.239h15.393L346.72,276.146z"/>
		<path fill="#00A14B" d="M419.833,314.998v-35.597l-13.913,35.597h-4.589l-13.912-35.597v35.597H376.91v-49.361h14.727
			l11.989,30.86l11.988-30.86h14.801v49.361H419.833z"/>
		<path fill="#00A14B" d="M474.296,314.998l-3.108-8.362h-21.166l-3.107,8.362h-11.915l19.02-49.361h13.173l19.019,49.361H474.296z
			 M460.604,276.146l-7.696,21.239h15.393L460.604,276.146z"/>
		<path fill="#00A14B" d="M497.456,314.998v-40.11h-14.431v-9.251h39.37v9.251h-14.356v40.11H497.456z"/>
		<path fill="#58595B" d="M152.952,363.798l-2.891-7.301h-16.267l-2.891,7.301h-4.654l13.18-32.681h5.046l13.132,32.681H152.952z
			 M141.929,335.282l-6.909,17.639h13.866L141.929,335.282z"/>
		<path fill="#58595B" d="M177.746,363.798v-15.482c0-4.214-2.155-5.488-5.341-5.488c-2.891,0-5.585,1.765-7.006,3.675v17.296
			h-3.675v-23.665h3.675v3.43c1.666-2.009,4.899-4.018,8.477-4.018c4.899,0,7.496,2.499,7.496,7.644v16.609H177.746z"/>
		<path fill="#58595B" d="M205.92,363.798v-3.527c-1.764,2.4-4.654,4.115-7.986,4.115c-6.174,0-10.534-4.703-10.534-12.396
			c0-7.595,4.36-12.445,10.534-12.445c3.185,0,6.075,1.567,7.986,4.165v-12.593h3.675v32.681H205.92z M205.92,357.33v-10.681
			c-1.273-2.058-4.165-3.822-7.056-3.822c-4.802,0-7.644,3.92-7.644,9.163c0,5.242,2.842,9.113,7.644,9.113
			C201.755,361.104,204.646,359.389,205.92,357.33z"/>
		<path fill="#58595B" d="M231.743,363.798v-2.694c-1.911,2.155-4.655,3.282-7.84,3.282c-3.969,0-8.231-2.694-8.231-7.839
			c0-5.341,4.214-7.791,8.231-7.791c3.234,0,5.929,1.029,7.84,3.185v-4.263c0-3.136-2.548-4.948-5.978-4.948
			c-2.842,0-5.145,0.98-7.252,3.283l-1.715-2.548c2.548-2.646,5.586-3.92,9.457-3.92c5.046,0,9.162,2.254,9.162,7.986v16.267
			H231.743z M231.743,358.8v-4.507c-1.421-1.911-3.92-2.891-6.468-2.891c-3.479,0-5.88,2.155-5.88,5.145
			c0,3.037,2.401,5.193,5.88,5.193C227.823,361.74,230.322,360.76,231.743,358.8z"/>
		<path fill="#58595B" d="M263.74,363.798v-29.055h-10.339v-3.626h24.792v3.626h-10.387v29.055H263.74z"/>
		<path fill="#58595B" d="M276.432,351.94c0-6.859,4.899-12.396,11.661-12.396c7.153,0,11.367,5.586,11.367,12.689v0.932h-19.108
			c0.294,4.458,3.381,8.182,8.477,8.182c2.743,0,5.438-1.077,7.349-3.037l1.765,2.4c-2.401,2.352-5.586,3.675-9.407,3.675
			C281.479,364.386,276.432,359.339,276.432,351.94z M288.044,342.583c-5.047,0-7.546,4.263-7.741,7.839h15.531
			C295.785,346.943,293.434,342.583,288.044,342.583z"/>
		<path fill="#58595B" d="M305.391,363.798v-32.681h3.675v32.681H305.391z"/>
		<path fill="#58595B" d="M331.212,363.798v-2.694c-1.911,2.155-4.655,3.282-7.84,3.282c-3.969,0-8.231-2.694-8.231-7.839
			c0-5.341,4.214-7.791,8.231-7.791c3.234,0,5.929,1.029,7.84,3.185v-4.263c0-3.136-2.548-4.948-5.978-4.948
			c-2.842,0-5.145,0.98-7.252,3.283l-1.715-2.548c2.548-2.646,5.586-3.92,9.457-3.92c5.046,0,9.162,2.254,9.162,7.986v16.267
			H331.212z M331.212,358.8v-4.507c-1.421-1.911-3.92-2.891-6.468-2.891c-3.479,0-5.88,2.155-5.88,5.145
			c0,3.037,2.401,5.193,5.88,5.193C327.292,361.74,329.791,360.76,331.212,358.8z"/>
		<path fill="#58595B" d="M358.309,363.798v-15.581c0-4.213-2.106-5.39-5.341-5.39c-2.842,0-5.585,1.765-6.957,3.675v17.296h-3.675
			v-32.681h3.675v12.445c1.617-2.009,4.851-4.018,8.428-4.018c4.948,0,7.545,2.4,7.545,7.545v16.708H358.309z"/>
		<path fill="#58595B" d="M382.171,363.798v-32.681h11.172c10.19,0,16.756,7.104,16.756,16.365c0,9.309-6.565,16.315-16.756,16.315
			H382.171z M405.886,347.482c0-7.056-4.459-12.739-12.543-12.739h-7.104v25.429h7.104
			C401.279,360.172,405.886,354.488,405.886,347.482z"/>
		<path fill="#58595B" d="M415.688,334.303c0-1.372,1.127-2.499,2.498-2.499c1.372,0,2.45,1.127,2.45,2.499
			c0,1.371-1.078,2.449-2.45,2.449C416.814,336.752,415.688,335.674,415.688,334.303z M416.324,363.798v-23.665h3.675v23.665
			H416.324z"/>
		<path fill="#58595B" d="M427.349,363.798v-32.681h3.675v32.681H427.349z"/>
		<path fill="#58595B" d="M437.736,334.303c0-1.372,1.127-2.499,2.498-2.499c1.372,0,2.45,1.127,2.45,2.499
			c0,1.371-1.078,2.449-2.45,2.449C438.863,336.752,437.736,335.674,437.736,334.303z M438.373,363.798v-23.665h3.675v23.665
			H438.373z"/>
		<path fill="#58595B" d="M465.419,363.798v-15.482c0-4.214-2.155-5.488-5.341-5.488c-2.891,0-5.585,1.765-7.006,3.675v17.296
			h-3.675v-23.665h3.675v3.43c1.666-2.009,4.899-4.018,8.477-4.018c4.899,0,7.496,2.499,7.496,7.644v16.609H465.419z"/>
		<path fill="#58595B" d="M493.593,363.798v-3.527c-1.764,2.4-4.654,4.115-7.986,4.115c-6.174,0-10.534-4.703-10.534-12.396
			c0-7.595,4.36-12.445,10.534-12.445c3.185,0,6.075,1.567,7.986,4.165v-12.593h3.675v32.681H493.593z M493.593,357.33v-10.681
			c-1.273-2.058-4.165-3.822-7.056-3.822c-4.802,0-7.644,3.92-7.644,9.163c0,5.242,2.842,9.113,7.644,9.113
			C489.428,361.104,492.319,359.389,493.593,357.33z"/>
		<path fill="#58595B" d="M520.592,363.798v-3.332c-1.812,2.059-4.899,3.92-8.428,3.92c-4.948,0-7.545-2.45-7.545-7.545v-16.708
			h3.675v15.581c0,4.164,2.106,5.39,5.341,5.39c2.841,0,5.585-1.666,6.957-3.577v-17.394h3.675v23.665H520.592z"/>
		<path fill="#58595B" d="M547.64,363.798v-15.482c0-4.214-2.155-5.488-5.341-5.488c-2.891,0-5.585,1.765-7.006,3.675v17.296h-3.675
			v-23.665h3.675v3.43c1.666-2.009,4.899-4.018,8.477-4.018c4.899,0,7.496,2.499,7.496,7.644v16.609H547.64z"/>
		<path fill="#58595B" d="M558.616,369.824l1.861-2.646c1.96,2.303,4.312,3.185,7.692,3.185c3.92,0,7.644-1.911,7.644-6.908v-3.577
			c-1.764,2.401-4.654,4.214-7.986,4.214c-6.174,0-10.534-4.605-10.534-12.249c0-7.595,4.312-12.298,10.534-12.298
			c3.185,0,6.075,1.567,7.986,4.165v-3.577h3.675v23.322c0,7.496-5.536,9.946-11.318,9.946
			C564.201,373.401,561.458,372.617,558.616,369.824z M575.813,356.987v-10.387c-1.323-2.009-4.165-3.773-7.056-3.773
			c-4.802,0-7.644,3.773-7.644,9.016c0,5.193,2.842,8.967,7.644,8.967C571.648,360.81,574.49,359.045,575.813,356.987z"/>
		<path fill="#58595B" d="M586.203,334.303c0-1.372,1.127-2.499,2.498-2.499c1.372,0,2.45,1.127,2.45,2.499
			c0,1.371-1.078,2.449-2.45,2.449C587.33,336.752,586.203,335.674,586.203,334.303z M586.84,363.798v-23.665h3.675v23.665H586.84z"
			/>
		<path fill="#58595B" d="M164.271,412.598l-2.891-7.301h-16.267l-2.891,7.301h-4.654l13.18-32.681h5.046l13.132,32.681H164.271z
			 M153.247,384.082l-6.909,17.639h13.866L153.247,384.082z"/>
		<path fill="#58595B" d="M171.034,409.462l1.861-2.646c1.568,1.812,4.557,3.381,7.791,3.381c3.625,0,5.634-1.715,5.634-4.067
			c0-5.732-14.649-2.204-14.649-10.975c0-3.724,3.136-6.811,8.771-6.811c4.066,0,6.908,1.519,8.771,3.43l-1.715,2.548
			c-1.421-1.715-3.969-2.989-7.056-2.989c-3.233,0-5.243,1.617-5.243,3.724c0,5.146,14.65,1.765,14.65,10.976
			c0,3.969-3.185,7.153-9.261,7.153C176.669,413.186,173.435,411.961,171.034,409.462z"/>
		<path fill="#58595B" d="M211.801,412.598v-3.332c-1.812,2.059-4.899,3.92-8.428,3.92c-4.948,0-7.545-2.45-7.545-7.545v-16.708
			h3.675v15.581c0,4.164,2.106,5.39,5.341,5.39c2.841,0,5.585-1.666,6.957-3.577v-17.394h3.675v23.665H211.801z"/>
		<path fill="#58595B" d="M222.827,412.598v-23.665h3.675v3.772c1.91-2.449,4.654-4.312,7.888-4.312v3.772
			c-0.44-0.049-0.882-0.098-1.421-0.098c-2.303,0-5.389,1.862-6.467,3.772v16.757H222.827z"/>
		<path fill="#58595B" d="M253.793,412.598v-2.694c-1.911,2.155-4.655,3.282-7.84,3.282c-3.969,0-8.231-2.694-8.231-7.839
			c0-5.341,4.214-7.791,8.231-7.791c3.234,0,5.929,1.029,7.84,3.185v-4.263c0-3.136-2.548-4.948-5.978-4.948
			c-2.842,0-5.145,0.98-7.252,3.283l-1.715-2.548c2.548-2.646,5.586-3.92,9.457-3.92c5.046,0,9.162,2.254,9.162,7.986v16.267
			H253.793z M253.793,407.6v-4.507c-1.421-1.911-3.92-2.891-6.468-2.891c-3.479,0-5.88,2.155-5.88,5.145
			c0,3.037,2.401,5.193,5.88,5.193C249.873,410.54,252.372,409.56,253.793,407.6z"/>
		<path fill="#58595B" d="M280.89,412.598v-15.482c0-4.214-2.155-5.488-5.341-5.488c-2.891,0-5.585,1.765-7.006,3.675v17.296h-3.675
			v-23.665h3.675v3.43c1.666-2.009,4.899-4.018,8.477-4.018c4.899,0,7.496,2.499,7.496,7.644v16.609H280.89z"/>
		<path fill="#58595B" d="M289.906,409.462l1.861-2.646c1.568,1.812,4.557,3.381,7.791,3.381c3.625,0,5.634-1.715,5.634-4.067
			c0-5.732-14.649-2.204-14.649-10.975c0-3.724,3.136-6.811,8.771-6.811c4.066,0,6.908,1.519,8.771,3.43l-1.715,2.548
			c-1.421-1.715-3.969-2.989-7.056-2.989c-3.234,0-5.243,1.617-5.243,3.724c0,5.146,14.65,1.765,14.65,10.976
			c0,3.969-3.185,7.153-9.261,7.153C295.541,413.186,292.307,411.961,289.906,409.462z"/>
		<path fill="#58595B" d="M314.063,383.103c0-1.372,1.127-2.499,2.498-2.499c1.372,0,2.45,1.127,2.45,2.499
			c0,1.371-1.078,2.449-2.45,2.449C315.19,385.552,314.063,384.474,314.063,383.103z M314.7,412.598v-23.665h3.675v23.665H314.7z"/>
		<path fill="#58595B" d="M358.308,412.598l-12.396-14.699l-3.282,3.724v10.976h-4.067v-32.681h4.067v16.854l14.453-16.854h5.096
			L348.557,395.4l14.847,17.197H358.308z"/>
		<path fill="#58595B" d="M364.826,400.74c0-6.859,4.899-12.396,11.661-12.396c7.153,0,11.367,5.586,11.367,12.689v0.932h-19.108
			c0.294,4.458,3.381,8.182,8.477,8.182c2.743,0,5.438-1.077,7.349-3.037l1.765,2.4c-2.401,2.352-5.586,3.675-9.407,3.675
			C369.873,413.186,364.826,408.139,364.826,400.74z M376.438,391.383c-5.047,0-7.546,4.263-7.741,7.839h15.531
			C384.18,395.743,381.828,391.383,376.438,391.383z"/>
		<path fill="#58595B" d="M392.413,400.74c0-7.006,4.753-12.396,11.809-12.396c4.312,0,6.859,1.764,8.672,4.115l-2.45,2.205
			c-1.567-2.155-3.576-3.038-6.026-3.038c-4.997,0-8.183,3.871-8.183,9.113c0,5.243,3.186,9.163,8.183,9.163
			c2.45,0,4.459-0.98,6.026-3.087l2.45,2.254c-1.812,2.352-4.36,4.115-8.672,4.115C397.166,413.186,392.413,407.747,392.413,400.74z
			"/>
		<path fill="#58595B" d="M416.717,400.74c0-6.859,4.899-12.396,11.661-12.396c7.153,0,11.367,5.586,11.367,12.689v0.932h-19.108
			c0.294,4.458,3.381,8.182,8.477,8.182c2.743,0,5.438-1.077,7.349-3.037l1.765,2.4c-2.401,2.352-5.586,3.675-9.407,3.675
			C421.764,413.186,416.717,408.139,416.717,400.74z M428.329,391.383c-5.047,0-7.546,4.263-7.741,7.839h15.531
			C436.07,395.743,433.719,391.383,428.329,391.383z"/>
		<path fill="#58595B" d="M445.676,412.598v-32.681h3.675v32.681H445.676z"/>
		<path fill="#58595B" d="M471.497,412.598v-2.694c-1.911,2.155-4.655,3.282-7.84,3.282c-3.969,0-8.231-2.694-8.231-7.839
			c0-5.341,4.214-7.791,8.231-7.791c3.234,0,5.929,1.029,7.84,3.185v-4.263c0-3.136-2.548-4.948-5.978-4.948
			c-2.842,0-5.145,0.98-7.252,3.283l-1.715-2.548c2.548-2.646,5.586-3.92,9.457-3.92c5.046,0,9.162,2.254,9.162,7.986v16.267
			H471.497z M471.497,407.6v-4.507c-1.421-1.911-3.92-2.891-6.468-2.891c-3.479,0-5.88,2.155-5.88,5.145
			c0,3.037,2.401,5.193,5.88,5.193C467.577,410.54,470.076,409.56,471.497,407.6z"/>
		<path fill="#58595B" d="M498.691,412.598l-8.476-10.632l-3.969,3.87v6.762h-3.675v-32.681h3.675v21.607l12.444-12.592h4.655
			l-10.485,10.73l10.534,12.935H498.691z"/>
		<path fill="#58595B" d="M522.555,412.598v-2.694c-1.911,2.155-4.655,3.282-7.84,3.282c-3.969,0-8.231-2.694-8.231-7.839
			c0-5.341,4.214-7.791,8.231-7.791c3.234,0,5.929,1.029,7.84,3.185v-4.263c0-3.136-2.548-4.948-5.978-4.948
			c-2.842,0-5.145,0.98-7.252,3.283l-1.715-2.548c2.548-2.646,5.586-3.92,9.457-3.92c5.046,0,9.162,2.254,9.162,7.986v16.267
			H522.555z M522.555,407.6v-4.507c-1.421-1.911-3.92-2.891-6.468-2.891c-3.479,0-5.88,2.155-5.88,5.145
			c0,3.037,2.401,5.193,5.88,5.193C518.635,410.54,521.134,409.56,522.555,407.6z"/>
		<path fill="#58595B" d="M548.427,412.598v-2.694c-1.911,2.155-4.655,3.282-7.84,3.282c-3.969,0-8.231-2.694-8.231-7.839
			c0-5.341,4.214-7.791,8.231-7.791c3.234,0,5.929,1.029,7.84,3.185v-4.263c0-3.136-2.548-4.948-5.978-4.948
			c-2.842,0-5.145,0.98-7.252,3.283l-1.715-2.548c2.548-2.646,5.586-3.92,9.457-3.92c5.046,0,9.162,2.254,9.162,7.986v16.267
			H548.427z M548.427,407.6v-4.507c-1.421-1.911-3.92-2.891-6.468-2.891c-3.479,0-5.88,2.155-5.88,5.145
			c0,3.037,2.401,5.193,5.88,5.193C544.507,410.54,547.006,409.56,548.427,407.6z"/>
		<path fill="#58595B" d="M575.523,412.598v-15.482c0-4.214-2.155-5.488-5.341-5.488c-2.891,0-5.585,1.765-7.006,3.675v17.296
			h-3.675v-23.665h3.675v3.43c1.666-2.009,4.899-4.018,8.477-4.018c4.899,0,7.496,2.499,7.496,7.644v16.609H575.523z"/>
		<path fill="#58595B" d="M71.687,461.398v-21.265l-8.28,21.265h-3.724l-8.231-21.265v21.265h-8.428v-32.681h11.71l6.811,17.737
			l6.859-17.737h11.71v32.681H71.687z"/>
		<path fill="#58595B" d="M99.765,461.398v-2.352c-1.471,1.764-4.312,2.939-7.35,2.939c-3.626,0-8.134-2.45-8.134-7.79
			c0-5.732,4.508-7.595,8.134-7.595c3.136,0,5.929,0.98,7.35,2.744v-2.842c0-2.058-1.765-3.43-4.802-3.43
			c-2.352,0-4.802,0.882-6.713,2.498l-2.694-4.752c3.037-2.597,7.104-3.675,10.729-3.675c5.684,0,11.024,2.106,11.024,9.456v14.797
			H99.765z M99.765,455.323v-2.107c-0.784-1.077-2.548-1.666-4.214-1.666c-2.009,0-3.772,0.883-3.772,2.744
			c0,1.862,1.764,2.744,3.772,2.744C97.217,457.038,98.98,456.45,99.765,455.323z"/>
		<path fill="#58595B" d="M110.791,458.36l3.136-5.193c1.764,1.568,5.536,3.136,8.329,3.136c2.254,0,3.185-0.734,3.185-1.812
			c0-3.087-13.768-0.049-13.768-9.555c0-4.164,3.576-7.79,10.142-7.79c3.969,0,7.35,1.273,9.897,3.136l-2.891,4.997
			c-1.421-1.371-4.116-2.597-6.958-2.597c-1.764,0-2.988,0.735-2.988,1.715c0,2.744,13.768,0.05,13.768,9.751
			c0,4.507-3.969,7.839-10.779,7.839C117.65,461.986,113.289,460.565,110.791,458.36z"/>
		<path fill="#58595B" d="M150.479,461.398v-2.352c-1.471,1.764-4.312,2.939-7.35,2.939c-3.626,0-8.134-2.45-8.134-7.79
			c0-5.732,4.508-7.595,8.134-7.595c3.136,0,5.929,0.98,7.35,2.744v-2.842c0-2.058-1.765-3.43-4.802-3.43
			c-2.352,0-4.802,0.882-6.713,2.498l-2.694-4.752c3.037-2.597,7.104-3.675,10.729-3.675c5.684,0,11.024,2.106,11.024,9.456v14.797
			H150.479z M150.479,455.323v-2.107c-0.784-1.077-2.548-1.666-4.214-1.666c-2.009,0-3.772,0.883-3.772,2.744
			c0,1.862,1.764,2.744,3.772,2.744C147.932,457.038,149.695,456.45,150.479,455.323z"/>
		<path fill="#58595B" d="M176.254,461.398v-32.681h16.365c7.349,0,11.367,4.949,11.367,10.878c0,5.879-4.019,10.827-11.367,10.827
			h-7.938v10.976H176.254z M195.412,439.596c0-2.254-1.666-3.528-3.92-3.528h-6.811v7.007h6.811
			C193.746,443.074,195.412,441.8,195.412,439.596z"/>
		<path fill="#58595B" d="M205.115,449.541c0-6.859,5.193-12.396,12.592-12.396c7.007,0,12.103,5.145,12.103,13.18v1.617h-16.854
			c0.44,2.205,2.498,4.214,5.928,4.214c1.666,0,4.557-0.735,5.88-2.009l3.185,4.703c-2.352,2.106-6.271,3.136-9.897,3.136
			C210.75,461.986,205.115,457.233,205.115,449.541z M217.707,442.976c-3.282,0-4.557,2.353-4.851,4.067h9.75
			C222.411,445.377,221.187,442.976,217.707,442.976z"/>
		<path fill="#58595B" d="M233.535,461.398v-23.665h7.545v2.891c1.568-1.911,4.557-3.527,7.398-3.527v7.251
			c-0.44-0.098-1.078-0.196-1.861-0.196c-1.96,0-4.557,0.833-5.537,2.156v15.091H233.535z"/>
		<path fill="#58595B" d="M251.91,461.398v-32.681h7.545v32.681H251.91z"/>
		<path fill="#58595B" d="M264.404,431.266c0-2.4,1.91-4.312,4.312-4.312c2.4,0,4.312,1.911,4.312,4.312
			c0,2.401-1.911,4.361-4.312,4.361C266.314,435.627,264.404,433.667,264.404,431.266z M264.943,461.398v-23.665h7.545v23.665
			H264.943z"/>
		<path fill="#58595B" d="M293.998,461.398v-13.67c0-2.891-1.519-3.92-3.871-3.92c-2.254,0-3.724,1.226-4.605,2.303v15.287h-7.545
			v-23.665h7.545v2.891c1.421-1.666,4.214-3.479,8.183-3.479c5.39,0,7.839,3.136,7.839,7.496v16.757H293.998z"/>
		<path fill="#58595B" d="M322.956,461.398v-2.744c-1.959,2.254-4.36,3.332-7.006,3.332c-5.831,0-10.485-4.409-10.485-12.445
			c0-7.741,4.557-12.396,10.485-12.396c2.597,0,5.096,1.029,7.006,3.381v-11.809h7.497v32.681H322.956z M322.956,453.167v-7.251
			c-0.979-1.274-2.939-2.107-4.557-2.107c-2.988,0-5.193,2.205-5.193,5.732c0,3.528,2.205,5.782,5.193,5.782
			C320.017,455.323,321.977,454.441,322.956,453.167z"/>
		<path fill="#58595B" d="M351.964,461.398v-2.842c-1.471,1.666-4.214,3.43-8.183,3.43c-5.39,0-7.79-3.038-7.79-7.398v-16.854h7.545
			v13.768c0,2.842,1.47,3.822,3.92,3.822c2.155,0,3.626-1.176,4.508-2.303v-15.287h7.545v23.665H351.964z"/>
		<path fill="#58595B" d="M381.021,461.398v-13.67c0-2.891-1.52-3.92-3.871-3.92c-2.254,0-3.724,1.226-4.605,2.303v15.287h-7.545
			v-23.665h7.545v2.891c1.421-1.666,4.214-3.479,8.183-3.479c5.39,0,7.839,3.136,7.839,7.496v16.757H381.021z"/>
		<path fill="#58595B" d="M393.418,467.474l3.283-5.39c1.812,1.96,4.459,2.744,7.202,2.744c2.499,0,6.026-1.029,6.026-5.438v-1.812
			c-1.96,2.303-4.312,3.43-7.006,3.43c-5.782,0-10.437-3.969-10.437-11.955c0-7.791,4.508-11.906,10.437-11.906
			c2.646,0,5.096,1.029,7.006,3.381v-2.793h7.497v21.559c0,9.651-7.644,11.71-13.523,11.71
			C399.837,471.002,396.456,469.973,393.418,467.474z M409.93,452.236v-6.32c-0.931-1.274-2.939-2.107-4.507-2.107
			c-2.989,0-5.194,1.813-5.194,5.243c0,3.479,2.205,5.291,5.194,5.291C406.99,454.343,408.999,453.51,409.93,452.236z"/>
		<path fill="#58595B" d="M436.93,461.398v-2.352c-1.471,1.764-4.312,2.939-7.35,2.939c-3.626,0-8.134-2.45-8.134-7.79
			c0-5.732,4.508-7.595,8.134-7.595c3.136,0,5.929,0.98,7.35,2.744v-2.842c0-2.058-1.765-3.43-4.802-3.43
			c-2.352,0-4.802,0.882-6.713,2.498l-2.694-4.752c3.037-2.597,7.104-3.675,10.729-3.675c5.684,0,11.024,2.106,11.024,9.456v14.797
			H436.93z M436.93,455.323v-2.107c-0.784-1.077-2.548-1.666-4.214-1.666c-2.009,0-3.772,0.883-3.772,2.744
			c0,1.862,1.764,2.744,3.772,2.744C434.382,457.038,436.146,456.45,436.93,455.323z"/>
		<path fill="#58595B" d="M465.986,461.398v-13.67c0-2.891-1.519-3.92-3.871-3.92c-2.254,0-3.724,1.226-4.605,2.303v15.287h-7.545
			v-23.665h7.545v2.891c1.421-1.666,4.214-3.479,8.183-3.479c5.39,0,7.839,3.136,7.839,7.496v16.757H465.986z"/>
		<path fill="#58595B" d="M490.781,441.996c0-2.499,2.106-4.605,4.605-4.605s4.605,2.106,4.605,4.605s-2.106,4.605-4.605,4.605
			S490.781,444.495,490.781,441.996z M490.781,457.381c0-2.499,2.106-4.605,4.605-4.605s4.605,2.106,4.605,4.605
			s-2.106,4.605-4.605,4.605S490.781,459.88,490.781,457.381z"/>
		<path fill="#58595B" d="M524.59,461.398v-21.901l-5.487,5.537l-4.802-5.047l11.416-11.27h7.301v32.681H524.59z"/>
		<path fill="#58595B" d="M551.441,461.398v-32.681h18.521c6.468,0,9.555,4.214,9.555,8.33c0,4.066-2.499,6.81-5.586,7.496
			c3.479,0.539,6.223,3.87,6.223,7.986c0,4.753-3.185,8.868-9.604,8.868H551.441z M570.942,438.518c0-1.568-1.176-2.695-2.891-2.695
			h-8.183v5.438h8.183C569.767,441.261,570.942,440.134,570.942,438.518z M571.579,451.354c0-1.617-1.176-2.94-3.233-2.94h-8.477
			v5.88h8.477C570.354,454.294,571.579,453.118,571.579,451.354z"/>
		<path fill="#58595B" d="M600.538,461.398v-2.842c-1.471,1.666-4.214,3.43-8.183,3.43c-5.39,0-7.79-3.038-7.79-7.398v-16.854h7.545
			v13.768c0,2.842,1.47,3.822,3.92,3.822c2.155,0,3.626-1.176,4.508-2.303v-15.287h7.545v23.665H600.538z"/>
		<path fill="#58595B" d="M613.573,461.398v-32.681h7.545v32.681H613.573z"/>
		<path fill="#58595B" d="M640.57,461.398v-2.352c-1.471,1.764-4.312,2.939-7.35,2.939c-3.626,0-8.134-2.45-8.134-7.79
			c0-5.732,4.508-7.595,8.134-7.595c3.136,0,5.929,0.98,7.35,2.744v-2.842c0-2.058-1.765-3.43-4.802-3.43
			c-2.352,0-4.802,0.882-6.713,2.498l-2.694-4.752c3.037-2.597,7.104-3.675,10.729-3.675c5.684,0,11.024,2.106,11.024,9.456v14.797
			H640.57z M640.57,455.323v-2.107c-0.784-1.077-2.548-1.666-4.214-1.666c-2.009,0-3.772,0.883-3.772,2.744
			c0,1.862,1.764,2.744,3.772,2.744C638.022,457.038,639.786,456.45,640.57,455.323z"/>
		<path fill="#58595B" d="M669.627,461.398v-13.67c0-2.891-1.519-3.92-3.871-3.92c-2.254,0-3.724,1.226-4.605,2.303v15.287h-7.545
			v-23.665h7.545v2.891c1.421-1.666,4.214-3.479,8.183-3.479c5.39,0,7.839,3.136,7.839,7.496v16.757H669.627z"/>
	</g>
</g>
<line fill="none" stroke="#58595B" stroke-width="3" stroke-miterlimit="10" x1="92" y1="512.586" x2="628" y2="512.586"/>
<g>
	<g>
		<path fill="#58595B" d="M248.323,755.568l0.108-2.07l-1.746,1.116l-0.396-0.702l1.836-0.937l-1.836-0.937l0.396-0.72l1.746,1.134
			l-0.108-2.07h0.828l-0.107,2.07l1.729-1.134l0.414,0.72l-1.837,0.937l1.837,0.937l-0.414,0.702l-1.729-1.116l0.107,2.07H248.323z"
			/>
		<path fill="#58595B" d="M252.121,760.88l0.9-1.152c0.773,0.9,2.07,1.729,3.763,1.729c2.143,0,2.827-1.152,2.827-2.089
			c0-3.097-7.112-1.368-7.112-5.653c0-1.98,1.765-3.35,4.141-3.35c1.819,0,3.241,0.631,4.25,1.692l-0.9,1.099
			c-0.9-1.008-2.161-1.44-3.476-1.44c-1.422,0-2.467,0.774-2.467,1.909c0,2.7,7.112,1.152,7.112,5.636
			c0,1.729-1.188,3.528-4.429,3.528C254.659,762.788,253.111,761.996,252.121,760.88z"/>
		<path fill="#58595B" d="M262.597,764.751c0.198,0.09,0.522,0.144,0.738,0.144c0.595,0,0.99-0.197,1.297-0.918l0.576-1.314
			l-3.638-8.786h1.477l2.881,7.13l2.899-7.13h1.458l-4.357,10.461c-0.521,1.261-1.404,1.746-2.557,1.765
			c-0.288,0-0.738-0.055-0.973-0.126L262.597,764.751z"/>
		<path fill="#58595B" d="M276.764,762.572v-0.99c-0.702,0.792-1.711,1.206-2.881,1.206c-1.459,0-3.025-0.99-3.025-2.881
			c0-1.962,1.549-2.862,3.025-2.862c1.188,0,2.179,0.378,2.881,1.17v-1.566c0-1.152-0.937-1.818-2.196-1.818
			c-1.045,0-1.891,0.36-2.665,1.206l-0.631-0.937c0.937-0.972,2.053-1.44,3.476-1.44c1.854,0,3.367,0.829,3.367,2.936v5.978H276.764
			z M276.764,760.735v-1.656c-0.522-0.702-1.44-1.062-2.377-1.062c-1.278,0-2.16,0.793-2.16,1.891c0,1.116,0.882,1.909,2.16,1.909
			C275.323,761.816,276.241,761.456,276.764,760.735z"/>
		<path fill="#58595B" d="M280.47,762.572v-8.696h1.351v1.386c0.702-0.9,1.71-1.584,2.898-1.584v1.387
			c-0.162-0.019-0.324-0.036-0.522-0.036c-0.846,0-1.98,0.684-2.376,1.386v6.158H280.47z"/>
		<path fill="#58595B" d="M291.487,762.572v-0.99c-0.702,0.792-1.711,1.206-2.881,1.206c-1.458,0-3.025-0.99-3.025-2.881
			c0-1.962,1.549-2.862,3.025-2.862c1.188,0,2.179,0.378,2.881,1.17v-1.566c0-1.152-0.937-1.818-2.196-1.818
			c-1.045,0-1.891,0.36-2.665,1.206l-0.63-0.937c0.936-0.972,2.052-1.44,3.475-1.44c1.854,0,3.367,0.829,3.367,2.936v5.978H291.487z
			 M291.487,760.735v-1.656c-0.522-0.702-1.44-1.062-2.377-1.062c-1.278,0-2.16,0.793-2.16,1.891c0,1.116,0.882,1.909,2.16,1.909
			C290.047,761.816,290.965,761.456,291.487,760.735z"/>
		<path fill="#58595B" d="M295.463,760.754v-5.689h-1.44v-1.188h1.44v-2.377h1.369v2.377h1.764v1.188h-1.764v5.401
			c0,0.648,0.288,1.116,0.864,1.116c0.396,0,0.738-0.18,0.918-0.378l0.396,1.026c-0.343,0.324-0.829,0.558-1.603,0.558
			C296.111,762.788,295.463,762.05,295.463,760.754z"/>
		<path fill="#58595B" d="M312.242,762.572c-0.36-0.306-0.828-0.774-1.314-1.261c-0.883,0.883-1.999,1.477-3.457,1.477
			c-2.053,0-3.728-1.134-3.728-3.349c0-1.873,1.261-2.827,2.647-3.583c-0.541-0.919-0.919-1.854-0.919-2.701
			c0-1.584,1.314-2.772,3.025-2.772c1.548,0,2.7,0.846,2.7,2.358c0,1.801-1.53,2.593-3.061,3.385
			c0.486,0.648,1.008,1.261,1.404,1.711c0.486,0.576,0.954,1.099,1.423,1.603c0.647-0.99,1.08-2.089,1.296-2.755l1.152,0.522
			c-0.396,0.954-0.918,2.088-1.639,3.097c0.721,0.738,1.459,1.458,2.341,2.269H312.242z M310.117,760.483
			c-0.685-0.72-1.314-1.404-1.656-1.818c-0.504-0.576-1.026-1.225-1.494-1.908c-1.009,0.612-1.783,1.351-1.783,2.593
			c0,1.494,1.152,2.322,2.431,2.322C308.604,761.672,309.433,761.186,310.117,760.483z M307.578,755.262
			c1.278-0.63,2.377-1.26,2.377-2.467c0-0.882-0.612-1.368-1.422-1.368c-0.919,0-1.675,0.721-1.675,1.765
			C306.858,753.821,307.164,754.56,307.578,755.262z"/>
		<path fill="#58595B" d="M325.85,762.572l-3.115-3.907l-1.458,1.423v2.484h-1.351v-12.01h1.351v7.94l4.573-4.627h1.71l-3.853,3.942
			l3.871,4.754H325.85z"/>
		<path fill="#58595B" d="M328.26,758.215c0-2.521,1.8-4.556,4.285-4.556c2.629,0,4.177,2.053,4.177,4.664v0.342H329.7
			c0.107,1.639,1.242,3.007,3.114,3.007c1.009,0,1.999-0.396,2.701-1.116l0.648,0.882c-0.883,0.864-2.053,1.351-3.457,1.351
			C330.114,762.788,328.26,760.934,328.26,758.215z M332.526,754.776c-1.854,0-2.772,1.566-2.845,2.881h5.708
			C335.371,756.379,334.507,754.776,332.526,754.776z"/>
		<path fill="#58595B" d="M338.807,760.754v-5.689h-1.44v-1.188h1.44v-2.377h1.369v2.377h1.764v1.188h-1.764v5.401
			c0,0.648,0.288,1.116,0.864,1.116c0.396,0,0.738-0.18,0.918-0.378l0.396,1.026c-0.343,0.324-0.829,0.558-1.603,0.558
			C339.455,762.788,338.807,762.05,338.807,760.754z"/>
		<path fill="#58595B" d="M342.966,758.215c0-2.521,1.8-4.556,4.285-4.556c2.629,0,4.177,2.053,4.177,4.664v0.342h-7.021
			c0.107,1.639,1.242,3.007,3.114,3.007c1.009,0,1.999-0.396,2.701-1.116l0.648,0.882c-0.883,0.864-2.053,1.351-3.457,1.351
			C344.82,762.788,342.966,760.934,342.966,758.215z M347.232,754.776c-1.854,0-2.772,1.566-2.845,2.881h5.708
			C350.077,756.379,349.213,754.776,347.232,754.776z"/>
		<path fill="#58595B" d="M359.131,762.572v-5.689c0-1.549-0.792-2.017-1.963-2.017c-1.062,0-2.053,0.647-2.574,1.351v6.355h-1.351
			v-8.696h1.351v1.26c0.611-0.738,1.8-1.477,3.114-1.477c1.801,0,2.755,0.919,2.755,2.81v6.104H359.131z"/>
		<path fill="#58595B" d="M363.088,760.754v-5.689h-1.44v-1.188h1.44v-2.377h1.369v2.377h1.764v1.188h-1.764v5.401
			c0,0.648,0.288,1.116,0.864,1.116c0.396,0,0.738-0.18,0.918-0.378l0.396,1.026c-0.343,0.324-0.829,0.558-1.603,0.558
			C363.736,762.788,363.088,762.05,363.088,760.754z"/>
		<path fill="#58595B" d="M373.62,762.572v-1.225c-0.666,0.757-1.8,1.44-3.097,1.44c-1.818,0-2.772-0.9-2.772-2.772v-6.14h1.351
			v5.726c0,1.53,0.773,1.98,1.962,1.98c1.045,0,2.053-0.612,2.557-1.314v-6.392h1.351v8.696H373.62z"/>
		<path fill="#58595B" d="M382.746,762.572v-0.99c-0.702,0.792-1.711,1.206-2.881,1.206c-1.459,0-3.025-0.99-3.025-2.881
			c0-1.962,1.549-2.862,3.025-2.862c1.188,0,2.179,0.378,2.881,1.17v-1.566c0-1.152-0.937-1.818-2.196-1.818
			c-1.045,0-1.891,0.36-2.665,1.206l-0.631-0.937c0.937-0.972,2.053-1.44,3.476-1.44c1.854,0,3.367,0.829,3.367,2.936v5.978H382.746
			z M382.746,760.735v-1.656c-0.522-0.702-1.44-1.062-2.377-1.062c-1.278,0-2.16,0.793-2.16,1.891c0,1.116,0.882,1.909,2.16,1.909
			C381.306,761.816,382.224,761.456,382.746,760.735z"/>
		<path fill="#58595B" d="M392.34,762.572v-5.689c0-1.549-0.792-2.017-1.963-2.017c-1.062,0-2.053,0.647-2.574,1.351v6.355h-1.351
			v-8.696h1.351v1.26c0.611-0.738,1.8-1.477,3.114-1.477c1.801,0,2.755,0.919,2.755,2.81v6.104H392.34z"/>
		<path fill="#58595B" d="M400.33,762.572v-12.01h1.351v4.628c0.702-0.955,1.765-1.531,2.935-1.531c2.287,0,3.871,1.783,3.871,4.574
			c0,2.826-1.603,4.555-3.871,4.555c-1.225,0-2.287-0.63-2.935-1.513v1.297H400.33z M404.291,761.582
			c1.746,0,2.791-1.423,2.791-3.349c0-1.927-1.045-3.367-2.791-3.367c-1.08,0-2.143,0.647-2.61,1.404v3.943
			C402.148,760.97,403.211,761.582,404.291,761.582z"/>
		<path fill="#58595B" d="M409.816,758.215c0-2.521,1.8-4.556,4.285-4.556c2.629,0,4.177,2.053,4.177,4.664v0.342h-7.021
			c0.107,1.639,1.242,3.007,3.114,3.007c1.009,0,1.999-0.396,2.701-1.116l0.648,0.882c-0.883,0.864-2.053,1.351-3.457,1.351
			C411.671,762.788,409.816,760.934,409.816,758.215z M414.083,754.776c-1.854,0-2.772,1.566-2.845,2.881h5.708
			C416.928,756.379,416.063,754.776,414.083,754.776z"/>
		<path fill="#58595B" d="M420.094,762.572v-8.696h1.351v1.386c0.702-0.9,1.71-1.584,2.898-1.584v1.387
			c-0.162-0.019-0.324-0.036-0.522-0.036c-0.846,0-1.98,0.684-2.376,1.386v6.158H420.094z"/>
		<path fill="#58595B" d="M425.673,762.572v-12.01h1.351v12.01H425.673z"/>
		<path fill="#58595B" d="M434.801,762.572v-0.99c-0.702,0.792-1.711,1.206-2.881,1.206c-1.459,0-3.025-0.99-3.025-2.881
			c0-1.962,1.549-2.862,3.025-2.862c1.188,0,2.179,0.378,2.881,1.17v-1.566c0-1.152-0.937-1.818-2.196-1.818
			c-1.045,0-1.891,0.36-2.665,1.206l-0.631-0.937c0.937-0.972,2.053-1.44,3.476-1.44c1.854,0,3.367,0.829,3.367,2.936v5.978H434.801
			z M434.801,760.735v-1.656c-0.522-0.702-1.44-1.062-2.377-1.062c-1.278,0-2.16,0.793-2.16,1.891c0,1.116,0.882,1.909,2.16,1.909
			C433.36,761.816,434.278,761.456,434.801,760.735z"/>
		<path fill="#58595B" d="M444.431,762.572l-3.115-3.907l-1.458,1.423v2.484h-1.351v-12.01h1.351v7.94l4.573-4.627h1.71
			l-3.853,3.942l3.871,4.754H444.431z"/>
		<path fill="#58595B" d="M453.268,762.572v-1.225c-0.666,0.757-1.8,1.44-3.097,1.44c-1.818,0-2.772-0.9-2.772-2.772v-6.14h1.351
			v5.726c0,1.53,0.773,1.98,1.962,1.98c1.045,0,2.053-0.612,2.557-1.314v-6.392h1.351v8.696H453.268z"/>
	</g>
</g>
<g>
	<g>
		<path fill="#5D5D5D" d="M40.005,563.24l2-2.56c1.72,2,4.599,3.84,8.358,3.84c4.76,0,6.279-2.56,6.279-4.64
			c0-6.879-15.798-3.039-15.798-12.558c0-4.399,3.92-7.438,9.198-7.438c4.04,0,7.199,1.399,9.438,3.759l-1.999,2.44
			c-2-2.24-4.8-3.2-7.719-3.2c-3.16,0-5.479,1.72-5.479,4.239c0,5.999,15.798,2.56,15.798,12.519c0,3.839-2.64,7.838-9.839,7.838
			C45.645,567.479,42.205,565.721,40.005,563.24z"/>
		<path fill="#5D5D5D" d="M63.605,542.924c0-1.119,0.92-2.039,2.04-2.039c1.119,0,1.999,0.92,1.999,2.039c0,1.12-0.88,2-1.999,2
			C64.525,544.924,63.605,544.044,63.605,542.924z M64.125,567v-19.316h3V567H64.125z"/>
		<path fill="#5D5D5D" d="M72.325,567v-26.676h3V567H72.325z"/>
		<path fill="#5D5D5D" d="M92.603,567v-2.199c-1.56,1.76-3.799,2.679-6.398,2.679c-3.239,0-6.719-2.199-6.719-6.398
			c0-4.359,3.439-6.359,6.719-6.359c2.64,0,4.839,0.84,6.398,2.6v-3.479c0-2.56-2.079-4.039-4.879-4.039
			c-2.319,0-4.199,0.8-5.919,2.68l-1.399-2.08c2.079-2.159,4.559-3.199,7.719-3.199c4.119,0,7.479,1.84,7.479,6.52V567H92.603z
			 M92.603,562.921v-3.68c-1.159-1.56-3.199-2.359-5.278-2.359c-2.84,0-4.8,1.76-4.8,4.199c0,2.479,1.96,4.239,4.8,4.239
			C89.403,565.32,91.443,564.521,92.603,562.921z"/>
		<path fill="#5D5D5D" d="M113.923,567v-12.718c0-3.439-1.72-4.399-4.359-4.399c-2.319,0-4.559,1.439-5.679,3V567h-3v-26.676h3
			v10.158c1.319-1.64,3.959-3.279,6.879-3.279c4.039,0,6.159,1.96,6.159,6.159V567H113.923z"/>
		<path fill="#5D5D5D" d="M135.282,567l-6.919-8.679l-3.239,3.159V567h-3v-26.676h3v17.638l10.158-10.278h3.8l-8.559,8.758
			L139.122,567H135.282z"/>
		<path fill="#5D5D5D" d="M153.962,567v-2.199c-1.56,1.76-3.799,2.679-6.398,2.679c-3.239,0-6.719-2.199-6.719-6.398
			c0-4.359,3.439-6.359,6.719-6.359c2.64,0,4.839,0.84,6.398,2.6v-3.479c0-2.56-2.079-4.039-4.879-4.039
			c-2.319,0-4.199,0.8-5.919,2.68l-1.399-2.08c2.079-2.159,4.559-3.199,7.719-3.199c4.119,0,7.479,1.84,7.479,6.52V567H153.962z
			 M153.962,562.921v-3.68c-1.159-1.56-3.199-2.359-5.278-2.359c-2.84,0-4.8,1.76-4.8,4.199c0,2.479,1.96,4.239,4.8,4.239
			C150.763,565.32,152.803,564.521,153.962,562.921z"/>
		<path fill="#5D5D5D" d="M175.282,567v-12.638c0-3.439-1.76-4.479-4.359-4.479c-2.359,0-4.559,1.439-5.719,3V567h-3v-19.316h3
			v2.799c1.359-1.64,3.999-3.279,6.919-3.279c3.999,0,6.119,2.04,6.119,6.239V567H175.282z"/>
		<path fill="#5D5D5D" d="M192.723,567v-26.676h3.319v23.716h12.397V567H192.723z"/>
		<path fill="#5D5D5D" d="M223.48,567v-2.199c-1.56,1.76-3.799,2.679-6.398,2.679c-3.239,0-6.719-2.199-6.719-6.398
			c0-4.359,3.439-6.359,6.719-6.359c2.64,0,4.839,0.84,6.398,2.6v-3.479c0-2.56-2.079-4.039-4.879-4.039
			c-2.319,0-4.199,0.8-5.919,2.68l-1.399-2.08c2.079-2.159,4.559-3.199,7.719-3.199c4.119,0,7.479,1.84,7.479,6.52V567H223.48z
			 M223.48,562.921v-3.68c-1.159-1.56-3.199-2.359-5.278-2.359c-2.84,0-4.8,1.76-4.8,4.199c0,2.479,1.96,4.239,4.8,4.239
			C220.281,565.32,222.321,564.521,223.48,562.921z"/>
		<path fill="#5D5D5D" d="M244.801,567v-12.638c0-3.439-1.76-4.479-4.359-4.479c-2.359,0-4.559,1.439-5.719,3V567h-3v-19.316h3
			v2.799c1.359-1.64,3.999-3.279,6.919-3.279c3.999,0,6.119,2.04,6.119,6.239V567H244.801z"/>
		<path fill="#5D5D5D" d="M246.084,573.398l1.039-2.239c0.681,0.68,1.561,1.2,2.76,1.2c1.8,0,3.119-1.04,3.119-3.479v-21.196h3
			v21.196c0,3.799-2,5.959-5.719,5.959C248.323,574.839,247.283,574.358,246.084,573.398z M252.482,542.924
			c0-1.119,0.92-2.039,2.04-2.039c1.119,0,1.999,0.92,1.999,2.039c0,1.12-0.88,2-1.999,2
			C253.402,544.924,252.482,544.044,252.482,542.924z"/>
		<path fill="#5D5D5D" d="M274.239,567v-2.72c-1.479,1.68-3.999,3.199-6.879,3.199c-4.039,0-6.159-1.999-6.159-6.158v-13.638h3
			v12.718c0,3.399,1.72,4.399,4.359,4.399c2.319,0,4.56-1.36,5.679-2.92v-14.197h3V567H274.239z"/>
		<path fill="#5D5D5D" d="M283.042,562.961v-12.638h-3.199v-2.64h3.199v-5.279h3.039v5.279h3.92v2.64h-3.92v11.997
			c0,1.44,0.64,2.48,1.92,2.48c0.88,0,1.64-0.4,2.04-0.84l0.88,2.279c-0.761,0.72-1.84,1.239-3.56,1.239
			C284.481,567.479,283.042,565.84,283.042,562.961z"/>
		<path fill="#5D5D5D" d="M316.119,567l-6.919-8.679l-3.239,3.159V567h-3v-26.676h3v17.638l10.158-10.278h3.8l-8.559,8.758
			L319.959,567H316.119z"/>
		<path fill="#5D5D5D" d="M321.481,557.321c0-5.599,3.999-10.118,9.519-10.118c5.839,0,9.278,4.56,9.278,10.358v0.76h-15.598
			c0.24,3.64,2.76,6.679,6.919,6.679c2.239,0,4.439-0.88,5.999-2.479l1.439,1.96c-1.959,1.92-4.559,2.999-7.679,2.999
			C325.601,567.479,321.481,563.36,321.481,557.321z M330.96,549.683c-4.119,0-6.159,3.479-6.319,6.399h12.678
			C337.278,553.242,335.359,549.683,330.96,549.683z"/>
		<path fill="#5D5D5D" d="M376.796,567v-22.437L367.757,567h-1.359l-9.079-22.437V567h-3.319v-26.676h4.76l8.318,20.557
			l8.278-20.557h4.76V567H376.796z"/>
		<path fill="#5D5D5D" d="M384.319,557.321c0-5.599,3.999-10.118,9.519-10.118c5.839,0,9.278,4.56,9.278,10.358v0.76h-15.598
			c0.24,3.64,2.76,6.679,6.919,6.679c2.239,0,4.439-0.88,5.999-2.479l1.439,1.96c-1.959,1.92-4.559,2.999-7.679,2.999
			C388.438,567.479,384.319,563.36,384.319,557.321z M393.798,549.683c-4.119,0-6.159,3.479-6.319,6.399h12.678
			C400.116,553.242,398.197,549.683,393.798,549.683z"/>
		<path fill="#5D5D5D" d="M420.236,567v-12.638c0-3.439-1.76-4.479-4.359-4.479c-2.359,0-4.559,1.439-5.719,3V567h-3v-19.316h3
			v2.799c1.359-1.64,3.999-3.279,6.919-3.279c3.999,0,6.119,2.04,6.119,6.239V567H420.236z"/>
		<path fill="#5D5D5D" d="M441.476,567v-2.72c-1.479,1.68-3.999,3.199-6.879,3.199c-4.039,0-6.159-1.999-6.159-6.158v-13.638h3
			v12.718c0,3.399,1.72,4.399,4.359,4.399c2.319,0,4.56-1.36,5.679-2.92v-14.197h3V567H441.476z"/>
		<path fill="#5D5D5D" d="M462.116,539.885l2.56,2.079c-1.279,0.641-2.959,2.36-3.359,3.8c0.16-0.04,0.52-0.12,0.92-0.12
			c1.68,0,3.079,1.319,3.079,3.279c0,2.04-1.68,3.72-3.679,3.72c-2.16,0-4.08-1.72-4.08-4.64
			C457.557,544.724,459.316,541.884,462.116,539.885z M471.115,539.885l2.56,2.079c-1.28,0.641-2.92,2.36-3.36,3.8
			c0.16-0.04,0.521-0.12,0.92-0.12c1.72,0,3.08,1.319,3.08,3.279c0,2.04-1.68,3.72-3.64,3.72c-2.159,0-4.119-1.72-4.119-4.64
			C466.556,544.724,468.315,541.884,471.115,539.885z"/>
		<path fill="#5D5D5D" d="M477.557,567v-26.676h13.358c5.999,0,9.278,4.04,9.278,8.879c0,4.799-3.279,8.838-9.278,8.838h-6.479V567
			H477.557z M493.194,549.203c0-1.84-1.36-2.88-3.199-2.88h-5.56v5.72h5.56C491.834,552.043,493.194,551.003,493.194,549.203z"/>
		<path fill="#5D5D5D" d="M500.317,557.321c0-5.599,4.239-10.118,10.278-10.118c5.719,0,9.878,4.199,9.878,10.759v1.319h-13.758
			c0.36,1.8,2.04,3.439,4.84,3.439c1.359,0,3.719-0.6,4.799-1.64l2.6,3.839c-1.92,1.72-5.119,2.56-8.079,2.56
			C504.916,567.479,500.317,563.601,500.317,557.321z M510.596,551.963c-2.68,0-3.72,1.919-3.96,3.319h7.959
			C514.435,553.922,513.436,551.963,510.596,551.963z"/>
		<path fill="#5D5D5D" d="M547.072,567v-11.758c0-1.479-0.72-2.6-2.56-2.6c-1.68,0-2.88,1.08-3.479,1.88V567h-6.159v-11.758
			c0-1.479-0.68-2.6-2.56-2.6c-1.64,0-2.8,1.08-3.439,1.88V567h-6.159v-19.316h6.159v2.359c0.84-1.12,3.319-2.84,6.359-2.84
			c2.759,0,4.679,1.16,5.479,3.439c1.12-1.68,3.64-3.439,6.679-3.439c3.56,0,5.8,1.84,5.8,5.799V567H547.072z"/>
		<path fill="#5D5D5D" d="M556.916,567v-26.676h6.159v9.639c1.52-1.92,3.6-2.76,5.719-2.76c4.8,0,8.519,3.8,8.519,10.118
			c0,6.56-3.759,10.158-8.519,10.158c-2.159,0-4.119-0.88-5.719-2.719V567H556.916z M566.755,562.041c2.439,0,4.279-1.8,4.279-4.72
			c0-2.879-1.84-4.679-4.279-4.679c-1.32,0-2.92,0.72-3.68,1.76v5.919C563.835,561.361,565.435,562.041,566.755,562.041z"/>
		<path fill="#5D5D5D" d="M578.477,557.321c0-5.599,4.239-10.118,10.278-10.118c5.719,0,9.878,4.199,9.878,10.759v1.319h-13.758
			c0.36,1.8,2.04,3.439,4.84,3.439c1.359,0,3.719-0.6,4.799-1.64l2.6,3.839c-1.92,1.72-5.119,2.56-8.078,2.56
			C583.075,567.479,578.477,563.601,578.477,557.321z M588.755,551.963c-2.68,0-3.72,1.919-3.96,3.319h7.959
			C592.594,553.922,591.594,551.963,588.755,551.963z"/>
		<path fill="#5D5D5D" d="M600.876,567v-26.676h6.159V567H600.876z"/>
		<path fill="#5D5D5D" d="M610.276,542.404c0-1.96,1.56-3.52,3.52-3.52c1.959,0,3.52,1.56,3.52,3.52s-1.561,3.56-3.52,3.56
			C611.836,545.964,610.276,544.364,610.276,542.404z M610.716,567v-19.316h6.159V567H610.716z"/>
		<path fill="#5D5D5D" d="M631.953,567v-1.92c-1.2,1.44-3.52,2.399-5.999,2.399c-2.959,0-6.639-1.999-6.639-6.358
			c0-4.68,3.68-6.199,6.639-6.199c2.56,0,4.839,0.8,5.999,2.24v-2.32c0-1.68-1.439-2.799-3.919-2.799c-1.92,0-3.92,0.72-5.479,2.039
			l-2.199-3.879c2.479-2.12,5.799-3,8.758-3c4.64,0,8.999,1.72,8.999,7.719V567H631.953z M631.953,562.041v-1.72
			c-0.64-0.88-2.08-1.36-3.439-1.36c-1.64,0-3.079,0.721-3.079,2.24s1.439,2.239,3.079,2.239
			C629.873,563.44,631.313,562.961,631.953,562.041z"/>
		<path fill="#5D5D5D" d="M654.873,567v-11.158c0-2.359-1.24-3.199-3.159-3.199c-1.84,0-3.04,1-3.76,1.88V567h-6.159v-19.316h6.159
			v2.359c1.16-1.36,3.439-2.84,6.679-2.84c4.399,0,6.399,2.56,6.399,6.119V567H654.873z"/>
		<path fill="#5D5D5D" d="M666.595,552.683l-2.56-2.08c1.28-0.64,2.96-2.359,3.399-3.839c-0.199,0.08-0.56,0.16-0.92,0.16
			c-1.72,0-3.119-1.32-3.119-3.32c0-2.039,1.68-3.679,3.68-3.679c2.159,0,4.079,1.68,4.079,4.639
			C671.154,547.803,669.395,550.683,666.595,552.683z M675.634,552.683l-2.56-2.08c1.279-0.64,2.919-2.359,3.359-3.839
			c-0.16,0.08-0.561,0.16-0.92,0.16c-1.72,0-3.079-1.32-3.079-3.32c0-2.039,1.68-3.679,3.639-3.679c2.16,0,4.119,1.68,4.119,4.639
			C680.192,547.803,678.434,550.683,675.634,552.683z"/>
		<path fill="#5D5D5D" d="M62.034,616.766c-3.15-4.341-4.936-9.836-4.936-15.472s1.785-11.131,4.936-15.472l1.61,1.19
			c-2.275,4.445-3.676,8.436-3.676,14.281c0,5.811,1.4,9.836,3.676,14.246L62.034,616.766z"/>
		<path fill="#5D5D5D" d="M77.574,609.8v-2.38c-1.295,1.47-3.5,2.8-6.021,2.8c-3.535,0-5.391-1.75-5.391-5.391v-11.937h2.626v11.132
			c0,2.976,1.505,3.851,3.815,3.851c2.029,0,3.99-1.19,4.97-2.556v-12.427H80.2V609.8H77.574z"/>
		<path fill="#5D5D5D" d="M96.194,609.8v-11.062c0-3.01-1.54-3.92-3.815-3.92c-2.065,0-3.99,1.26-5.005,2.625V609.8h-2.626v-16.907
			h2.626v2.451c1.189-1.436,3.5-2.871,6.056-2.871c3.5,0,5.355,1.785,5.355,5.461V609.8H96.194z"/>
		<path fill="#5D5D5D" d="M103.894,606.265v-11.062h-2.801v-2.311h2.801v-4.62h2.66v4.62h3.431v2.311h-3.431v10.501
			c0,1.261,0.561,2.171,1.681,2.171c0.77,0,1.435-0.351,1.785-0.735l0.77,1.995c-0.665,0.63-1.61,1.085-3.115,1.085
			C105.153,610.22,103.894,608.785,103.894,606.265z"/>
		<path fill="#5D5D5D" d="M124.369,609.8v-2.38c-1.295,1.47-3.5,2.8-6.021,2.8c-3.535,0-5.391-1.75-5.391-5.391v-11.937h2.626
			v11.132c0,2.976,1.505,3.851,3.815,3.851c2.029,0,3.99-1.19,4.97-2.556v-12.427h2.626V609.8H124.369z"/>
		<path fill="#5D5D5D" d="M143.06,609.8l-6.056-7.596l-2.835,2.766v4.83h-2.626v-23.348h2.626v15.437l8.891-8.996h3.325
			l-7.491,7.666l7.526,9.241H143.06z"/>
		<path fill="#5D5D5D" d="M177.604,609.8v-11.481c0-2.135-0.91-3.5-3.115-3.5c-1.75,0-3.605,1.225-4.48,2.59V609.8h-2.625v-11.481
			c0-2.135-0.875-3.5-3.115-3.5c-1.716,0-3.535,1.26-4.445,2.625V609.8h-2.626v-16.907h2.626v2.451
			c0.734-1.086,2.975-2.871,5.495-2.871c2.556,0,4.025,1.4,4.516,3.15c0.945-1.54,3.22-3.15,5.671-3.15
			c3.08,0,4.725,1.716,4.725,5.111V609.8H177.604z"/>
		<path fill="#5D5D5D" d="M184.322,588.728c0-0.98,0.806-1.785,1.785-1.785c0.98,0,1.751,0.805,1.751,1.785s-0.771,1.75-1.751,1.75
			C185.128,590.478,184.322,589.708,184.322,588.728z M184.777,609.8v-16.907h2.626V609.8H184.777z"/>
		<path fill="#5D5D5D" d="M203.398,609.8v-11.062c0-3.01-1.54-3.92-3.815-3.92c-2.065,0-3.99,1.26-5.005,2.625V609.8h-2.626v-16.907
			h2.626v2.451c1.189-1.436,3.5-2.871,6.056-2.871c3.5,0,5.355,1.785,5.355,5.461V609.8H203.398z"/>
		<path fill="#5D5D5D" d="M210.047,608.225c0-1.05,0.875-1.925,1.925-1.925s1.925,0.875,1.925,1.925s-0.875,1.925-1.925,1.925
			S210.047,609.274,210.047,608.225z"/>
		<path fill="#5D5D5D" d="M229.926,609.8v-19.532l-3.745,3.99l-1.75-1.785l5.846-6.021h2.555V609.8H229.926z"/>
		<path fill="#5D5D5D" d="M257.366,609.8l-6.056-7.596l-2.835,2.766v4.83h-2.626v-23.348h2.626v15.437l8.891-8.996h3.325
			l-7.491,7.666l7.526,9.241H257.366z"/>
		<path fill="#5D5D5D" d="M273.71,609.8v-1.925c-1.365,1.54-3.325,2.345-5.601,2.345c-2.835,0-5.881-1.925-5.881-5.601
			c0-3.815,3.011-5.565,5.881-5.565c2.311,0,4.235,0.735,5.601,2.275v-3.046c0-2.24-1.82-3.535-4.271-3.535
			c-2.03,0-3.675,0.7-5.181,2.346l-1.225-1.82c1.82-1.891,3.99-2.801,6.756-2.801c3.604,0,6.545,1.61,6.545,5.706V609.8H273.71z
			 M273.71,606.229v-3.221c-1.015-1.365-2.8-2.064-4.62-2.064c-2.485,0-4.201,1.54-4.201,3.675c0,2.17,1.716,3.711,4.201,3.711
			C270.91,608.33,272.695,607.63,273.71,606.229z"/>
		<path fill="#5D5D5D" d="M280.919,609.8v-23.348h2.626V609.8H280.919z"/>
		<path fill="#5D5D5D" d="M287.639,588.728c0-0.98,0.806-1.785,1.785-1.785c0.98,0,1.751,0.805,1.751,1.785s-0.771,1.75-1.751,1.75
			C288.444,590.478,287.639,589.708,287.639,588.728z M288.094,609.8v-16.907h2.626V609.8H288.094z"/>
		<path fill="#5D5D5D" d="M304.159,606.265v-11.062h-2.801v-2.311h2.801v-4.62h2.66v4.62h3.431v2.311h-3.431v10.501
			c0,1.261,0.561,2.171,1.681,2.171c0.77,0,1.435-0.351,1.785-0.735l0.77,1.995c-0.665,0.63-1.61,1.085-3.115,1.085
			C305.419,610.22,304.159,608.785,304.159,606.265z"/>
		<path fill="#5D5D5D" d="M313.224,609.8v-16.907h2.626v2.695c1.364-1.75,3.325-3.08,5.635-3.08v2.695
			c-0.314-0.035-0.63-0.07-1.015-0.07c-1.646,0-3.851,1.331-4.62,2.695V609.8H313.224z"/>
		<path fill="#5D5D5D" d="M334.645,609.8v-1.925c-1.365,1.54-3.325,2.345-5.601,2.345c-2.835,0-5.881-1.925-5.881-5.601
			c0-3.815,3.011-5.565,5.881-5.565c2.311,0,4.235,0.735,5.601,2.275v-3.046c0-2.24-1.82-3.535-4.271-3.535
			c-2.03,0-3.675,0.7-5.181,2.346l-1.225-1.82c1.82-1.891,3.99-2.801,6.756-2.801c3.605,0,6.545,1.61,6.545,5.706V609.8H334.645z
			 M334.645,606.229v-3.221c-1.015-1.365-2.8-2.064-4.62-2.064c-2.485,0-4.201,1.54-4.201,3.675c0,2.17,1.716,3.711,4.201,3.711
			C331.845,608.33,333.63,607.63,334.645,606.229z"/>
		<path fill="#5D5D5D" d="M353.3,609.8v-11.062c0-3.01-1.54-3.92-3.815-3.92c-2.065,0-3.99,1.26-5.005,2.625V609.8h-2.626v-16.907
			h2.626v2.451c1.189-1.436,3.5-2.871,6.056-2.871c3.5,0,5.355,1.785,5.355,5.461V609.8H353.3z"/>
		<path fill="#5D5D5D" d="M359.039,607.56l1.33-1.891c1.12,1.296,3.255,2.416,5.565,2.416c2.59,0,4.025-1.226,4.025-2.905
			c0-4.096-10.466-1.575-10.466-7.841c0-2.661,2.24-4.866,6.266-4.866c2.905,0,4.936,1.086,6.266,2.45l-1.226,1.82
			c-1.015-1.225-2.835-2.135-5.04-2.135c-2.311,0-3.746,1.155-3.746,2.66c0,3.676,10.467,1.26,10.467,7.841
			c0,2.835-2.275,5.11-6.616,5.11C363.064,610.22,360.754,609.345,359.039,607.56z"/>
		<path fill="#5D5D5D" d="M386.619,609.8v-1.925c-1.365,1.54-3.325,2.345-5.601,2.345c-2.835,0-5.881-1.925-5.881-5.601
			c0-3.815,3.011-5.565,5.881-5.565c2.311,0,4.235,0.735,5.601,2.275v-3.046c0-2.24-1.82-3.535-4.271-3.535
			c-2.03,0-3.675,0.7-5.181,2.346l-1.225-1.82c1.82-1.891,3.99-2.801,6.756-2.801c3.605,0,6.545,1.61,6.545,5.706V609.8H386.619z
			 M386.619,606.229v-3.221c-1.015-1.365-2.8-2.064-4.62-2.064c-2.485,0-4.201,1.54-4.201,3.675c0,2.17,1.716,3.711,4.201,3.711
			C383.819,608.33,385.604,607.63,386.619,606.229z"/>
		<path fill="#5D5D5D" d="M405.345,609.8l-6.056-7.596l-2.835,2.766v4.83h-2.626v-23.348h2.626v15.437l8.891-8.996h3.325
			l-7.491,7.666l7.526,9.241H405.345z"/>
		<path fill="#5D5D5D" d="M409.683,607.56l1.33-1.891c1.12,1.296,3.255,2.416,5.565,2.416c2.59,0,4.025-1.226,4.025-2.905
			c0-4.096-10.466-1.575-10.466-7.841c0-2.661,2.24-4.866,6.266-4.866c2.905,0,4.936,1.086,6.266,2.45l-1.226,1.82
			c-1.015-1.225-2.835-2.135-5.04-2.135c-2.311,0-3.746,1.155-3.746,2.66c0,3.676,10.467,1.26,10.467,7.841
			c0,2.835-2.275,5.11-6.616,5.11C413.708,610.22,411.397,609.345,409.683,607.56z"/>
		<path fill="#5D5D5D" d="M426.236,588.728c0-0.98,0.806-1.785,1.785-1.785c0.98,0,1.751,0.805,1.751,1.785s-0.771,1.75-1.751,1.75
			C427.042,590.478,426.236,589.708,426.236,588.728z M426.691,609.8v-16.907h2.626V609.8H426.691z"/>
		<path fill="#5D5D5D" d="M440.832,601.259c0-7.561,6.615-13.791,13.896-13.791c6.615,0,11.025,4.97,11.025,11.096
			c0,5.461-3.115,8.261-6.056,8.261c-1.96,0-3.08-1.365-3.185-2.835v-0.245c-1.226,1.75-3.326,3.08-5.566,3.08
			c-3.255,0-5.355-2.31-5.355-5.705c0-4.866,4.096-8.786,8.227-8.786c2.274,0,3.815,1.226,4.48,2.73l0.455-2.171h2.38l-1.995,9.486
			c-0.035,0.21-0.07,0.525-0.07,0.735c0,1.155,0.735,1.82,1.646,1.82c1.365,0,3.815-1.54,3.815-6.371
			c0-5.74-3.956-9.906-9.906-9.906c-6.791,0-12.566,5.986-12.566,12.531c0,5.601,4.2,9.906,10.011,9.906
			c2.485,0,4.621-0.77,6.511-1.96l0.631,0.91c-2.171,1.4-4.691,2.205-7.281,2.205C445.557,612.25,440.832,607.454,440.832,601.259z
			 M456.863,601.714l1.015-4.865c-0.385-1.085-1.54-2.556-3.604-2.556c-3.501,0-6.161,3.291-6.161,6.686
			c0,2.24,1.295,3.886,3.57,3.886C454.062,604.864,455.848,603.185,456.863,601.714z"/>
		<path fill="#5D5D5D" d="M490.916,609.8l-5.915-9.276h-4.69v9.276h-2.905v-23.348h9.381c4.271,0,7.351,2.73,7.351,7.036
			c0,4.2-2.905,6.511-6.091,6.791l6.301,9.521H490.916z M491.127,593.488c0-2.66-1.926-4.445-4.691-4.445h-6.125v8.926h6.125
			C489.201,597.969,491.127,596.113,491.127,593.488z"/>
		<path fill="#5D5D5D" d="M500.54,607.244v8.996h-2.626v-23.348h2.626v2.521c1.225-1.715,3.325-2.94,5.705-2.94
			c4.445,0,7.526,3.36,7.526,8.856c0,5.46-3.081,8.891-7.526,8.891C503.935,610.22,501.939,609.1,500.54,607.244z M511.006,601.329
			c0-3.745-2.03-6.511-5.426-6.511c-2.065,0-4.131,1.225-5.04,2.695v7.631c0.909,1.47,2.975,2.73,5.04,2.73
			C508.976,607.875,511.006,605.074,511.006,601.329z"/>
		<path fill="#5D5D5D" d="M525.284,606.475l1.785-1.96c1.54,1.995,3.605,3.115,6.44,3.115c3.186,0,5.391-2.171,5.391-5.006
			c0-3.08-2.205-5.04-5.355-5.04c-2.03,0-3.815,0.665-5.391,2.17l-2.136-0.735v-12.566h14.282v2.591h-11.377v8.12
			c1.155-1.12,3.116-2.1,5.461-2.1c3.921,0,7.456,2.625,7.456,7.456c0,4.725-3.641,7.7-8.331,7.7
			C529.589,610.22,527.034,608.785,525.284,606.475z"/>
		<path fill="#5D5D5D" d="M545.233,606.475l1.785-1.96c1.54,1.995,3.605,3.115,6.44,3.115c3.186,0,5.391-2.171,5.391-5.006
			c0-3.08-2.205-5.04-5.355-5.04c-2.03,0-3.815,0.665-5.391,2.17l-2.136-0.735v-12.566h14.282v2.591h-11.377v8.12
			c1.155-1.12,3.116-2.1,5.461-2.1c3.921,0,7.456,2.625,7.456,7.456c0,4.725-3.641,7.7-8.331,7.7
			C549.538,610.22,546.983,608.785,545.233,606.475z"/>
		<path fill="#5D5D5D" d="M564.973,608.225c0-1.05,0.875-1.925,1.925-1.925s1.925,0.875,1.925,1.925s-0.875,1.925-1.925,1.925
			S564.973,609.274,564.973,608.225z"/>
		<path fill="#5D5D5D" d="M570.957,598.144c0-5.706,2.521-12.041,8.926-12.041c6.371,0,8.926,6.335,8.926,12.041
			c0,5.671-2.555,12.076-8.926,12.076C573.478,610.22,570.957,603.814,570.957,598.144z M585.834,598.144
			c0-4.655-1.506-9.451-5.951-9.451s-5.95,4.796-5.95,9.451s1.505,9.486,5.95,9.486S585.834,602.799,585.834,598.144z"/>
		<path fill="#5D5D5D" d="M591.678,598.144c0-5.706,2.521-12.041,8.926-12.041c6.371,0,8.926,6.335,8.926,12.041
			c0,5.671-2.555,12.076-8.926,12.076C594.198,610.22,591.678,603.814,591.678,598.144z M606.555,598.144
			c0-4.655-1.506-9.451-5.951-9.451s-5.95,4.796-5.95,9.451s1.505,9.486,5.95,9.486S606.555,602.799,606.555,598.144z"/>
		<path fill="#5D5D5D" d="M612.397,598.144c0-5.706,2.521-12.041,8.926-12.041c6.371,0,8.926,6.335,8.926,12.041
			c0,5.671-2.555,12.076-8.926,12.076C614.918,610.22,612.397,603.814,612.397,598.144z M627.274,598.144
			c0-4.655-1.506-9.451-5.951-9.451s-5.95,4.796-5.95,9.451s1.505,9.486,5.95,9.486S627.274,602.799,627.274,598.144z"/>
		<path fill="#5D5D5D" d="M633.573,614.245l-1.33-1.085c1.12-0.735,2.136-2.101,2.275-3.255c-0.07,0.034-0.315,0.069-0.49,0.069
			c-0.945,0-1.68-0.77-1.68-1.785c0-1.015,0.805-1.89,1.854-1.89c1.19,0,2.205,0.979,2.205,2.66
			C636.408,611.095,635.184,613.09,633.573,614.245z"/>
		<path fill="#5D5D5D" d="M638.647,602.484v-2.311h8.401v2.311H638.647z"/>
		<path fill="#5D5D5D" d="M656.357,615.54c2.275-4.41,3.676-8.436,3.676-14.246c0-5.846-1.4-9.836-3.676-14.281l1.61-1.19
			c3.15,4.341,4.936,9.836,4.936,15.472s-1.785,11.131-4.936,15.472L656.357,615.54z"/>
		<path fill="#5D5D5D" d="M113.199,652.6v-19.236l-7.519,19.236h-2.48l-7.519-19.236V652.6h-5.679v-26.676h7.959l6.479,16.678
			l6.479-16.678h7.999V652.6H113.199z"/>
		<path fill="#5D5D5D" d="M122.043,642.921c0-5.599,4.16-10.118,9.999-10.118c5.799,0,9.678,4.319,9.678,10.599v1.199h-14.357
			c0.36,2.36,2.28,4.319,5.56,4.319c1.64,0,3.879-0.68,5.119-1.879l2.279,3.359c-1.92,1.76-4.959,2.679-7.959,2.679
			C126.482,653.079,122.043,649.12,122.043,642.921z M132.042,636.962c-3.16,0-4.52,2.2-4.72,4.12h9.519
			C136.681,639.242,135.401,636.962,132.042,636.962z"/>
		<path fill="#5D5D5D" d="M157.642,652.6v-11.678c0-2.68-1.4-3.6-3.56-3.6c-2,0-3.52,1.12-4.399,2.239V652.6h-5.079v-19.316h5.079
			v2.479c1.24-1.44,3.64-2.96,6.759-2.96c4.279,0,6.319,2.399,6.319,6.159V652.6H157.642z"/>
		<path fill="#5D5D5D" d="M178.561,652.6v-2.04c-1.319,1.601-3.599,2.52-6.118,2.52c-3.08,0-6.68-2.079-6.68-6.398
			c0-4.56,3.6-6.239,6.68-6.239c2.6,0,4.839,0.84,6.118,2.359v-2.439c0-1.959-1.68-3.239-4.239-3.239
			c-2.039,0-3.959,0.8-5.559,2.279l-2-3.559c2.36-2.12,5.399-3.04,8.438-3.04c4.439,0,8.479,1.76,8.479,7.319V652.6H178.561z
			 M178.561,647.96v-2.399c-0.84-1.119-2.439-1.72-4.079-1.72c-1.999,0-3.64,1.08-3.64,2.92s1.641,2.879,3.64,2.879
			C176.121,649.64,177.721,649.08,178.561,647.96z"/>
		<path fill="#5D5D5D" d="M200.921,652.6v-11.678c0-2.68-1.4-3.6-3.56-3.6c-2,0-3.52,1.12-4.399,2.239V652.6h-5.079v-19.316h5.079
			v2.479c1.24-1.44,3.64-2.96,6.759-2.96c4.279,0,6.319,2.399,6.319,6.159V652.6H200.921z"/>
		<path fill="#5D5D5D" d="M209.844,657.559l2.279-3.64c1.56,1.68,3.64,2.36,6.039,2.36c2.439,0,5.358-1.04,5.358-4.959v-1.88
			c-1.52,1.919-3.599,2.999-5.998,2.999c-4.8,0-8.519-3.359-8.519-9.798c0-6.319,3.639-9.839,8.519-9.839
			c2.319,0,4.438,0.96,5.998,2.96v-2.479h5.08v18.037c0,7.318-5.68,9.118-10.438,9.118
			C214.883,660.438,212.283,659.679,209.844,657.559z M223.521,645.761v-6.279c-0.879-1.239-2.719-2.159-4.358-2.159
			c-2.92,0-4.92,2-4.92,5.319s2,5.318,4.92,5.318C220.802,647.96,222.642,647.001,223.521,645.761z"/>
		<path fill="#5D5D5D" d="M245.36,652.6l-5.119-7.438l-2.319,2.479v4.959h-5.079v-26.676h5.079v15.958l7.319-8.599h6.238
			l-7.639,8.758l7.879,10.559H245.36z"/>
		<path fill="#5D5D5D" d="M265.08,652.6v-2.04c-1.319,1.601-3.599,2.52-6.118,2.52c-3.08,0-6.68-2.079-6.68-6.398
			c0-4.56,3.6-6.239,6.68-6.239c2.6,0,4.839,0.84,6.118,2.359v-2.439c0-1.959-1.68-3.239-4.239-3.239
			c-2.039,0-3.959,0.8-5.559,2.279l-2-3.559c2.36-2.12,5.399-3.04,8.438-3.04c4.439,0,8.479,1.76,8.479,7.319V652.6H265.08z
			 M265.08,647.96v-2.399c-0.84-1.119-2.439-1.72-4.079-1.72c-1.999,0-3.64,1.08-3.64,2.92s1.641,2.879,3.64,2.879
			C262.641,649.64,264.24,649.08,265.08,647.96z"/>
		<path fill="#5D5D5D" d="M287.439,652.6v-11.678c0-2.68-1.4-3.6-3.56-3.6c-2,0-3.52,1.12-4.399,2.239V652.6h-5.079v-19.316h5.079
			v2.479c1.24-1.44,3.64-2.96,6.759-2.96c4.279,0,6.319,2.399,6.319,6.159V652.6H287.439z"/>
		<path fill="#5D5D5D" d="M306.361,641.922v-15.998h5.759v15.838c0,3.719,2.16,6.278,6.279,6.278s6.238-2.56,6.238-6.278v-15.838
			h5.8v15.998c0,6.599-3.92,11.157-12.038,11.157C310.28,653.079,306.361,648.521,306.361,641.922z"/>
		<path fill="#5D5D5D" d="M347.839,652.6v-11.678c0-2.68-1.4-3.6-3.56-3.6c-2,0-3.52,1.12-4.399,2.239V652.6h-5.079v-19.316h5.079
			v2.479c1.24-1.44,3.64-2.96,6.759-2.96c4.279,0,6.319,2.399,6.319,6.159V652.6H347.839z"/>
		<path fill="#5D5D5D" d="M370.438,652.6v-2.479c-1.52,1.92-3.599,2.959-5.959,2.959c-4.839,0-8.558-3.679-8.558-10.158
			c0-6.278,3.639-10.118,8.558-10.118c2.28,0,4.439,0.96,5.959,2.96v-9.839h5.119V652.6H370.438z M370.438,646.36v-6.839
			c-0.84-1.279-2.679-2.199-4.358-2.199c-2.92,0-4.92,2.279-4.92,5.599c0,3.359,2,5.64,4.92,5.64
			C367.76,648.561,369.599,647.641,370.438,646.36z"/>
		<path fill="#5D5D5D" d="M379.321,628.164c0-1.68,1.359-3,2.999-3c1.68,0,3.04,1.32,3.04,3s-1.36,3.039-3.04,3.039
			C380.681,631.203,379.321,629.844,379.321,628.164z M379.801,652.6v-19.316h5.079V652.6H379.801z"/>
		<path fill="#5D5D5D" d="M400.718,652.6v-2.04c-1.319,1.601-3.599,2.52-6.118,2.52c-3.08,0-6.68-2.079-6.68-6.398
			c0-4.56,3.6-6.239,6.68-6.239c2.6,0,4.839,0.84,6.118,2.359v-2.439c0-1.959-1.68-3.239-4.239-3.239
			c-2.039,0-3.959,0.8-5.559,2.279l-2-3.559c2.36-2.12,5.399-3.04,8.438-3.04c4.439,0,8.479,1.76,8.479,7.319V652.6H400.718z
			 M400.718,647.96v-2.399c-0.84-1.119-2.439-1.72-4.079-1.72c-1.999,0-3.639,1.08-3.639,2.92s1.64,2.879,3.639,2.879
			C398.278,649.64,399.878,649.08,400.718,647.96z"/>
		<path fill="#5D5D5D" d="M423.078,652.6v-11.678c0-2.68-1.4-3.6-3.56-3.6c-2,0-3.52,1.12-4.399,2.239V652.6h-5.079v-19.316h5.079
			v2.479c1.24-1.44,3.64-2.96,6.759-2.96c4.279,0,6.319,2.399,6.319,6.159V652.6H423.078z"/>
		<path fill="#5D5D5D" d="M442,652.6v-26.676h14.037c5.08,0,7.679,3.239,7.679,6.799c0,3.319-2.079,5.6-4.599,6.119
			c2.879,0.44,5.119,3.199,5.119,6.519c0,4.04-2.64,7.239-7.759,7.239H442z M457.917,633.723c0-1.64-1.199-2.8-3.119-2.8h-7.119v5.6
			h7.119C456.718,636.522,457.917,635.442,457.917,633.723z M458.438,644.561c0-1.68-1.2-3.039-3.399-3.039h-7.359v6.079h7.359
			C457.157,647.601,458.438,646.48,458.438,644.561z"/>
		<path fill="#5D5D5D" d="M466.359,642.921c0-5.599,4.159-10.118,9.998-10.118c5.799,0,9.678,4.319,9.678,10.599v1.199h-14.357
			c0.36,2.36,2.28,4.319,5.56,4.319c1.64,0,3.879-0.68,5.119-1.879l2.279,3.359c-1.92,1.76-4.959,2.679-7.959,2.679
			C470.798,653.079,466.359,649.12,466.359,642.921z M476.357,636.962c-3.16,0-4.52,2.2-4.72,4.12h9.519
			C480.996,639.242,479.717,636.962,476.357,636.962z"/>
		<path fill="#5D5D5D" d="M488.919,652.6v-19.316h5.079v2.6c1.399-1.68,3.76-3.08,6.159-3.08v4.959
			c-0.36-0.08-0.8-0.119-1.399-0.119c-1.681,0-3.92,0.959-4.76,2.199V652.6H488.919z"/>
		<path fill="#5D5D5D" d="M515.597,652.6v-11.758c0-2.68-1.4-3.52-3.56-3.52c-2,0-3.56,1.12-4.399,2.239V652.6h-5.119v-26.676h5.119
			v9.839c1.24-1.44,3.6-2.96,6.759-2.96c4.239,0,6.279,2.319,6.279,6.079V652.6H515.597z"/>
		<path fill="#5D5D5D" d="M536.516,652.6v-2.04c-1.319,1.601-3.599,2.52-6.118,2.52c-3.08,0-6.68-2.079-6.68-6.398
			c0-4.56,3.6-6.239,6.68-6.239c2.6,0,4.839,0.84,6.118,2.359v-2.439c0-1.959-1.68-3.239-4.239-3.239
			c-2.039,0-3.959,0.8-5.559,2.279l-2-3.559c2.36-2.12,5.399-3.04,8.438-3.04c4.439,0,8.479,1.76,8.479,7.319V652.6H536.516z
			 M536.516,647.96v-2.399c-0.84-1.119-2.439-1.72-4.079-1.72c-1.999,0-3.64,1.08-3.64,2.92s1.641,2.879,3.64,2.879
			C534.076,649.64,535.676,649.08,536.516,647.96z"/>
		<path fill="#5D5D5D" d="M559.115,652.6v-2.479c-1.52,1.92-3.599,2.959-5.959,2.959c-4.839,0-8.559-3.679-8.559-10.158
			c0-6.278,3.64-10.118,8.559-10.118c2.28,0,4.439,0.96,5.959,2.96v-9.839h5.119V652.6H559.115z M559.115,646.36v-6.839
			c-0.84-1.279-2.679-2.199-4.358-2.199c-2.92,0-4.92,2.279-4.92,5.599c0,3.359,2,5.64,4.92,5.64
			C556.437,648.561,558.275,647.641,559.115,646.36z"/>
		<path fill="#5D5D5D" d="M567.997,628.164c0-1.68,1.359-3,2.999-3c1.68,0,3.04,1.32,3.04,3s-1.36,3.039-3.04,3.039
			C569.356,631.203,567.997,629.844,567.997,628.164z M568.477,652.6v-19.316h5.079V652.6H568.477z"/>
		<path fill="#5D5D5D" d="M589.394,652.6v-2.04c-1.319,1.601-3.599,2.52-6.118,2.52c-3.08,0-6.68-2.079-6.68-6.398
			c0-4.56,3.6-6.239,6.68-6.239c2.6,0,4.839,0.84,6.118,2.359v-2.439c0-1.959-1.68-3.239-4.239-3.239
			c-2.039,0-3.959,0.8-5.559,2.279l-2-3.559c2.36-2.12,5.399-3.04,8.438-3.04c4.439,0,8.479,1.76,8.479,7.319V652.6H589.394z
			 M589.394,647.96v-2.399c-0.84-1.119-2.439-1.72-4.079-1.72c-1.999,0-3.639,1.08-3.639,2.92s1.64,2.879,3.639,2.879
			C586.954,649.64,588.554,649.08,589.394,647.96z"/>
		<path fill="#5D5D5D" d="M611.794,652.6v-11.758c0-2.68-1.4-3.52-3.56-3.52c-2,0-3.56,1.12-4.399,2.239V652.6h-5.119v-26.676h5.119
			v9.839c1.24-1.44,3.6-2.96,6.759-2.96c4.239,0,6.279,2.319,6.279,6.079V652.6H611.794z"/>
		<path fill="#5D5D5D" d="M624.354,637.962l0.2-4.399l-3.68,2.36l-1.279-2.16l3.879-2.04l-3.879-1.999l1.279-2.16l3.68,2.36
			l-0.2-4.399h2.52l-0.199,4.399l3.679-2.36l1.28,2.16l-3.88,1.999l3.88,2.04l-1.28,2.16l-3.679-2.36l0.199,4.399H624.354z"/>
		<path fill="#5D5D5D" d="M151.842,691.641l3.64-5.159c1.92,1.92,4.879,3.52,8.519,3.52c2.359,0,3.8-0.92,3.8-2.199
			c0-3.64-15.118-0.72-15.118-10.998c0-4.479,3.8-8.479,10.639-8.479c4.279,0,7.999,1.279,10.838,3.719l-3.759,4.92
			c-2.24-1.84-5.159-2.76-7.799-2.76c-2,0-2.88,0.8-2.88,1.92c0,3.399,15.078,0.92,15.078,10.838c0,5.359-3.96,8.918-11.118,8.918
			C158.281,695.88,154.521,694.2,151.842,691.641z"/>
		<path fill="#5D5D5D" d="M188.439,695.4v-1.92c-1.2,1.44-3.52,2.399-5.999,2.399c-2.959,0-6.639-1.999-6.639-6.358
			c0-4.68,3.68-6.199,6.639-6.199c2.56,0,4.839,0.8,5.999,2.24v-2.32c0-1.68-1.439-2.799-3.919-2.799c-1.92,0-3.92,0.72-5.479,2.039
			l-2.199-3.879c2.479-2.12,5.799-3,8.758-3c4.64,0,8.999,1.72,8.999,7.719V695.4H188.439z M188.439,690.441v-1.72
			c-0.64-0.88-2.08-1.36-3.439-1.36c-1.64,0-3.079,0.721-3.079,2.24s1.439,2.239,3.079,2.239
			C186.359,691.841,187.8,691.361,188.439,690.441z"/>
		<path fill="#5D5D5D" d="M222.638,695.4v-11.758c0-1.479-0.72-2.6-2.56-2.6c-1.68,0-2.88,1.08-3.479,1.88V695.4h-6.159v-11.758
			c0-1.479-0.68-2.6-2.56-2.6c-1.64,0-2.8,1.08-3.439,1.88V695.4h-6.159v-19.316h6.159v2.359c0.84-1.12,3.319-2.84,6.359-2.84
			c2.759,0,4.679,1.16,5.479,3.439c1.12-1.68,3.64-3.439,6.679-3.439c3.56,0,5.8,1.84,5.8,5.799V695.4H222.638z"/>
		<path fill="#5D5D5D" d="M230.841,692.921l2.56-4.239c1.44,1.279,4.52,2.56,6.799,2.56c1.84,0,2.6-0.6,2.6-1.479
			c0-2.52-11.238-0.04-11.238-7.799c0-3.399,2.92-6.359,8.279-6.359c3.239,0,5.999,1.04,8.078,2.56l-2.359,4.079
			c-1.16-1.119-3.359-2.119-5.679-2.119c-1.44,0-2.439,0.6-2.439,1.399c0,2.24,11.237,0.04,11.237,7.959
			c0,3.68-3.239,6.398-8.798,6.398C236.44,695.88,232.881,694.721,230.841,692.921z"/>
		<path fill="#5D5D5D" d="M264.078,695.4v-2.319c-1.199,1.359-3.439,2.799-6.679,2.799c-4.399,0-6.359-2.479-6.359-6.038v-13.758
			h6.159v11.237c0,2.32,1.2,3.12,3.199,3.12c1.76,0,2.96-0.96,3.68-1.88v-12.478h6.159V695.4H264.078z"/>
		<path fill="#5D5D5D" d="M286.998,695.4v-11.158c0-2.359-1.24-3.199-3.159-3.199c-1.84,0-3.04,1-3.76,1.88V695.4h-6.159v-19.316
			h6.159v2.359c1.16-1.36,3.439-2.84,6.679-2.84c4.399,0,6.399,2.56,6.399,6.119V695.4H286.998z"/>
		<path fill="#5D5D5D" d="M296.32,700.359l2.68-4.399c1.479,1.6,3.64,2.24,5.879,2.24c2.04,0,4.919-0.84,4.919-4.439v-1.479
			c-1.6,1.879-3.52,2.799-5.719,2.799c-4.72,0-8.519-3.239-8.519-9.758c0-6.359,3.68-9.719,8.519-9.719
			c2.159,0,4.159,0.84,5.719,2.76v-2.279h6.119v17.597c0,7.879-6.239,9.559-11.038,9.559
			C301.56,703.239,298.8,702.399,296.32,700.359z M309.798,687.922v-5.159c-0.76-1.04-2.399-1.72-3.679-1.72
			c-2.44,0-4.24,1.479-4.24,4.279c0,2.839,1.8,4.319,4.24,4.319C307.398,689.642,309.038,688.962,309.798,687.922z"/>
		<path fill="#5D5D5D" d="M327.88,682.083c0-8.479,6.479-13.798,14.438-13.798c5.959,0,9.559,3.159,11.397,6.479l-5.759,3
			c-1-1.76-3.039-3.399-5.639-3.399c-4.359,0-7.438,3.359-7.438,7.719c0,4.358,3.079,7.719,7.438,7.719
			c1.96,0,3.959-0.8,4.919-1.601v-2.079h-5.999v-6.039h12.878v10.599c-2.88,3.159-6.759,5.198-11.798,5.198
			C334.358,695.88,327.88,690.562,327.88,682.083z"/>
		<path fill="#5D5D5D" d="M368.598,695.4v-1.92c-1.2,1.44-3.52,2.399-5.999,2.399c-2.959,0-6.639-1.999-6.639-6.358
			c0-4.68,3.68-6.199,6.639-6.199c2.56,0,4.839,0.8,5.999,2.24v-2.32c0-1.68-1.439-2.799-3.919-2.799c-1.92,0-3.92,0.72-5.479,2.039
			L357,678.604c2.479-2.12,5.799-3,8.758-3c4.64,0,8.999,1.72,8.999,7.719V695.4H368.598z M368.598,690.441v-1.72
			c-0.64-0.88-2.08-1.36-3.439-1.36c-1.64,0-3.079,0.721-3.079,2.24s1.439,2.239,3.079,2.239
			C366.518,691.841,367.958,691.361,368.598,690.441z"/>
		<path fill="#5D5D5D" d="M378.439,695.4v-26.676h6.159V695.4H378.439z"/>
		<path fill="#5D5D5D" d="M399.678,695.4v-1.92c-1.2,1.44-3.52,2.399-5.999,2.399c-2.959,0-6.639-1.999-6.639-6.358
			c0-4.68,3.68-6.199,6.639-6.199c2.56,0,4.839,0.8,5.999,2.24v-2.32c0-1.68-1.439-2.799-3.919-2.799c-1.92,0-3.92,0.72-5.479,2.039
			l-2.199-3.879c2.479-2.12,5.799-3,8.758-3c4.64,0,8.999,1.72,8.999,7.719V695.4H399.678z M399.678,690.441v-1.72
			c-0.64-0.88-2.08-1.36-3.439-1.36c-1.64,0-3.079,0.721-3.079,2.24s1.439,2.239,3.079,2.239
			C397.598,691.841,399.038,691.361,399.678,690.441z"/>
		<path fill="#5D5D5D" d="M421.238,695.4l-3.72-5.839l-3.76,5.839h-6.719l6.6-9.918l-6.199-9.398h6.759l3.319,5.238l3.279-5.238
			h6.759l-6.159,9.398l6.6,9.918H421.238z"/>
		<path fill="#5D5D5D" d="M429.679,697.44c0.439,0.239,1.04,0.359,1.52,0.359c1.399,0,2.279-0.279,2.6-1.08l0.439-1.039
			l-7.679-19.597h6.479l4.359,12.237l4.399-12.237h6.519l-8.719,22.076c-1.56,4.079-4.479,4.999-8.158,5.079
			c-0.561,0-2-0.12-2.64-0.32L429.679,697.44z"/>
		<path fill="#5D5D5D" d="M456.679,693.48l2.879-5.239c0.96,0.8,2.24,1.561,3.84,1.561c2.159,0,3.56-1.4,3.56-3.64v-17.438h6.879
			v17.518c0,6.599-4,9.638-9.839,9.638C461.317,695.88,458.679,695.24,456.679,693.48z"/>
		<path fill="#5D5D5D" d="M480.237,695.4l9.039-20.677h-12.998v-5.999h20.917v4.76l-9.398,21.916H480.237z"/>
		<path fill="#5D5D5D" d="M508.878,695.4v-26.676h13.358c5.998,0,9.278,4.04,9.278,8.879c0,4.799-3.28,8.838-9.278,8.838h-6.479
			v8.959H508.878z M524.516,677.604c0-1.84-1.36-2.88-3.199-2.88h-5.56v5.72h5.56C523.155,680.443,524.516,679.403,524.516,677.604z
			"/>
		<path fill="#5D5D5D" d="M533.638,695.4v-19.316h6.159v2.359c1.28-1.56,3.72-2.88,6.039-2.88v5.919
			c-0.359-0.08-0.88-0.16-1.52-0.16c-1.6,0-3.72,0.681-4.52,1.76V695.4H533.638z"/>
		<path fill="#5D5D5D" d="M546.559,685.722c0-5.438,3.959-10.118,10.519-10.118c6.639,0,10.558,4.68,10.558,10.118
			c0,5.439-3.919,10.158-10.558,10.158C550.518,695.88,546.559,691.161,546.559,685.722z M561.316,685.722
			c0-2.56-1.521-4.679-4.239-4.679c-2.68,0-4.16,2.119-4.16,4.679c0,2.6,1.48,4.72,4.16,4.72
			C559.796,690.441,561.316,688.321,561.316,685.722z"/>
	</g>
</g>
</svg>
