<?xml version="1.0" encoding="utf-8"?>
<!-- Generator: Adobe Illustrator 16.0.0, SVG Export Plug-In . SVG Version: 6.00 Build 0)  -->
<!DOCTYPE svg PUBLIC "-//W3C//DTD SVG 1.1//EN" "http://www.w3.org/Graphics/SVG/1.1/DTD/svg11.dtd">
<svg version="1.1" id="Layer_1" xmlns="http://www.w3.org/2000/svg" xmlns:xlink="http://www.w3.org/1999/xlink" x="0px" y="0px"
	 width="720px" height="800px" viewBox="0 0 720 800" enable-background="new 0 0 720 800" xml:space="preserve">
<g>
	<path fill="#00A14B" d="M371.634,230.424c0-29.067,23.561-52.629,52.626-52.629c6.122,0,10.078,0.733,14.227,1.957
		c2.797,1.187,3.865-1.149,4.157-2.235c1.901-7.102,2.967-14.344,2.967-21.644c0-0.486-0.271-62.608-0.271-63.375
		c0-6.126-3.512-6.112-5.08-6.105c-11.244,0.057-22.704,0.06-34.763-3.416c-25.056-7.222-47.321-26.847-55.788-26.847
		c-8.202,0-24.739,19.625-49.789,26.847c-14.125,4.072-27.673,3.317-40.345,2.729c-1.491-0.068-3.863-0.462-4.613,4.697
		c-0.19,1.301-1.158,64.772-1.158,65.47c0,62.005,76.711,120.245,95.902,120.245c6.139,0,16.036-4.931,29.351-14.842
		c1.773-1.533,0.821-2.548,0.298-3.404C374.464,249.88,371.634,240.487,371.634,230.424L371.634,230.424z M371.634,230.424"/>
	<path fill="#8DC63F" d="M424.594,257.261c-1.773,1.91-4.939,2.207-7.035,0.659l-33.329-24.647
		c-2.095-1.548-2.525-4.519-0.958-6.603l4.274-5.677c1.567-2.08,4.568-2.523,6.669-0.98l21.373,15.685
		c2.102,1.54,5.269,1.237,7.042-0.674l30.167-31.574c1.771-1.913,4.782-2.022,6.691-0.247l5.201,4.84
		c1.907,1.776,2.019,4.793,0.247,6.704L424.594,257.261z M424.594,257.261"/>
</g>
<g>
	<g>
		<path fill="#00A14B" d="M197.239,362.042l5.772-8.215c3.478,3.626,8.88,6.734,15.688,6.734c5.847,0,8.585-2.59,8.585-5.477
			c0-8.584-28.418-2.59-28.418-21.165c0-8.215,7.104-15.023,18.723-15.023c7.845,0,14.357,2.368,19.242,6.883l-5.847,7.845
			c-3.996-3.701-9.325-5.402-14.357-5.402c-4.44,0-6.956,1.924-6.956,4.884c0,7.771,28.344,2.517,28.344,20.943
			c0,9.028-6.513,15.837-19.759,15.837C208.71,369.886,201.901,366.704,197.239,362.042z"/>
		<path fill="#00A14B" d="M245.043,368.998v-49.361h34.93v9.251h-24.421v10.36h23.903v9.251h-23.903v11.248h24.421v9.251H245.043z"
			/>
		<path fill="#00A14B" d="M287.74,368.998v-49.361h10.583v40.11h20.869v9.251H287.74z"/>
		<path fill="#00A14B" d="M360.41,368.998l-3.108-8.362h-21.166l-3.107,8.362h-11.915l19.02-49.361h13.173l19.02,49.361H360.41z
			 M346.719,330.146l-7.696,21.239h15.393L346.719,330.146z"/>
		<path fill="#00A14B" d="M419.832,368.998v-35.597l-13.913,35.597h-4.589l-13.913-35.597v35.597h-10.508v-49.361h14.727
			l11.989,30.86l11.988-30.86h14.801v49.361H419.832z"/>
		<path fill="#00A14B" d="M474.296,368.998l-3.108-8.362h-21.166l-3.107,8.362h-11.915l19.02-49.361h13.173l19.019,49.361H474.296z
			 M460.604,330.146l-7.696,21.239h15.393L460.604,330.146z"/>
		<path fill="#00A14B" d="M497.455,368.998v-40.11h-14.431v-9.251h39.37v9.251h-14.356v40.11H497.455z"/>
		<path fill="#58595B" d="M152.952,417.798l-2.891-7.301h-16.267l-2.891,7.301h-4.654l13.18-32.681h5.046l13.132,32.681H152.952z
			 M141.929,389.282l-6.909,17.639h13.866L141.929,389.282z"/>
		<path fill="#58595B" d="M177.746,417.798v-15.482c0-4.214-2.155-5.488-5.341-5.488c-2.891,0-5.585,1.765-7.006,3.675v17.296
			h-3.675v-23.665h3.675v3.43c1.666-2.009,4.899-4.018,8.477-4.018c4.899,0,7.496,2.499,7.496,7.644v16.609H177.746z"/>
		<path fill="#58595B" d="M205.921,417.798v-3.527c-1.764,2.4-4.654,4.115-7.986,4.115c-6.174,0-10.534-4.703-10.534-12.396
			c0-7.595,4.36-12.445,10.534-12.445c3.185,0,6.075,1.567,7.986,4.165v-12.593h3.675v32.681H205.921z M205.921,411.33v-10.681
			c-1.273-2.058-4.165-3.822-7.056-3.822c-4.802,0-7.644,3.92-7.644,9.163c0,5.242,2.842,9.113,7.644,9.113
			C201.756,415.104,204.647,413.389,205.921,411.33z"/>
		<path fill="#58595B" d="M231.744,417.798v-2.694c-1.911,2.155-4.655,3.282-7.84,3.282c-3.969,0-8.231-2.694-8.231-7.839
			c0-5.341,4.214-7.791,8.231-7.791c3.234,0,5.929,1.029,7.84,3.185v-4.263c0-3.136-2.548-4.948-5.978-4.948
			c-2.842,0-5.145,0.98-7.252,3.283l-1.715-2.548c2.548-2.646,5.586-3.92,9.457-3.92c5.046,0,9.162,2.254,9.162,7.986v16.267
			H231.744z M231.744,412.8v-4.507c-1.421-1.911-3.92-2.891-6.468-2.891c-3.479,0-5.88,2.155-5.88,5.145
			c0,3.037,2.401,5.193,5.88,5.193C227.824,415.74,230.323,414.76,231.744,412.8z"/>
		<path fill="#58595B" d="M263.741,417.798v-29.055h-10.338v-3.626h24.791v3.626h-10.387v29.055H263.741z"/>
		<path fill="#58595B" d="M276.433,405.94c0-6.859,4.899-12.396,11.661-12.396c7.153,0,11.367,5.586,11.367,12.689v0.932h-19.108
			c0.294,4.458,3.381,8.182,8.477,8.182c2.743,0,5.438-1.077,7.349-3.037l1.765,2.4c-2.401,2.352-5.586,3.675-9.407,3.675
			C281.479,418.386,276.433,413.339,276.433,405.94z M288.045,396.583c-5.047,0-7.546,4.263-7.741,7.839h15.531
			C295.786,400.943,293.435,396.583,288.045,396.583z"/>
		<path fill="#58595B" d="M305.391,417.798v-32.681h3.675v32.681H305.391z"/>
		<path fill="#58595B" d="M331.213,417.798v-2.694c-1.911,2.155-4.655,3.282-7.84,3.282c-3.969,0-8.231-2.694-8.231-7.839
			c0-5.341,4.214-7.791,8.231-7.791c3.234,0,5.929,1.029,7.84,3.185v-4.263c0-3.136-2.548-4.948-5.978-4.948
			c-2.842,0-5.145,0.98-7.252,3.283l-1.715-2.548c2.548-2.646,5.586-3.92,9.457-3.92c5.046,0,9.162,2.254,9.162,7.986v16.267
			H331.213z M331.213,412.8v-4.507c-1.421-1.911-3.92-2.891-6.468-2.891c-3.479,0-5.88,2.155-5.88,5.145
			c0,3.037,2.401,5.193,5.88,5.193C327.293,415.74,329.792,414.76,331.213,412.8z"/>
		<path fill="#58595B" d="M358.309,417.798v-15.581c0-4.213-2.106-5.39-5.341-5.39c-2.842,0-5.585,1.765-6.957,3.675v17.296h-3.675
			v-32.681h3.675v12.445c1.617-2.009,4.851-4.018,8.428-4.018c4.948,0,7.545,2.4,7.545,7.545v16.708H358.309z"/>
		<path fill="#58595B" d="M382.172,417.798v-32.681h11.172c10.19,0,16.756,7.104,16.756,16.365c0,9.309-6.565,16.315-16.756,16.315
			H382.172z M405.887,401.482c0-7.056-4.459-12.739-12.543-12.739h-7.104v25.429h7.104
			C401.28,414.172,405.887,408.488,405.887,401.482z"/>
		<path fill="#58595B" d="M415.688,388.303c0-1.372,1.127-2.499,2.498-2.499c1.372,0,2.45,1.127,2.45,2.499
			c0,1.371-1.078,2.449-2.45,2.449C416.815,390.752,415.688,389.674,415.688,388.303z M416.325,417.798v-23.665H420v23.665H416.325z
			"/>
		<path fill="#58595B" d="M427.35,417.798v-32.681h3.675v32.681H427.35z"/>
		<path fill="#58595B" d="M437.737,388.303c0-1.372,1.127-2.499,2.498-2.499c1.372,0,2.45,1.127,2.45,2.499
			c0,1.371-1.078,2.449-2.45,2.449C438.864,390.752,437.737,389.674,437.737,388.303z M438.374,417.798v-23.665h3.675v23.665
			H438.374z"/>
		<path fill="#58595B" d="M465.42,417.798v-15.482c0-4.214-2.155-5.488-5.341-5.488c-2.891,0-5.585,1.765-7.006,3.675v17.296h-3.675
			v-23.665h3.675v3.43c1.666-2.009,4.899-4.018,8.477-4.018c4.899,0,7.496,2.499,7.496,7.644v16.609H465.42z"/>
		<path fill="#58595B" d="M493.595,417.798v-3.527c-1.764,2.4-4.654,4.115-7.986,4.115c-6.174,0-10.534-4.703-10.534-12.396
			c0-7.595,4.36-12.445,10.534-12.445c3.185,0,6.075,1.567,7.986,4.165v-12.593h3.675v32.681H493.595z M493.595,411.33v-10.681
			c-1.273-2.058-4.165-3.822-7.056-3.822c-4.802,0-7.644,3.92-7.644,9.163c0,5.242,2.842,9.113,7.644,9.113
			C489.43,415.104,492.321,413.389,493.595,411.33z"/>
		<path fill="#58595B" d="M520.594,417.798v-3.332c-1.812,2.059-4.899,3.92-8.428,3.92c-4.948,0-7.545-2.45-7.545-7.545v-16.708
			h3.675v15.581c0,4.164,2.106,5.39,5.341,5.39c2.841,0,5.585-1.666,6.957-3.577v-17.394h3.675v23.665H520.594z"/>
		<path fill="#58595B" d="M547.642,417.798v-15.482c0-4.214-2.155-5.488-5.341-5.488c-2.891,0-5.585,1.765-7.006,3.675v17.296
			h-3.675v-23.665h3.675v3.43c1.666-2.009,4.899-4.018,8.477-4.018c4.899,0,7.496,2.499,7.496,7.644v16.609H547.642z"/>
		<path fill="#58595B" d="M558.618,423.824l1.861-2.646c1.96,2.303,4.312,3.185,7.692,3.185c3.92,0,7.644-1.911,7.644-6.908v-3.577
			c-1.764,2.401-4.654,4.214-7.986,4.214c-6.174,0-10.534-4.605-10.534-12.249c0-7.595,4.312-12.298,10.534-12.298
			c3.185,0,6.075,1.567,7.986,4.165v-3.577h3.675v23.322c0,7.496-5.536,9.946-11.318,9.946
			C564.203,427.401,561.46,426.617,558.618,423.824z M575.815,410.987v-10.387c-1.323-2.009-4.165-3.773-7.056-3.773
			c-4.802,0-7.644,3.773-7.644,9.016c0,5.193,2.842,8.967,7.644,8.967C571.65,414.81,574.492,413.045,575.815,410.987z"/>
		<path fill="#58595B" d="M586.205,388.303c0-1.372,1.127-2.499,2.498-2.499c1.372,0,2.45,1.127,2.45,2.499
			c0,1.371-1.078,2.449-2.45,2.449C587.332,390.752,586.205,389.674,586.205,388.303z M586.842,417.798v-23.665h3.675v23.665
			H586.842z"/>
		<path fill="#58595B" d="M164.271,466.598l-2.891-7.301h-16.267l-2.891,7.301h-4.654l13.18-32.681h5.046l13.132,32.681H164.271z
			 M153.247,438.082l-6.909,17.639h13.866L153.247,438.082z"/>
		<path fill="#58595B" d="M171.034,463.462l1.861-2.646c1.568,1.812,4.557,3.381,7.791,3.381c3.625,0,5.634-1.715,5.634-4.067
			c0-5.732-14.649-2.204-14.649-10.975c0-3.724,3.136-6.811,8.771-6.811c4.066,0,6.908,1.519,8.771,3.43l-1.715,2.548
			c-1.421-1.715-3.969-2.989-7.056-2.989c-3.233,0-5.243,1.617-5.243,3.724c0,5.146,14.65,1.765,14.65,10.976
			c0,3.969-3.185,7.153-9.261,7.153C176.669,467.186,173.435,465.961,171.034,463.462z"/>
		<path fill="#58595B" d="M211.801,466.598v-3.332c-1.812,2.059-4.899,3.92-8.428,3.92c-4.948,0-7.545-2.45-7.545-7.545v-16.708
			h3.675v15.581c0,4.164,2.106,5.39,5.341,5.39c2.841,0,5.585-1.666,6.957-3.577v-17.394h3.675v23.665H211.801z"/>
		<path fill="#58595B" d="M222.827,466.598v-23.665h3.675v3.772c1.91-2.449,4.654-4.312,7.888-4.312v3.772
			c-0.44-0.049-0.882-0.098-1.421-0.098c-2.303,0-5.389,1.862-6.467,3.772v16.757H222.827z"/>
		<path fill="#58595B" d="M253.793,466.598v-2.694c-1.911,2.155-4.655,3.282-7.84,3.282c-3.969,0-8.231-2.694-8.231-7.839
			c0-5.341,4.214-7.791,8.231-7.791c3.234,0,5.929,1.029,7.84,3.185v-4.263c0-3.136-2.548-4.948-5.978-4.948
			c-2.842,0-5.145,0.98-7.252,3.283l-1.715-2.548c2.548-2.646,5.586-3.92,9.457-3.92c5.046,0,9.162,2.254,9.162,7.986v16.267
			H253.793z M253.793,461.6v-4.507c-1.421-1.911-3.92-2.891-6.468-2.891c-3.479,0-5.88,2.155-5.88,5.145
			c0,3.037,2.401,5.193,5.88,5.193C249.873,464.54,252.372,463.56,253.793,461.6z"/>
		<path fill="#58595B" d="M280.89,466.598v-15.482c0-4.214-2.155-5.488-5.341-5.488c-2.891,0-5.585,1.765-7.006,3.675v17.296h-3.675
			v-23.665h3.675v3.43c1.666-2.009,4.899-4.018,8.477-4.018c4.899,0,7.496,2.499,7.496,7.644v16.609H280.89z"/>
		<path fill="#58595B" d="M289.906,463.462l1.861-2.646c1.568,1.812,4.557,3.381,7.791,3.381c3.625,0,5.634-1.715,5.634-4.067
			c0-5.732-14.649-2.204-14.649-10.975c0-3.724,3.136-6.811,8.771-6.811c4.066,0,6.908,1.519,8.771,3.43l-1.715,2.548
			c-1.421-1.715-3.969-2.989-7.056-2.989c-3.234,0-5.243,1.617-5.243,3.724c0,5.146,14.65,1.765,14.65,10.976
			c0,3.969-3.185,7.153-9.261,7.153C295.541,467.186,292.307,465.961,289.906,463.462z"/>
		<path fill="#58595B" d="M314.063,437.103c0-1.372,1.127-2.499,2.498-2.499c1.372,0,2.45,1.127,2.45,2.499
			c0,1.371-1.078,2.449-2.45,2.449C315.19,439.552,314.063,438.474,314.063,437.103z M314.7,466.598v-23.665h3.675v23.665H314.7z"/>
		<path fill="#58595B" d="M358.308,466.598l-12.396-14.699l-3.282,3.724v10.976h-4.067v-32.681h4.067v16.854l14.453-16.854h5.096
			L348.557,449.4l14.847,17.197H358.308z"/>
		<path fill="#58595B" d="M364.826,454.74c0-6.859,4.899-12.396,11.661-12.396c7.153,0,11.367,5.586,11.367,12.689v0.932h-19.108
			c0.294,4.458,3.381,8.182,8.477,8.182c2.743,0,5.438-1.077,7.349-3.037l1.765,2.4c-2.401,2.352-5.586,3.675-9.407,3.675
			C369.873,467.186,364.826,462.139,364.826,454.74z M376.438,445.383c-5.047,0-7.546,4.263-7.741,7.839h15.531
			C384.18,449.743,381.828,445.383,376.438,445.383z"/>
		<path fill="#58595B" d="M392.413,454.74c0-7.006,4.753-12.396,11.809-12.396c4.312,0,6.859,1.764,8.672,4.115l-2.45,2.205
			c-1.567-2.155-3.576-3.038-6.026-3.038c-4.997,0-8.183,3.871-8.183,9.113c0,5.243,3.186,9.163,8.183,9.163
			c2.45,0,4.459-0.98,6.026-3.087l2.45,2.254c-1.812,2.352-4.36,4.115-8.672,4.115C397.166,467.186,392.413,461.747,392.413,454.74z
			"/>
		<path fill="#58595B" d="M416.716,454.74c0-6.859,4.899-12.396,11.661-12.396c7.153,0,11.367,5.586,11.367,12.689v0.932h-19.108
			c0.294,4.458,3.381,8.182,8.477,8.182c2.743,0,5.438-1.077,7.349-3.037l1.765,2.4c-2.401,2.352-5.586,3.675-9.407,3.675
			C421.763,467.186,416.716,462.139,416.716,454.74z M428.328,445.383c-5.047,0-7.546,4.263-7.741,7.839h15.531
			C436.069,449.743,433.718,445.383,428.328,445.383z"/>
		<path fill="#58595B" d="M445.675,466.598v-32.681h3.675v32.681H445.675z"/>
		<path fill="#58595B" d="M471.496,466.598v-2.694c-1.911,2.155-4.655,3.282-7.84,3.282c-3.969,0-8.231-2.694-8.231-7.839
			c0-5.341,4.214-7.791,8.231-7.791c3.234,0,5.929,1.029,7.84,3.185v-4.263c0-3.136-2.548-4.948-5.978-4.948
			c-2.842,0-5.145,0.98-7.252,3.283l-1.715-2.548c2.548-2.646,5.586-3.92,9.457-3.92c5.046,0,9.162,2.254,9.162,7.986v16.267
			H471.496z M471.496,461.6v-4.507c-1.421-1.911-3.92-2.891-6.468-2.891c-3.479,0-5.88,2.155-5.88,5.145
			c0,3.037,2.401,5.193,5.88,5.193C467.576,464.54,470.075,463.56,471.496,461.6z"/>
		<path fill="#58595B" d="M498.69,466.598l-8.476-10.632l-3.969,3.87v6.762h-3.675v-32.681h3.675v21.607l12.444-12.592h4.655
			l-10.485,10.73l10.534,12.935H498.69z"/>
		<path fill="#58595B" d="M522.554,466.598v-2.694c-1.911,2.155-4.655,3.282-7.84,3.282c-3.969,0-8.231-2.694-8.231-7.839
			c0-5.341,4.214-7.791,8.231-7.791c3.234,0,5.929,1.029,7.84,3.185v-4.263c0-3.136-2.548-4.948-5.978-4.948
			c-2.842,0-5.145,0.98-7.252,3.283l-1.715-2.548c2.548-2.646,5.586-3.92,9.457-3.92c5.046,0,9.162,2.254,9.162,7.986v16.267
			H522.554z M522.554,461.6v-4.507c-1.421-1.911-3.92-2.891-6.468-2.891c-3.479,0-5.88,2.155-5.88,5.145
			c0,3.037,2.401,5.193,5.88,5.193C518.634,464.54,521.133,463.56,522.554,461.6z"/>
		<path fill="#58595B" d="M548.426,466.598v-2.694c-1.911,2.155-4.655,3.282-7.84,3.282c-3.969,0-8.231-2.694-8.231-7.839
			c0-5.341,4.214-7.791,8.231-7.791c3.234,0,5.929,1.029,7.84,3.185v-4.263c0-3.136-2.548-4.948-5.978-4.948
			c-2.842,0-5.145,0.98-7.252,3.283l-1.715-2.548c2.548-2.646,5.586-3.92,9.457-3.92c5.046,0,9.162,2.254,9.162,7.986v16.267
			H548.426z M548.426,461.6v-4.507c-1.421-1.911-3.92-2.891-6.468-2.891c-3.479,0-5.88,2.155-5.88,5.145
			c0,3.037,2.401,5.193,5.88,5.193C544.506,464.54,547.005,463.56,548.426,461.6z"/>
		<path fill="#58595B" d="M575.522,466.598v-15.482c0-4.214-2.155-5.488-5.341-5.488c-2.891,0-5.585,1.765-7.006,3.675v17.296
			h-3.675v-23.665h3.675v3.43c1.666-2.009,4.899-4.018,8.477-4.018c4.899,0,7.496,2.499,7.496,7.644v16.609H575.522z"/>
	</g>
</g>
<g>
	<g>
		<path fill="#58595B" d="M222.222,561.238l2-2.56c1.72,2,4.599,3.84,8.358,3.84c4.759,0,6.279-2.56,6.279-4.64
			c0-6.879-15.798-3.039-15.798-12.558c0-4.399,3.92-7.438,9.198-7.438c4.04,0,7.199,1.399,9.438,3.759l-1.999,2.44
			c-2-2.24-4.8-3.2-7.719-3.2c-3.16,0-5.479,1.72-5.479,4.239c0,5.999,15.798,2.56,15.798,12.519c0,3.839-2.64,7.838-9.839,7.838
			C227.861,565.478,224.422,563.718,222.222,561.238z"/>
		<path fill="#58595B" d="M246.021,555.319c0-5.599,3.999-10.118,9.519-10.118c5.839,0,9.278,4.56,9.278,10.358v0.76h-15.598
			c0.24,3.64,2.76,6.679,6.919,6.679c2.239,0,4.439-0.88,5.999-2.479l1.439,1.96c-1.959,1.92-4.559,2.999-7.679,2.999
			C250.141,565.478,246.021,561.358,246.021,555.319z M255.5,547.681c-4.119,0-6.159,3.479-6.319,6.399h12.678
			C261.818,551.24,259.899,547.681,255.5,547.681z"/>
		<path fill="#58595B" d="M269.621,569.917l1.52-2.159c1.6,1.88,3.52,2.6,6.278,2.6c3.2,0,6.239-1.56,6.239-5.64v-2.919
			c-1.439,1.959-3.799,3.439-6.519,3.439c-5.039,0-8.599-3.76-8.599-9.999c0-6.198,3.52-10.038,8.599-10.038
			c2.6,0,4.959,1.28,6.519,3.399v-2.919h3v19.036c0,6.119-4.52,8.119-9.239,8.119C274.18,572.837,271.94,572.197,269.621,569.917z
			 M283.658,559.439v-8.479c-1.08-1.64-3.399-3.079-5.759-3.079c-3.92,0-6.239,3.079-6.239,7.358c0,4.239,2.319,7.319,6.239,7.319
			C280.259,562.559,282.578,561.119,283.658,559.439z"/>
		<path fill="#58595B" d="M291.541,555.319c0-5.599,3.999-10.118,9.519-10.118c5.839,0,9.278,4.56,9.278,10.358v0.76H294.74
			c0.24,3.64,2.76,6.679,6.919,6.679c2.239,0,4.439-0.88,5.999-2.479l1.439,1.96c-1.959,1.92-4.559,2.999-7.679,2.999
			C295.66,565.478,291.541,561.358,291.541,555.319z M301.02,547.681c-4.119,0-6.159,3.479-6.319,6.399h12.678
			C307.338,551.24,305.419,547.681,301.02,547.681z"/>
		<path fill="#58595B" d="M315.18,564.998v-19.316h3v3.079c1.56-2,3.8-3.52,6.438-3.52v3.08c-0.359-0.04-0.72-0.08-1.159-0.08
			c-1.88,0-4.399,1.52-5.279,3.079v13.678H315.18z"/>
		<path fill="#58595B" d="M340.458,564.998v-2.199c-1.56,1.76-3.799,2.679-6.398,2.679c-3.239,0-6.719-2.199-6.719-6.398
			c0-4.359,3.439-6.359,6.719-6.359c2.64,0,4.839,0.84,6.398,2.6v-3.479c0-2.56-2.079-4.039-4.879-4.039
			c-2.319,0-4.199,0.8-5.919,2.68l-1.399-2.08c2.079-2.159,4.559-3.199,7.719-3.199c4.119,0,7.479,1.84,7.479,6.52v13.277H340.458z
			 M340.458,560.919v-3.68c-1.159-1.56-3.199-2.359-5.278-2.359c-2.84,0-4.8,1.76-4.8,4.199c0,2.479,1.96,4.239,4.8,4.239
			C337.259,563.318,339.299,562.519,340.458,560.919z"/>
		<path fill="#58595B" d="M378.856,564.998l-15.558-21.276v21.276h-3.319v-26.676h3.399l15.357,20.837v-20.837h3.319v26.676H378.856
			z"/>
		<path fill="#58595B" d="M387.659,540.922c0-1.119,0.92-2.039,2.04-2.039c1.119,0,1.999,0.92,1.999,2.039c0,1.12-0.88,2-1.999,2
			C388.579,542.922,387.659,542.042,387.659,540.922z M388.179,564.998v-19.316h3v19.316H388.179z"/>
		<path fill="#58595B" d="M410.337,564.998l-6.919-8.679l-3.239,3.159v5.52h-3v-26.676h3v17.638l10.158-10.278h3.8l-8.559,8.758
			l8.599,10.559H410.337z"/>
		<path fill="#58595B" d="M441.055,564.998V551.88c0-2.439-1.04-3.999-3.56-3.999c-1.999,0-4.119,1.399-5.119,2.96v14.157h-2.999
			V551.88c0-2.439-1-3.999-3.56-3.999c-1.96,0-4.039,1.439-5.079,3v14.117h-3v-19.316h3v2.799c0.84-1.239,3.399-3.279,6.279-3.279
			c2.919,0,4.599,1.6,5.159,3.6c1.079-1.76,3.679-3.6,6.479-3.6c3.52,0,5.399,1.96,5.399,5.839v13.958H441.055z"/>
		<path fill="#58595B" d="M462.136,564.998v-2.199c-1.56,1.76-3.799,2.679-6.398,2.679c-3.239,0-6.719-2.199-6.719-6.398
			c0-4.359,3.439-6.359,6.719-6.359c2.64,0,4.839,0.84,6.398,2.6v-3.479c0-2.56-2.079-4.039-4.879-4.039
			c-2.319,0-4.199,0.8-5.919,2.68l-1.399-2.08c2.079-2.159,4.559-3.199,7.719-3.199c4.119,0,7.479,1.84,7.479,6.52v13.277H462.136z
			 M462.136,560.919v-3.68c-1.159-1.56-3.199-2.359-5.278-2.359c-2.84,0-4.8,1.76-4.8,4.199c0,2.479,1.96,4.239,4.8,4.239
			C458.937,563.318,460.977,562.519,462.136,560.919z"/>
		<path fill="#58595B" d="M471.778,560.959v-12.638h-3.199v-2.64h3.199v-5.279h3.039v5.279h3.92v2.64h-3.92v11.997
			c0,1.44,0.64,2.48,1.92,2.48c0.88,0,1.64-0.4,2.04-0.84l0.88,2.279c-0.761,0.72-1.84,1.239-3.56,1.239
			C473.218,565.478,471.778,563.838,471.778,560.959z"/>
		<path fill="#58595B" d="M482.418,540.922c0-1.119,0.92-2.039,2.04-2.039c1.119,0,1.999,0.92,1.999,2.039c0,1.12-0.88,2-1.999,2
			C483.338,542.922,482.418,542.042,482.418,540.922z M482.938,564.998v-19.316h3v19.316H482.938z"/>
		<path fill="#BE1E2D" d="M108.776,606.998v-24.252h-8.686v-4.429h22.402v4.429h-8.686v24.252H108.776z"/>
		<path fill="#BE1E2D" d="M135.651,606.998v-2.236c-1.548,1.764-3.956,2.752-6.708,2.752c-3.396,0-7.224-2.278-7.224-6.88
			c0-4.772,3.827-6.751,7.224-6.751c2.796,0,5.203,0.903,6.708,2.666v-3.096c0-2.408-1.978-3.87-4.858-3.87
			c-2.322,0-4.343,0.86-6.149,2.623l-1.849-3.139c2.408-2.279,5.418-3.354,8.729-3.354c4.602,0,8.644,1.935,8.644,7.524v13.76
			H135.651z M135.651,602.269v-3.14c-1.031-1.419-2.967-2.149-4.944-2.149c-2.537,0-4.429,1.462-4.429,3.74
			c0,2.236,1.892,3.698,4.429,3.698C132.685,604.418,134.62,603.688,135.651,602.269z"/>
		<path fill="#BE1E2D" d="M145.8,611.083c0.473,0.215,1.204,0.344,1.72,0.344c1.419,0,2.365-0.43,2.967-1.806l1.032-2.365
			l-8.514-21.026h4.815l6.063,15.565l6.062-15.565h4.859l-10.02,24.51c-1.419,3.525-3.912,4.644-7.138,4.687
			c-0.645,0-1.892-0.129-2.537-0.301L145.8,611.083z"/>
		<path fill="#BE1E2D" d="M180.328,606.998v-2.236c-1.548,1.764-3.956,2.752-6.708,2.752c-3.396,0-7.224-2.278-7.224-6.88
			c0-4.772,3.827-6.751,7.224-6.751c2.795,0,5.203,0.903,6.708,2.666v-3.096c0-2.408-1.978-3.87-4.858-3.87
			c-2.322,0-4.343,0.86-6.149,2.623l-1.849-3.139c2.408-2.279,5.418-3.354,8.729-3.354c4.602,0,8.644,1.935,8.644,7.524v13.76
			H180.328z M180.328,602.269v-3.14c-1.031-1.419-2.967-2.149-4.944-2.149c-2.537,0-4.429,1.462-4.429,3.74
			c0,2.236,1.892,3.698,4.429,3.698C177.361,604.418,179.297,603.688,180.328,602.269z"/>
		<path fill="#BE1E2D" d="M204.709,606.998v-12.985c0-3.226-1.634-4.301-4.171-4.301c-2.321,0-4.3,1.376-5.332,2.795v14.491h-4.515
			v-20.769h4.515v2.838c1.376-1.634,4.042-3.354,7.311-3.354c4.472,0,6.708,2.407,6.708,6.664v14.62H204.709z"/>
		<path fill="#BE1E2D" d="M214.813,612.33l2.106-3.269c1.678,1.936,3.827,2.666,6.579,2.666c2.967,0,6.149-1.376,6.149-5.633v-2.493
			c-1.591,2.063-3.956,3.439-6.665,3.439c-5.289,0-9.202-3.827-9.202-10.664c0-6.708,3.87-10.663,9.202-10.663
			c2.623,0,4.988,1.203,6.665,3.396v-2.881h4.515v19.693c0,7.482-5.547,9.503-10.664,9.503
			C219.974,615.426,217.351,614.652,214.813,612.33z M229.648,600.247v-7.74c-0.989-1.548-3.226-2.795-5.332-2.795
			c-3.569,0-5.848,2.666-5.848,6.665s2.278,6.665,5.848,6.665C226.423,603.042,228.659,601.795,229.648,600.247z"/>
		<path fill="#BE1E2D" d="M252.695,606.998v-2.236c-1.548,1.764-3.956,2.752-6.708,2.752c-3.396,0-7.224-2.278-7.224-6.88
			c0-4.772,3.827-6.751,7.224-6.751c2.795,0,5.203,0.903,6.708,2.666v-3.096c0-2.408-1.978-3.87-4.858-3.87
			c-2.322,0-4.343,0.86-6.149,2.623l-1.849-3.139c2.408-2.279,5.418-3.354,8.729-3.354c4.602,0,8.644,1.935,8.644,7.524v13.76
			H252.695z M252.695,602.269v-3.14c-1.031-1.419-2.967-2.149-4.944-2.149c-2.537,0-4.429,1.462-4.429,3.74
			c0,2.236,1.892,3.698,4.429,3.698C249.729,604.418,251.664,603.688,252.695,602.269z"/>
		<path fill="#BE1E2D" d="M277.076,606.998v-12.985c0-3.226-1.634-4.301-4.171-4.301c-2.321,0-4.3,1.376-5.332,2.795v14.491h-4.515
			v-20.769h4.515v2.838c1.376-1.634,4.042-3.354,7.311-3.354c4.472,0,6.708,2.407,6.708,6.664v14.62H277.076z"/>
		<path fill="#BE1E2D" d="M298.618,606.998v-28.681h19.65v4.429h-14.619v7.439h14.318v4.429h-14.318v12.384H298.618z"/>
		<path fill="#BE1E2D" d="M322.097,580.897c0-1.548,1.29-2.795,2.795-2.795c1.548,0,2.795,1.247,2.795,2.795
			s-1.247,2.795-2.795,2.795C323.387,583.692,322.097,582.445,322.097,580.897z M322.655,606.998v-20.769h4.515v20.769H322.655z"/>
		<path fill="#BE1E2D" d="M333.019,606.998v-28.681h4.515v28.681H333.019z"/>
		<path fill="#BE1E2D" d="M368.837,606.998v-13.545c0-2.235-0.989-3.741-3.397-3.741c-2.021,0-3.913,1.419-4.815,2.752v14.534
			h-4.516v-13.545c0-2.235-0.988-3.741-3.439-3.741c-1.979,0-3.827,1.419-4.773,2.795v14.491h-4.515v-20.769h4.515v2.838
			c0.86-1.29,3.612-3.354,6.751-3.354c3.097,0,4.988,1.548,5.676,3.826c1.204-1.892,3.956-3.826,7.053-3.826
			c3.826,0,5.977,2.063,5.977,6.277v15.007H368.837z"/>
		<path fill="#BE1E2D" d="M377.566,598.527v-3.87h10.319v3.87H377.566z"/>
		<path fill="#BE1E2D" d="M392.229,606.998v-28.681h19.651v4.429h-14.62v7.439h14.318v4.429H397.26v12.384H392.229z"/>
		<path fill="#BE1E2D" d="M415.706,580.897c0-1.548,1.29-2.795,2.795-2.795c1.548,0,2.795,1.247,2.795,2.795
			s-1.247,2.795-2.795,2.795C416.996,583.692,415.706,582.445,415.706,580.897z M416.265,606.998v-20.769h4.515v20.769H416.265z"/>
		<path fill="#BE1E2D" d="M426.628,606.998v-28.681h4.515v28.681H426.628z"/>
		<path fill="#BE1E2D" d="M462.447,606.998v-13.545c0-2.235-0.989-3.741-3.397-3.741c-2.021,0-3.913,1.419-4.815,2.752v14.534
			h-4.516v-13.545c0-2.235-0.988-3.741-3.439-3.741c-1.979,0-3.827,1.419-4.773,2.795v14.491h-4.515v-20.769h4.515v2.838
			c0.86-1.29,3.612-3.354,6.751-3.354c3.097,0,4.988,1.548,5.676,3.826c1.204-1.892,3.956-3.826,7.053-3.826
			c3.826,0,5.977,2.063,5.977,6.277v15.007H462.447z"/>
		<path fill="#BE1E2D" d="M490.826,606.998v-24.252h-8.686v-4.429h22.402v4.429h-8.686v24.252H490.826z"/>
		<path fill="#BE1E2D" d="M502.866,596.592c0-6.02,4.386-10.878,10.535-10.878c6.234,0,10.233,4.772,10.233,11.309v1.075h-16.038
			c0.344,3.139,2.709,5.719,6.621,5.719c2.021,0,4.43-0.817,5.892-2.279l2.063,2.967c-2.063,1.979-5.117,3.01-8.428,3.01
			C507.511,607.514,502.866,603.171,502.866,596.592z M513.401,589.411c-3.87,0-5.633,2.967-5.848,5.504h11.695
			C519.163,592.464,517.486,589.411,513.401,589.411z"/>
		<path fill="#BE1E2D" d="M528.106,606.998v-20.769h4.515v3.053c1.549-1.978,4.042-3.525,6.751-3.525v4.472
			c-0.387-0.086-0.859-0.129-1.419-0.129c-1.892,0-4.429,1.29-5.332,2.752v14.146H528.106z"/>
		<path fill="#BE1E2D" d="M543.027,606.998v-28.681h4.515v10.793c1.635-2.193,4.042-3.396,6.665-3.396
			c5.332,0,9.202,4.214,9.202,10.921c0,6.837-3.913,10.879-9.202,10.879c-2.709,0-5.073-1.29-6.665-3.354v2.838H543.027z
			 M552.874,603.515c3.612,0,5.892-2.838,5.892-6.88c0-4.041-2.279-6.923-5.892-6.923c-2.106,0-4.343,1.29-5.332,2.838v8.213
			C548.531,602.312,550.768,603.515,552.874,603.515z"/>
		<path fill="#BE1E2D" d="M580.694,606.998v-2.236c-1.548,1.764-3.956,2.752-6.708,2.752c-3.396,0-7.224-2.278-7.224-6.88
			c0-4.772,3.827-6.751,7.224-6.751c2.796,0,5.203,0.903,6.708,2.666v-3.096c0-2.408-1.978-3.87-4.858-3.87
			c-2.322,0-4.343,0.86-6.149,2.623l-1.849-3.139c2.408-2.279,5.418-3.354,8.729-3.354c4.602,0,8.644,1.935,8.644,7.524v13.76
			H580.694z M580.694,602.269v-3.14c-1.031-1.419-2.967-2.149-4.944-2.149c-2.537,0-4.429,1.462-4.429,3.74
			c0,2.236,1.892,3.698,4.429,3.698C577.728,604.418,579.663,603.688,580.694,602.269z"/>
		<path fill="#BE1E2D" d="M590.499,580.897c0-1.548,1.29-2.795,2.795-2.795c1.548,0,2.795,1.247,2.795,2.795
			s-1.247,2.795-2.795,2.795C591.789,583.692,590.499,582.445,590.499,580.897z M591.058,606.998v-20.769h4.515v20.769H591.058z"/>
		<path fill="#BE1E2D" d="M615.181,606.998l-6.363-8.557l-2.882,2.967v5.59h-4.515v-28.681h4.515v17.931l9.159-10.019h5.59
			l-8.643,9.417l8.814,11.352H615.181z"/>
		<path fill="#BE1E2D" d="M75.603,644.956l2.795-3.87c1.978,2.107,5.074,3.956,9.072,3.956c4.129,0,5.763-2.021,5.763-3.913
			c0-6.02-16.727-2.278-16.727-12.856c0-4.73,4.171-8.385,10.448-8.385c4.472,0,8.084,1.419,10.75,3.999l-2.881,3.74
			c-2.236-2.235-5.289-3.268-8.299-3.268c-2.967,0-4.859,1.419-4.859,3.569c0,5.332,16.684,2.021,16.684,12.728
			c0,4.772-3.354,8.857-11.094,8.857C81.966,649.514,78.14,647.665,75.603,644.956z"/>
		<path fill="#BE1E2D" d="M101.574,638.592c0-6.02,4.386-10.878,10.535-10.878c6.234,0,10.233,4.772,10.233,11.309v1.075h-16.038
			c0.344,3.139,2.709,5.719,6.621,5.719c2.021,0,4.43-0.817,5.892-2.279l2.063,2.967c-2.063,1.979-5.116,3.01-8.428,3.01
			C106.219,649.514,101.574,645.171,101.574,638.592z M112.109,631.411c-3.87,0-5.633,2.967-5.848,5.504h11.695
			C117.871,634.464,116.194,631.411,112.109,631.411z"/>
		<path fill="#BE1E2D" d="M125.524,638.592c0-6.277,4.429-10.878,10.75-10.878c4.042,0,6.493,1.72,7.955,3.697l-2.967,2.752
			c-1.161-1.634-2.752-2.451-4.773-2.451c-3.784,0-6.277,2.838-6.277,6.88s2.493,6.923,6.277,6.923c2.021,0,3.612-0.859,4.773-2.45
			l2.967,2.752c-1.462,1.978-3.913,3.697-7.955,3.697C129.953,649.514,125.524,644.913,125.524,638.592z"/>
		<path fill="#BE1E2D" d="M160.87,648.998v-2.236c-1.548,1.764-3.956,2.752-6.708,2.752c-3.396,0-7.224-2.278-7.224-6.88
			c0-4.772,3.827-6.751,7.224-6.751c2.796,0,5.203,0.903,6.708,2.666v-3.096c0-2.408-1.978-3.87-4.858-3.87
			c-2.322,0-4.343,0.86-6.149,2.623l-1.849-3.139c2.408-2.279,5.418-3.354,8.729-3.354c4.602,0,8.644,1.935,8.644,7.524v13.76
			H160.87z M160.87,644.269v-3.14c-1.031-1.419-2.967-2.149-4.944-2.149c-2.537,0-4.429,1.462-4.429,3.74
			c0,2.236,1.892,3.698,4.429,3.698C157.903,646.418,159.839,645.688,160.87,644.269z"/>
		<path fill="#BE1E2D" d="M171.233,648.998v-20.769h4.515v3.053c1.549-1.978,4.042-3.525,6.751-3.525v4.472
			c-0.387-0.086-0.859-0.129-1.419-0.129c-1.892,0-4.429,1.29-5.332,2.752v14.146H171.233z"/>
		<path fill="#BE1E2D" d="M198.838,648.998v-2.236c-1.548,1.764-3.956,2.752-6.708,2.752c-3.396,0-7.224-2.278-7.224-6.88
			c0-4.772,3.827-6.751,7.224-6.751c2.795,0,5.203,0.903,6.708,2.666v-3.096c0-2.408-1.978-3.87-4.858-3.87
			c-2.322,0-4.343,0.86-6.149,2.623l-1.849-3.139c2.408-2.279,5.418-3.354,8.729-3.354c4.602,0,8.644,1.935,8.644,7.524v13.76
			H198.838z M198.838,644.269v-3.14c-1.031-1.419-2.967-2.149-4.944-2.149c-2.537,0-4.429,1.462-4.429,3.74
			c0,2.236,1.892,3.698,4.429,3.698C195.871,646.418,197.807,645.688,198.838,644.269z"/>
		<path fill="#BE1E2D" d="M218.446,634.68c0-9.116,6.966-14.835,15.522-14.835c6.407,0,10.277,3.396,12.255,6.966l-6.191,3.225
			c-1.075-1.892-3.269-3.654-6.063-3.654c-4.687,0-7.998,3.611-7.998,8.299c0,4.687,3.312,8.299,7.998,8.299
			c2.107,0,4.257-0.86,5.289-1.721v-2.235h-6.45v-6.493h13.846v11.395c-3.096,3.397-7.267,5.59-12.685,5.59
			C225.412,649.514,218.446,643.795,218.446,634.68z"/>
		<path fill="#BE1E2D" d="M250.825,648.998v-20.769h6.622v2.537c1.376-1.677,3.998-3.096,6.492-3.096v6.363
			c-0.387-0.086-0.945-0.172-1.634-0.172c-1.72,0-3.999,0.731-4.858,1.892v13.244H250.825z"/>
		<path fill="#BE1E2D" d="M279.205,648.998v-2.063c-1.29,1.548-3.784,2.579-6.45,2.579c-3.182,0-7.138-2.149-7.138-6.837
			c0-5.03,3.956-6.664,7.138-6.664c2.752,0,5.203,0.859,6.45,2.407v-2.493c0-1.807-1.548-3.011-4.214-3.011
			c-2.064,0-4.214,0.774-5.892,2.193l-2.364-4.171c2.666-2.279,6.234-3.225,9.416-3.225c4.988,0,9.675,1.849,9.675,8.299v12.985
			H279.205z M279.205,643.666v-1.849c-0.688-0.946-2.236-1.462-3.698-1.462c-1.763,0-3.311,0.773-3.311,2.407
			c0,1.635,1.548,2.408,3.311,2.408C276.969,645.171,278.517,644.655,279.205,643.666z"/>
		<path fill="#BE1E2D" d="M292.019,643.408v-9.417h-3.44v-5.762h3.44v-5.676h6.579v5.676h4.214v5.762h-4.214v7.568
			c0,1.203,0.688,2.106,1.849,2.106c0.73,0,1.462-0.258,1.677-0.516l1.29,4.987c-0.817,0.774-2.451,1.376-4.902,1.376
			C294.297,649.514,292.019,647.407,292.019,643.408z"/>
		<path fill="#BE1E2D" d="M305.648,622.554c0-2.107,1.678-3.784,3.784-3.784c2.107,0,3.784,1.677,3.784,3.784
			c0,2.106-1.677,3.827-3.784,3.827C307.326,626.381,305.648,624.66,305.648,622.554z M306.122,648.998v-20.769h6.622v20.769
			H306.122z"/>
		<path fill="#BE1E2D" d="M315.796,646.332l2.752-4.558c1.549,1.376,4.859,2.752,7.311,2.752c1.978,0,2.795-0.646,2.795-1.591
			c0-2.709-12.083-0.043-12.083-8.386c0-3.654,3.139-6.836,8.901-6.836c3.482,0,6.449,1.117,8.686,2.752l-2.537,4.386
			c-1.247-1.204-3.612-2.279-6.105-2.279c-1.549,0-2.623,0.646-2.623,1.505c0,2.408,12.082,0.043,12.082,8.557
			c0,3.956-3.482,6.88-9.459,6.88C321.816,649.514,317.989,648.267,315.796,646.332z"/>
		<path fill="#BE1E2D" d="M348.218,644.956l2.795-3.87c1.978,2.107,5.074,3.956,9.072,3.956c4.129,0,5.763-2.021,5.763-3.913
			c0-6.02-16.727-2.278-16.727-12.856c0-4.73,4.171-8.385,10.448-8.385c4.472,0,8.084,1.419,10.75,3.999l-2.881,3.74
			c-2.236-2.235-5.289-3.268-8.299-3.268c-2.967,0-4.859,1.419-4.859,3.569c0,5.332,16.684,2.021,16.684,12.728
			c0,4.772-3.354,8.857-11.094,8.857C354.581,649.514,350.755,647.665,348.218,644.956z"/>
		<path fill="#BE1E2D" d="M374.189,638.592c0-6.02,4.386-10.878,10.535-10.878c6.234,0,10.233,4.772,10.233,11.309v1.075H378.92
			c0.344,3.139,2.709,5.719,6.621,5.719c2.021,0,4.43-0.817,5.892-2.279l2.063,2.967c-2.063,1.979-5.116,3.01-8.428,3.01
			C378.834,649.514,374.189,645.171,374.189,638.592z M384.725,631.411c-3.87,0-5.633,2.967-5.848,5.504h11.695
			C390.486,634.464,388.81,631.411,384.725,631.411z"/>
		<path fill="#BE1E2D" d="M399.43,648.998v-28.681h4.515v28.681H399.43z"/>
		<path fill="#BE1E2D" d="M422.478,648.998v-2.236c-1.548,1.764-3.956,2.752-6.708,2.752c-3.396,0-7.224-2.278-7.224-6.88
			c0-4.772,3.827-6.751,7.224-6.751c2.796,0,5.203,0.903,6.708,2.666v-3.096c0-2.408-1.978-3.87-4.858-3.87
			c-2.322,0-4.343,0.86-6.149,2.623l-1.849-3.139c2.408-2.279,5.418-3.354,8.729-3.354c4.602,0,8.644,1.935,8.644,7.524v13.76
			H422.478z M422.478,644.269v-3.14c-1.031-1.419-2.967-2.149-4.944-2.149c-2.537,0-4.429,1.462-4.429,3.74
			c0,2.236,1.892,3.698,4.429,3.698C419.511,646.418,421.446,645.688,422.478,644.269z"/>
		<path fill="#BE1E2D" d="M458.297,648.998v-13.545c0-2.235-0.989-3.741-3.397-3.741c-2.021,0-3.913,1.419-4.815,2.752v14.534
			h-4.516v-13.545c0-2.235-0.988-3.741-3.439-3.741c-1.979,0-3.827,1.419-4.773,2.795v14.491h-4.515v-20.769h4.515v2.838
			c0.86-1.29,3.612-3.354,6.751-3.354c3.097,0,4.988,1.548,5.676,3.826c1.204-1.892,3.956-3.826,7.053-3.826
			c3.826,0,5.977,2.063,5.977,6.277v15.007H458.297z"/>
		<path fill="#BE1E2D" d="M481.344,648.998v-2.236c-1.548,1.764-3.956,2.752-6.708,2.752c-3.396,0-7.224-2.278-7.224-6.88
			c0-4.772,3.827-6.751,7.224-6.751c2.795,0,5.203,0.903,6.708,2.666v-3.096c0-2.408-1.978-3.87-4.858-3.87
			c-2.322,0-4.343,0.86-6.149,2.623l-1.849-3.139c2.408-2.279,5.418-3.354,8.729-3.354c4.602,0,8.644,1.935,8.644,7.524v13.76
			H481.344z M481.344,644.269v-3.14c-1.031-1.419-2.967-2.149-4.944-2.149c-2.537,0-4.429,1.462-4.429,3.74
			c0,2.236,1.892,3.698,4.429,3.698C478.377,646.418,480.312,645.688,481.344,644.269z"/>
		<path fill="#BE1E2D" d="M500.866,644.87l2.709-3.311c1.849,2.149,4.901,3.482,7.955,3.482c3.783,0,5.977-1.72,5.977-4.386
			c0-2.838-2.279-4.042-6.364-4.042c-1.204,0-2.881,0-3.311,0.043v-4.515c0.516,0.043,2.192,0.043,3.311,0.043
			c3.354,0,5.892-1.161,5.892-3.784c0-2.666-2.58-4.042-5.806-4.042c-2.924,0-5.332,1.118-7.396,3.182l-2.58-3.139
			c2.193-2.58,5.676-4.515,10.449-4.515c6.191,0,10.362,2.924,10.362,7.739c0,3.827-3.268,6.063-6.234,6.579
			c2.795,0.258,6.664,2.537,6.664,6.966c0,4.859-4.171,8.342-10.792,8.342C506.585,649.514,502.801,647.45,500.866,644.87z"/>
		<path fill="#BE1E2D" d="M538.618,648.998v-28.681h14.104c5.246,0,8.17,3.269,8.17,7.31c0,3.612-2.321,6.021-4.987,6.579
			c3.053,0.474,5.547,3.526,5.547,7.052c0,4.43-2.967,7.74-8.342,7.74H538.618z M555.732,628.487c0-2.149-1.462-3.741-4.042-3.741
			h-8.041v7.439h8.041C554.271,632.186,555.732,630.638,555.732,628.487z M556.291,640.57c0-2.15-1.505-3.956-4.386-3.956h-8.256
			v7.955h8.256C554.657,644.569,556.291,643.064,556.291,640.57z"/>
		<path fill="#BE1E2D" d="M580.371,648.998v-2.752c-1.505,1.677-4.085,3.268-7.353,3.268c-4.472,0-6.665-2.321-6.665-6.578v-14.706
			h4.515v13.071c0,3.226,1.635,4.214,4.171,4.214c2.279,0,4.258-1.289,5.332-2.709v-14.576h4.516v20.769H580.371z"/>
		<path fill="#BE1E2D" d="M590.733,648.998v-28.681h4.515v28.681H590.733z"/>
		<path fill="#BE1E2D" d="M613.781,648.998v-2.236c-1.548,1.764-3.956,2.752-6.708,2.752c-3.396,0-7.224-2.278-7.224-6.88
			c0-4.772,3.827-6.751,7.224-6.751c2.795,0,5.203,0.903,6.708,2.666v-3.096c0-2.408-1.978-3.87-4.858-3.87
			c-2.322,0-4.343,0.86-6.149,2.623l-1.849-3.139c2.408-2.279,5.418-3.354,8.729-3.354c4.602,0,8.644,1.935,8.644,7.524v13.76
			H613.781z M613.781,644.269v-3.14c-1.031-1.419-2.967-2.149-4.944-2.149c-2.537,0-4.429,1.462-4.429,3.74
			c0,2.236,1.892,3.698,4.429,3.698C610.814,646.418,612.75,645.688,613.781,644.269z"/>
		<path fill="#BE1E2D" d="M638.162,648.998v-12.985c0-3.226-1.634-4.301-4.171-4.301c-2.321,0-4.3,1.376-5.332,2.795v14.491h-4.515
			v-20.769h4.515v2.838c1.376-1.634,4.042-3.354,7.311-3.354c4.472,0,6.708,2.407,6.708,6.664v14.62H638.162z"/>
		<path fill="#BE1E2D" d="M128.47,690.998v-21.284l-8.814,21.284h-2.15l-8.771-21.284v21.284h-5.031v-28.681h7.095l7.783,18.877
			l7.826-18.877h7.095v28.681H128.47z"/>
		<path fill="#BE1E2D" d="M138.188,680.592c0-6.02,4.386-10.878,10.535-10.878c6.234,0,10.233,4.772,10.233,11.309v1.075h-16.038
			c0.344,3.139,2.709,5.719,6.621,5.719c2.021,0,4.43-0.817,5.892-2.279l2.063,2.967c-2.063,1.979-5.116,3.01-8.428,3.01
			C142.832,691.514,138.188,687.171,138.188,680.592z M148.723,673.411c-3.87,0-5.633,2.967-5.848,5.504h11.695
			C154.484,676.464,152.808,673.411,148.723,673.411z"/>
		<path fill="#BE1E2D" d="M163.429,690.998v-28.681h4.515v28.681H163.429z"/>
		<path fill="#BE1E2D" d="M186.476,690.998v-2.236c-1.548,1.764-3.956,2.752-6.708,2.752c-3.396,0-7.224-2.278-7.224-6.88
			c0-4.772,3.827-6.751,7.224-6.751c2.796,0,5.203,0.903,6.708,2.666v-3.096c0-2.408-1.978-3.87-4.858-3.87
			c-2.322,0-4.343,0.86-6.149,2.623l-1.849-3.139c2.408-2.279,5.418-3.354,8.729-3.354c4.602,0,8.644,1.935,8.644,7.524v13.76
			H186.476z M186.476,686.269v-3.14c-1.031-1.419-2.967-2.149-4.944-2.149c-2.537,0-4.429,1.462-4.429,3.74
			c0,2.236,1.892,3.698,4.429,3.698C183.509,688.418,185.444,687.688,186.476,686.269z"/>
		<path fill="#BE1E2D" d="M196.839,690.998v-28.681h4.515v28.681H196.839z"/>
		<path fill="#BE1E2D" d="M221.22,690.998v-2.752c-1.505,1.677-4.085,3.268-7.353,3.268c-4.472,0-6.665-2.321-6.665-6.578v-14.706
			h4.515v13.071c0,3.226,1.635,4.214,4.171,4.214c2.279,0,4.258-1.289,5.332-2.709v-14.576h4.516v20.769H221.22z"/>
		<path fill="#BE1E2D" d="M231.023,664.897c0-1.548,1.29-2.795,2.795-2.795c1.548,0,2.795,1.247,2.795,2.795
			s-1.247,2.795-2.795,2.795C232.313,667.692,231.023,666.445,231.023,664.897z M231.582,690.998v-20.769h4.515v20.769H231.582z"/>
		<path fill="#BE1E2D" d="M272.088,690.998l-1.419-4.128H259.36l-1.419,4.128h-8.385l10.792-28.681h9.288l10.836,28.681H272.088z
			 M264.993,669.627l-3.655,10.793h7.311L264.993,669.627z"/>
		<path fill="#BE1E2D" d="M289.03,688.547v10.363h-6.622v-28.681h6.622v2.408c1.634-1.979,3.783-2.924,6.148-2.924
			c5.203,0,9.116,3.869,9.116,10.878c0,7.053-3.913,10.922-9.116,10.922C292.856,691.514,290.75,690.611,289.03,688.547z
			 M297.544,680.592c0-3.096-1.979-5.03-4.559-5.03c-1.419,0-3.139,0.773-3.955,1.892v6.321c0.816,1.075,2.536,1.892,3.955,1.892
			C295.565,685.666,297.544,683.731,297.544,680.592z"/>
		<path fill="#BE1E2D" d="M307.734,690.998v-28.681h6.622v28.681H307.734z"/>
		<path fill="#BE1E2D" d="M318.699,664.554c0-2.107,1.678-3.784,3.784-3.784c2.107,0,3.784,1.677,3.784,3.784
			c0,2.106-1.677,3.827-3.784,3.827C320.377,668.381,318.699,666.66,318.699,664.554z M319.173,690.998v-20.769h6.622v20.769
			H319.173z"/>
		<path fill="#BE1E2D" d="M343.768,690.998l-4.558-7.353l-1.978,2.364v4.988h-6.622v-28.681h6.622v16.211l6.32-8.299h7.998
			l-7.654,9.46l8.041,11.309H343.768z"/>
		<path fill="#BE1E2D" d="M366.343,690.998v-2.063c-1.29,1.548-3.784,2.579-6.45,2.579c-3.182,0-7.138-2.149-7.138-6.837
			c0-5.03,3.956-6.664,7.138-6.664c2.752,0,5.203,0.859,6.45,2.407v-2.493c0-1.807-1.548-3.011-4.214-3.011
			c-2.064,0-4.214,0.774-5.892,2.193l-2.364-4.171c2.666-2.279,6.234-3.225,9.416-3.225c4.988,0,9.675,1.849,9.675,8.299v12.985
			H366.343z M366.343,685.666v-1.849c-0.688-0.946-2.236-1.462-3.698-1.462c-1.763,0-3.311,0.773-3.311,2.407
			c0,1.635,1.548,2.408,3.311,2.408C364.106,687.171,365.654,686.655,366.343,685.666z"/>
		<path fill="#BE1E2D" d="M376.017,688.332l2.752-4.558c1.549,1.376,4.859,2.752,7.311,2.752c1.978,0,2.795-0.646,2.795-1.591
			c0-2.709-12.083-0.043-12.083-8.386c0-3.654,3.139-6.836,8.901-6.836c3.482,0,6.449,1.117,8.686,2.752l-2.537,4.386
			c-1.247-1.204-3.612-2.279-6.105-2.279c-1.549,0-2.623,0.646-2.623,1.505c0,2.408,12.082,0.043,12.082,8.557
			c0,3.956-3.482,6.88-9.459,6.88C382.037,691.514,378.21,690.267,376.017,688.332z"/>
		<path fill="#BE1E2D" d="M398.118,664.554c0-2.107,1.678-3.784,3.784-3.784c2.107,0,3.784,1.677,3.784,3.784
			c0,2.106-1.677,3.827-3.784,3.827C399.796,668.381,398.118,666.66,398.118,664.554z M398.592,690.998v-20.769h6.622v20.769
			H398.592z"/>
		<path fill="#BE1E2D" d="M446.363,690.998v-18.662l-7.267,18.662h-3.268l-7.225-18.662v18.662h-7.396v-28.681h10.276l5.978,15.565
			l6.02-15.565h10.277v28.681H446.363z"/>
		<path fill="#BE1E2D" d="M478.441,690.998L466.315,674.4v16.598h-7.396v-28.681h7.61l11.61,15.781v-15.781h7.438v28.681H478.441z"
			/>
		<path fill="#BE1E2D" d="M489.278,676.68c0-8.858,6.708-14.835,15.522-14.835c6.923,0,10.621,3.913,12.513,7.696l-6.363,3.011
			c-0.946-2.279-3.397-4.171-6.149-4.171c-4.687,0-7.998,3.611-7.998,8.299c0,4.687,3.312,8.299,7.998,8.299
			c2.752,0,5.203-1.893,6.149-4.171l6.363,3.01c-1.849,3.697-5.59,7.696-12.513,7.696
			C495.986,691.514,489.278,685.494,489.278,676.68z"/>
		<path fill="#BE1E2D" d="M551.024,690.998L538.898,674.4v16.598h-7.396v-28.681h7.61l11.61,15.781v-15.781h7.438v28.681H551.024z"
			/>
		<path fill="#BE1E2D" d="M561.775,680.592c0-5.848,4.257-10.878,11.309-10.878c7.138,0,11.352,5.03,11.352,10.878
			c0,5.849-4.214,10.922-11.352,10.922C566.032,691.514,561.775,686.44,561.775,680.592z M577.642,680.592
			c0-2.752-1.634-5.03-4.558-5.03c-2.881,0-4.472,2.278-4.472,5.03c0,2.795,1.591,5.074,4.472,5.074
			C576.008,685.666,577.642,683.387,577.642,680.592z"/>
		<path fill="#BE1E2D" d="M606.321,690.998l-3.913-12.856l-3.87,12.856H591.4l-6.148-20.769h6.794l3.354,12.728l4.085-12.728h5.891
			l4.085,12.728l3.312-12.728h6.837l-6.149,20.769H606.321z"/>
		<path fill="#58595B" d="M31.504,737.798v-20.009h9.36c4.35,0,6.72,2.939,6.72,6.449c0,3.479-2.4,6.42-6.72,6.42h-5.1v7.14H31.504z
			 M43.233,724.238c0-1.68-1.289-2.7-2.97-2.7h-4.499v5.37h4.499C41.944,726.908,43.233,725.889,43.233,724.238z"/>
		<path fill="#58595B" d="M48.725,730.538c0-4.2,3.12-7.59,7.5-7.59c4.35,0,7.26,3.24,7.26,7.95v0.899h-10.77
			c0.27,1.771,1.71,3.24,4.169,3.24c1.23,0,2.91-0.51,3.84-1.41l1.71,2.52c-1.439,1.32-3.72,2.011-5.97,2.011
			C52.055,738.158,48.725,735.188,48.725,730.538z M56.225,726.068c-2.37,0-3.391,1.649-3.54,3.09h7.14
			C59.704,727.778,58.744,726.068,56.225,726.068z"/>
		<path fill="#58595B" d="M66.244,737.798v-14.489h3.811v1.95c1.05-1.261,2.819-2.311,4.619-2.311v3.72
			c-0.27-0.06-0.6-0.09-1.05-0.09c-1.26,0-2.939,0.72-3.569,1.65v9.569H66.244z"/>
		<path fill="#58595B" d="M76.685,719.469c0-1.26,1.02-2.25,2.25-2.25c1.26,0,2.279,0.99,2.279,2.25s-1.02,2.279-2.279,2.279
			C77.704,721.748,76.685,720.729,76.685,719.469z M77.044,737.798v-14.489h3.811v14.489H77.044z"/>
		<path fill="#58595B" d="M94.022,737.798l-3.84-5.58l-1.739,1.86v3.72h-3.811v-20.009h3.811v11.969l5.489-6.449h4.68l-5.729,6.569
			l5.91,7.92H94.022z"/>
		<path fill="#58595B" d="M99.453,735.908l1.65-2.76c1.079,1.02,3.21,2.01,5.01,2.01c1.649,0,2.43-0.63,2.43-1.53
			c0-2.37-8.58-0.42-8.58-6.12c0-2.43,2.101-4.56,5.94-4.56c2.43,0,4.38,0.84,5.819,1.98l-1.53,2.699
			c-0.869-0.899-2.52-1.68-4.289-1.68c-1.38,0-2.28,0.6-2.28,1.41c0,2.13,8.609,0.33,8.609,6.18c0,2.67-2.279,4.62-6.3,4.62
			C103.413,738.158,100.983,737.317,99.453,735.908z"/>
		<path fill="#58595B" d="M123.723,737.798v-1.53c-0.99,1.2-2.7,1.891-4.59,1.891c-2.311,0-5.01-1.561-5.01-4.8
			c0-3.42,2.699-4.68,5.01-4.68c1.949,0,3.63,0.63,4.59,1.77v-1.83c0-1.47-1.26-2.43-3.18-2.43c-1.53,0-2.971,0.6-4.17,1.71
			l-1.5-2.67c1.77-1.59,4.05-2.28,6.329-2.28c3.33,0,6.36,1.32,6.36,5.49v9.359H123.723z M123.723,734.318v-1.8
			c-0.63-0.841-1.83-1.29-3.061-1.29c-1.5,0-2.729,0.81-2.729,2.189s1.229,2.16,2.729,2.16
			C121.893,735.578,123.093,735.158,123.723,734.318z"/>
		<path fill="#58595B" d="M139.112,737.798v-20.009h14.16v3.749h-9.9v4.2h9.69v3.75h-9.69v4.56h9.9v3.75H139.112z"/>
		<path fill="#58595B" d="M174.481,737.798v-9.149c0-1.351-0.601-2.311-2.16-2.311c-1.35,0-2.46,0.9-3,1.681v9.779h-3.84v-9.149
			c0-1.351-0.6-2.311-2.16-2.311c-1.319,0-2.43,0.9-2.999,1.681v9.779h-3.811v-14.489h3.811v1.859c0.63-0.84,2.52-2.22,4.739-2.22
			c2.13,0,3.51,0.99,4.02,2.61c0.841-1.29,2.761-2.61,4.98-2.61c2.67,0,4.26,1.41,4.26,4.38v10.47H174.481z"/>
		<path fill="#58595B" d="M190.803,737.798v-1.53c-0.99,1.2-2.7,1.891-4.59,1.891c-2.311,0-5.01-1.561-5.01-4.8
			c0-3.42,2.699-4.68,5.01-4.68c1.949,0,3.63,0.63,4.59,1.77v-1.83c0-1.47-1.26-2.43-3.18-2.43c-1.53,0-2.971,0.6-4.17,1.71
			l-1.5-2.67c1.77-1.59,4.05-2.28,6.329-2.28c3.33,0,6.36,1.32,6.36,5.49v9.359H190.803z M190.803,734.318v-1.8
			c-0.63-0.841-1.83-1.29-3.061-1.29c-1.5,0-2.729,0.81-2.729,2.189s1.229,2.16,2.729,2.16
			C188.973,735.578,190.173,735.158,190.803,734.318z"/>
		<path fill="#58595B" d="M198.032,719.469c0-1.26,1.02-2.25,2.25-2.25c1.26,0,2.279,0.99,2.279,2.25s-1.02,2.279-2.279,2.279
			C199.052,721.748,198.032,720.729,198.032,719.469z M198.392,737.798v-14.489h3.811v14.489H198.392z"/>
		<path fill="#58595B" d="M205.981,737.798v-20.009h3.811v20.009H205.981z"/>
		<path fill="#58595B" d="M235.201,737.798l-1.26-3.39h-8.58l-1.26,3.39h-4.83l7.71-20.009h5.34l7.709,20.009H235.201z
			 M229.651,722.049l-3.12,8.609h6.24L229.651,722.049z"/>
		<path fill="#58595B" d="M251.581,737.798v-8.76c0-2.01-1.051-2.7-2.67-2.7c-1.5,0-2.641,0.841-3.3,1.681v9.779h-3.811v-14.489
			h3.811v1.859c0.93-1.079,2.729-2.22,5.069-2.22c3.21,0,4.74,1.8,4.74,4.62v10.229H251.581z"/>
		<path fill="#58595B" d="M269.131,737.798v-1.86c-1.14,1.44-2.7,2.221-4.47,2.221c-3.63,0-6.42-2.761-6.42-7.62
			c0-4.71,2.729-7.59,6.42-7.59c1.71,0,3.33,0.72,4.47,2.22v-7.379h3.84v20.009H269.131z M269.131,733.118v-5.13
			c-0.63-0.96-2.01-1.65-3.27-1.65c-2.19,0-3.69,1.71-3.69,4.2c0,2.52,1.5,4.229,3.69,4.229
			C267.121,734.768,268.501,734.078,269.131,733.118z"/>
		<path fill="#58595B" d="M285.451,737.798v-1.53c-0.99,1.2-2.7,1.891-4.59,1.891c-2.311,0-5.01-1.561-5.01-4.8
			c0-3.42,2.699-4.68,5.01-4.68c1.949,0,3.63,0.63,4.59,1.77v-1.83c0-1.47-1.26-2.43-3.18-2.43c-1.53,0-2.971,0.6-4.17,1.71
			l-1.5-2.67c1.77-1.59,4.05-2.28,6.329-2.28c3.33,0,6.36,1.32,6.36,5.49v9.359H285.451z M285.451,734.318v-1.8
			c-0.63-0.841-1.83-1.29-3.061-1.29c-1.5,0-2.729,0.81-2.729,2.189s1.229,2.16,2.729,2.16
			C283.621,735.578,284.821,735.158,285.451,734.318z"/>
		<path fill="#58595B" d="M300.84,729.788v-11.999h4.32v11.879c0,2.79,1.62,4.71,4.71,4.71s4.68-1.92,4.68-4.71v-11.879h4.35v11.999
			c0,4.95-2.939,8.37-9.029,8.37S300.84,734.738,300.84,729.788z"/>
		<path fill="#58595B" d="M332.551,737.798v-8.76c0-2.01-1.051-2.7-2.67-2.7c-1.5,0-2.641,0.841-3.3,1.681v9.779h-3.811v-14.489
			h3.811v1.859c0.93-1.079,2.729-2.22,5.069-2.22c3.21,0,4.74,1.8,4.74,4.62v10.229H332.551z"/>
		<path fill="#58595B" d="M340.92,734.168v-7.529h-2.4v-3.33h2.4v-3.96h3.81v3.96h2.94v3.33h-2.94v6.51
			c0,0.93,0.48,1.619,1.32,1.619c0.57,0,1.109-0.21,1.32-0.449l0.81,2.909c-0.57,0.511-1.59,0.931-3.18,0.931
			C342.33,738.158,340.92,736.778,340.92,734.168z"/>
		<path fill="#58595B" d="M360.061,737.798v-1.83c-0.99,1.08-2.73,2.19-5.101,2.19c-3.18,0-4.68-1.74-4.68-4.561v-10.289h3.811
			v8.789c0,2.011,1.05,2.67,2.67,2.67c1.47,0,2.64-0.81,3.3-1.649v-9.81h3.81v14.489H360.061z"/>
		<path fill="#58595B" d="M377.039,737.798l-3.84-5.58l-1.739,1.86v3.72h-3.811v-20.009h3.811v11.969l5.489-6.449h4.68l-5.729,6.569
			l5.91,7.92H377.039z"/>
		<path fill="#58595B" d="M391.529,737.798v-20.009h4.261v20.009H391.529z"/>
		<path fill="#58595B" d="M409.439,737.798v-8.76c0-2.01-1.051-2.7-2.67-2.7c-1.5,0-2.641,0.841-3.3,1.681v9.779h-3.811v-14.489
			h3.811v1.859c0.93-1.079,2.729-2.22,5.069-2.22c3.21,0,4.74,1.8,4.74,4.62v10.229H409.439z"/>
		<path fill="#58595B" d="M417.898,737.798v-11.159h-2.399v-3.33h2.399v-0.601c0-3.27,1.95-5.22,4.86-5.22
			c1.409,0,2.909,0.391,3.779,1.38l-1.439,2.311c-0.391-0.36-0.9-0.57-1.59-0.57c-1.08,0-1.801,0.69-1.801,2.1v0.601h2.94v3.33
			h-2.94v11.159H417.898z"/>
		<path fill="#58595B" d="M425.909,730.538c0-4.109,2.88-7.59,7.649-7.59c4.8,0,7.68,3.48,7.68,7.59c0,4.11-2.88,7.62-7.68,7.62
			C428.789,738.158,425.909,734.648,425.909,730.538z M437.278,730.538c0-2.25-1.319-4.2-3.72-4.2c-2.37,0-3.689,1.95-3.689,4.2
			c0,2.28,1.319,4.229,3.689,4.229C435.959,734.768,437.278,732.818,437.278,730.538z"/>
		<path fill="#58595B" d="M444.089,737.798v-14.489h3.811v1.95c1.05-1.261,2.819-2.311,4.619-2.311v3.72
			c-0.27-0.06-0.6-0.09-1.05-0.09c-1.26,0-2.939,0.72-3.569,1.65v9.569H444.089z"/>
		<path fill="#58595B" d="M472.857,737.798v-9.149c0-1.351-0.601-2.311-2.16-2.311c-1.35,0-2.46,0.9-3,1.681v9.779h-3.84v-9.149
			c0-1.351-0.6-2.311-2.16-2.311c-1.319,0-2.43,0.9-2.999,1.681v9.779h-3.811v-14.489h3.811v1.859c0.63-0.84,2.52-2.22,4.739-2.22
			c2.13,0,3.51,0.99,4.02,2.61c0.841-1.29,2.761-2.61,4.98-2.61c2.67,0,4.26,1.41,4.26,4.38v10.47H472.857z"/>
		<path fill="#58595B" d="M489.178,737.798v-1.53c-0.99,1.2-2.7,1.891-4.59,1.891c-2.311,0-5.01-1.561-5.01-4.8
			c0-3.42,2.699-4.68,5.01-4.68c1.949,0,3.63,0.63,4.59,1.77v-1.83c0-1.47-1.26-2.43-3.18-2.43c-1.53,0-2.971,0.6-4.17,1.71
			l-1.5-2.67c1.77-1.59,4.05-2.28,6.329-2.28c3.33,0,6.36,1.32,6.36,5.49v9.359H489.178z M489.178,734.318v-1.8
			c-0.63-0.841-1.83-1.29-3.061-1.29c-1.5,0-2.729,0.81-2.729,2.189s1.229,2.16,2.729,2.16
			C487.348,735.578,488.548,735.158,489.178,734.318z"/>
		<path fill="#58595B" d="M495.508,735.908l1.65-2.76c1.079,1.02,3.21,2.01,5.01,2.01c1.649,0,2.43-0.63,2.43-1.53
			c0-2.37-8.58-0.42-8.58-6.12c0-2.43,2.101-4.56,5.94-4.56c2.43,0,4.38,0.84,5.819,1.98l-1.53,2.699
			c-0.869-0.899-2.52-1.68-4.289-1.68c-1.38,0-2.28,0.6-2.28,1.41c0,2.13,8.609,0.33,8.609,6.18c0,2.67-2.279,4.62-6.3,4.62
			C499.468,738.158,497.038,737.317,495.508,735.908z"/>
		<path fill="#58595B" d="M510.718,719.469c0-1.26,1.02-2.25,2.25-2.25c1.26,0,2.279,0.99,2.279,2.25s-1.02,2.279-2.279,2.279
			C511.737,721.748,510.718,720.729,510.718,719.469z M511.077,737.798v-14.489h3.811v14.489H511.077z"/>
		<path fill="#58595B" d="M526.287,737.798v-20.009h4.29v16.259h8.46v3.75H526.287z"/>
		<path fill="#58595B" d="M540.567,730.538c0-4.2,3.12-7.59,7.5-7.59c4.35,0,7.26,3.24,7.26,7.95v0.899h-10.77
			c0.27,1.771,1.71,3.24,4.17,3.24c1.229,0,2.909-0.51,3.84-1.41l1.709,2.52c-1.439,1.32-3.72,2.011-5.97,2.011
			C543.897,738.158,540.567,735.188,540.567,730.538z M548.067,726.068c-2.37,0-3.391,1.649-3.54,3.09h7.14
			C551.547,727.778,550.587,726.068,548.067,726.068z"/>
		<path fill="#58595B" d="M558.087,737.798v-20.009h3.811v7.379c1.14-1.5,2.76-2.22,4.47-2.22c3.689,0,6.419,2.88,6.419,7.59
			c0,4.859-2.76,7.62-6.419,7.62c-1.74,0-3.33-0.78-4.47-2.221v1.86H558.087z M565.197,734.768c2.189,0,3.659-1.71,3.659-4.229
			c0-2.49-1.47-4.2-3.659-4.2c-1.261,0-2.641,0.721-3.3,1.681v5.13C562.557,734.078,563.937,734.768,565.197,734.768z"/>
		<path fill="#58595B" d="M575.308,719.469c0-1.26,1.02-2.25,2.25-2.25c1.26,0,2.279,0.99,2.279,2.25s-1.02,2.279-2.279,2.279
			C576.327,721.748,575.308,720.729,575.308,719.469z M575.667,737.798v-14.489h3.811v14.489H575.667z"/>
		<path fill="#58595B" d="M593.066,737.798v-8.819c0-2.01-1.05-2.641-2.67-2.641c-1.5,0-2.67,0.841-3.3,1.681v9.779h-3.84v-20.009
			h3.84v7.379c0.931-1.079,2.7-2.22,5.07-2.22c3.18,0,4.71,1.74,4.71,4.56v10.29H593.066z"/>
		<path fill="#58595B" d="M608.276,737.798v-20.009h4.29v16.259h8.46v3.75H608.276z"/>
		<path fill="#58595B" d="M632.307,737.798v-1.53c-0.99,1.2-2.7,1.891-4.59,1.891c-2.311,0-5.01-1.561-5.01-4.8
			c0-3.42,2.699-4.68,5.01-4.68c1.949,0,3.63,0.63,4.59,1.77v-1.83c0-1.47-1.26-2.43-3.18-2.43c-1.53,0-2.971,0.6-4.17,1.71
			l-1.5-2.67c1.77-1.59,4.05-2.28,6.329-2.28c3.33,0,6.36,1.32,6.36,5.49v9.359H632.307z M632.307,734.318v-1.8
			c-0.63-0.841-1.83-1.29-3.061-1.29c-1.5,0-2.729,0.81-2.729,2.189s1.229,2.16,2.729,2.16
			C630.477,735.578,631.677,735.158,632.307,734.318z"/>
		<path fill="#58595B" d="M649.677,737.798v-8.76c0-2.01-1.051-2.7-2.67-2.7c-1.5,0-2.641,0.841-3.3,1.681v9.779h-3.811v-14.489
			h3.811v1.859c0.93-1.079,2.729-2.22,5.069-2.22c3.21,0,4.74,1.8,4.74,4.62v10.229H649.677z"/>
		<path fill="#58595B" d="M652.317,742.628l1.02-2.82c0.57,0.48,1.08,0.75,1.95,0.75c1.17,0,1.979-0.75,1.979-2.37v-14.879h3.811
			v14.879c0,3.3-1.681,5.49-5.16,5.49C654.087,743.678,653.367,743.378,652.317,742.628z M656.907,719.469
			c0-1.26,1.02-2.25,2.25-2.25c1.26,0,2.279,0.99,2.279,2.25s-1.02,2.279-2.279,2.279
			C657.927,721.748,656.907,720.729,656.907,719.469z"/>
		<path fill="#58595B" d="M674.636,737.798v-1.83c-0.99,1.08-2.73,2.19-5.101,2.19c-3.18,0-4.68-1.74-4.68-4.561v-10.289h3.811
			v8.789c0,2.011,1.05,2.67,2.67,2.67c1.47,0,2.64-0.81,3.3-1.649v-9.81h3.81v14.489H674.636z"/>
		<path fill="#58595B" d="M683.006,734.168v-7.529h-2.4v-3.33h2.4v-3.96h3.81v3.96h2.94v3.33h-2.94v6.51
			c0,0.93,0.48,1.619,1.32,1.619c0.57,0,1.109-0.21,1.32-0.449l0.81,2.909c-0.57,0.511-1.59,0.931-3.18,0.931
			C684.416,738.158,683.006,736.778,683.006,734.168z"/>
	</g>
</g>
</svg>
