<?xml version="1.0" encoding="utf-8"?>
<!-- Generator: Adobe Illustrator 16.0.0, SVG Export Plug-In . SVG Version: 6.00 Build 0)  -->
<!DOCTYPE svg PUBLIC "-//W3C//DTD SVG 1.1//EN" "http://www.w3.org/Graphics/SVG/1.1/DTD/svg11.dtd">
<svg version="1.1" id="Layer_1" xmlns="http://www.w3.org/2000/svg" xmlns:xlink="http://www.w3.org/1999/xlink" x="0px" y="0px"
	 width="720px" height="1000px" viewBox="0 0 720 1000" enable-background="new 0 0 720 1000" xml:space="preserve">
<g>
	<path fill="#ED1C24" d="M381.067,831.557c-11.632,11.637-30.501,11.637-42.137,0L134.606,627.235
		c-11.636-11.639-11.636-30.506,0-42.138l204.324-204.327c11.636-11.636,30.505-11.636,42.137,0l204.326,204.327
		c11.637,11.632,11.637,30.499,0,42.138L381.067,831.557z"/>
	<g>
		<linearGradient id="SVGID_2_" gradientUnits="userSpaceOnUse" x1="264.7432" y1="818.585" x2="148.3763" y2="579.806">
			<stop  offset="0" style="stop-color:#231F20;stop-opacity:0"/>
			<stop  offset="1" style="stop-color:#231F20"/>
		</linearGradient>
		<path opacity="0.3" fill="url(#SVGID_2_)" d="M206.544,699.177c0.007,0.005,0.014,0.01,0.021,0.015l-0.025-0.024L206.544,699.177z
			"/>
		<path fill="none" d="M205.071,696.849c0,0-0.808-1.803-1.472-2.325c0,0-0.812-1.804-1.475-2.329c0,0-0.811-1.803-1.475-2.328
			c0,0-0.807-1.803-1.472-2.328c0,0-0.809-1.803-1.472-2.325c0,0-0.812-1.806-1.475-2.331c0,0-0.812-1.803-1.476-2.328
			c0,0-0.808-1.803-1.474-2.328c0,0-0.807-1.806-1.472-2.326c0,0-0.809-1.803-1.473-2.328c0,0-0.812-1.805-1.476-2.328
			c0,0-0.808-1.806-1.474-2.328c0,0-0.807-1.806-1.473-2.328c0,0-0.808-1.803-1.474-2.328c0,0-0.809-1.803-1.473-2.328
			c0,0-0.809-1.801-1.474-2.326c0,0-0.808-1.808-1.474-2.33c0,0-0.809-1.801-1.475-2.326c0,0-0.81-1.806-1.473-2.328
			c0,0-0.812-1.806-1.475-2.328c0,0-0.807-1.806-1.473-2.331c0,0-0.809-1.801-1.475-2.325c0,0-0.81-1.806-1.473-2.331l10.239-15.74
			c4.858,3.516,9.844,6.114,14.638,7.806c-0.135-0.229-0.275-0.457-0.399-0.693c-0.536-0.732-1.032-1.503-1.47-2.319
			c-0.537-0.736-1.032-1.508-1.474-2.328c-0.537-0.734-1.035-1.51-1.475-2.333c-0.538-0.731-1.033-1.503-1.472-2.321
			c-0.538-0.734-1.033-1.505-1.474-2.328c-0.54-0.734-1.035-1.508-1.477-2.33c-0.536-0.734-1.034-1.51-1.477-2.335
			c-0.535-0.732-1.03-1.503-1.47-2.324c-0.531-0.728-1.025-1.493-1.462-2.308c-0.542-0.746-1.048-1.523-1.493-2.36
			c-0.512-0.697-0.985-1.437-1.409-2.214c-2.503-3.404-4.072-7.689-4.072-13.253v-0.314c0-17.161,13.85-26.765,30.856-26.765
			c10.706,0,22.351,3.622,31.488,9.763c0,0,0.809,1.881,1.475,2.328c0,0,0.806,1.881,1.471,2.324c0,0,0.811,1.885,1.472,2.328
			c0,0,0.812,1.882,1.476,2.328c0,0,0.809,1.882,1.475,2.33c0,0,0.806,1.881,1.472,2.328c0,0,0.81,1.883,1.471,2.328
			c0,0,0.07,1.451,0.391,1.658v-26.456h5.262l-1.474-2.311l-1.472-2.326l-1.475-2.33l-1.473-2.328V539.56h25.187l1.474,2.328
			l1.476,2.33l1.475,2.326l1.471,2.33l1.473,2.326l1.475,2.326l1.474,2.328l1.475,2.33l1.47,2.328l1.476,2.328l1.475,2.326
			l1.474,2.331l1.472,2.328l1.474,2.323v1.376c7.444-2.694,15.487-4.368,26.75-4.368c13.069,0,22.505,3.461,28.493,9.449
			c1.748,1.749,3.204,3.752,4.431,5.945c0.522,0.746,1.018,1.517,1.472,2.324c0.522,0.748,1.019,1.519,1.472,2.325
			c0.521,0.751,1.019,1.517,1.472,2.324c0.528,0.755,1.028,1.53,1.483,2.34c0.52,0.75,1.019,1.519,1.471,2.328
			c0.521,0.748,1.019,1.517,1.469,2.323c0.523,0.746,1.019,1.517,1.472,2.324c0.527,0.75,1.025,1.522,1.476,2.335
			c0.166,0.231,0.327,0.466,0.481,0.704c0.696-8.63,3.617-15.809,7.977-21.396l-0.246-0.47l-0.387-0.742l-0.389-0.743l-0.384-0.743
			l-0.389-0.743l-0.385-0.741l-0.389-0.743l-0.387-0.742l-0.387-0.744l-0.386-0.742l-0.389-0.743l-0.387-0.743l-0.387-0.741
			l-0.387-0.743l-0.387-0.743l-0.389-0.742l-0.384-0.743l-0.389-0.741l-0.387-0.744l-0.387-0.743l-0.387-0.742l-0.389-0.744
			l-0.384-0.739l-0.389-0.744l-0.387-0.743l-0.387-0.743l-0.387-0.74l-0.389-0.743l-0.384-0.743l-0.389-0.743l-0.385-0.743
			l-0.389-0.744l-0.387-0.741l-0.387-0.742l-0.387-0.743l-0.388-0.742l-0.385-0.741l-0.388-0.743l-0.388-0.744l-0.386-0.742
			l-0.388-0.743l-0.385-0.742l-0.388-0.744l-0.388-0.743l-0.385-0.741l-0.388-0.742l-0.385-0.741l-0.388-0.743l-0.388-0.743
			l-0.386-0.743l-0.387-0.743v-13.238h4.014c2.962,0,4.002,2.549,4.115,2.854c0.219,0.351,0.339,0.619,0.38,0.728
			c0.232,0.369,0.353,0.648,0.392,0.749c0.231,0.369,0.353,0.647,0.389,0.747c0.231,0.371,0.353,0.65,0.389,0.744
			c0.225,0.361,0.344,0.635,0.384,0.738c0.23,0.367,0.351,0.645,0.387,0.744c0.519-1.428,1.421-3.878,2.015-5.279
			c0.875-2.049,3.897-2.024,3.897-2.024h3.977l0.386,0.742l0.389,0.743l0.155,0.744v-2.229h2.77h1.259
			c1.939,0,3.072,1.745,3.997,2.991c0.539,0.911,4.125,6.338,4.125,6.338v-9.329h3.99l0.386,0.742l0.39,0.743l0.386,0.744
			l0.387,0.743v0.741h0.101c1.091-2.194,3.34-3.714,5.963-3.714h10.35l-0.752,0.742h1.139l-0.752,0.743h0.231l6.618-6.687
			l0.734-0.739l0.01-0.002c-0.005,0.014-0.118,0.523-0.094,1.219l0.287-0.287c-0.027-0.693,0.088-1.203,0.091-1.217v-0.005
			l5.938-5.751c1.041-0.982,2.056-1.76,3.638-1.736c2.451,0.047,3.251,1.844,4.779,2.969l7.669,7.604l-0.062-0.018l0.068,0.07
			c0,0-0.154-0.049-0.402-0.086l0.514,0.508c0.009,0.002,0.036,0.01,0.036,0.01l5.816,5.731c0.693,0.686,1.123,1.348,1.392,1.97
			c0.161,0.259,0.286,0.511,0.391,0.756c0.159,0.25,0.279,0.493,0.382,0.732c0.162,0.257,0.287,0.507,0.392,0.751
			c0.022,0.037,0.038,0.068,0.059,0.104v-7.4h3.47l0.387,0.744l0.387,0.739l0.386,0.744l0.387,0.743l0.387,0.743l0.389,0.742
			l0.387,0.744l0.387,0.742l0.389,0.743l0.384,0.741l0.389,0.743l0.387,0.743l0.387,0.741v0.686h1.185v0.742h0.387v0.741h0.387
			v0.743h0.161v-12.566h3.474l0.385,0.744l0.391,0.739l0.155,0.744v-2.228h9.814l0.387,0.744l0.389,0.739l0.162,0.744v-2.228h10.617
			l0.385,0.744l0.391,0.739l0.385,0.744l0.386,0.743l0.39,0.743l0.386,0.742l0.385,0.744l0.389,0.742l0.387,0.743l0.387,0.741
			l0.386,0.743l0.39,0.743l0.386,0.741l0.387,0.743l0.387,0.742l0.387,0.743l0.389,0.744l0.384,0.742l0.389,0.743l0.387,0.742
			l0.387,0.741l0.387,0.744l0.389,0.743l0.384,0.741l0.389,0.742l0.387,0.744l0.387,0.742l0.387,0.743l0.389,0.743l0.384,0.744
			l0.39,0.742l0.386,0.741l0.387,0.742l0.387,0.743l0.389,0.741l0.385,0.744l0.389,0.743l0.386,0.742l0.387,0.743l0.387,0.743
			l0.389,0.743l0.387,0.743l0.387,0.741l0.386,0.742l0.387,0.744l0.389,0.742l0.385,0.741l0.389,0.743l0.384,0.743l0.39,0.743
			l0.229,0.443c11.784,0.414,20.417,3.802,26.01,9.404c1.756,1.751,3.213,3.756,4.44,5.955c0.523,0.748,1.019,1.514,1.474,2.321
			c0.516,0.748,1.014,1.512,1.469,2.318c0.522,0.756,1.025,1.528,1.482,2.345c0.521,0.746,1.017,1.517,1.469,2.319
			c0.525,0.755,1.025,1.529,1.48,2.342c0.516,0.743,1.012,1.507,1.464,2.305c0.525,0.76,1.027,1.535,1.484,2.35
			c0.517,0.745,1.012,1.509,1.465,2.314c0.522,0.75,1.016,1.516,1.471,2.323c0.525,0.755,1.027,1.528,1.482,2.342
			c0.521,0.75,1.023,1.517,1.471,2.323c0.523,0.751,1.021,1.521,1.472,2.331c0.521,0.743,1.016,1.51,1.466,2.312
			c0.527,0.755,1.032,1.532,1.489,2.349c0.521,0.745,1.017,1.514,1.465,2.316c0.524,0.75,1.025,1.525,1.478,2.335
			c0.525,0.748,1.019,1.517,1.471,2.324c0.525,0.75,1.023,1.521,1.479,2.335c0.521,0.743,1.016,1.51,1.464,2.314
			c0.529,0.75,1.027,1.525,1.482,2.342c0.521,0.745,1.019,1.512,1.469,2.316c0.525,0.75,1.025,1.523,1.48,2.335
			c0.521,0.751,1.019,1.517,1.469,2.321c0.527,0.753,1.022,1.523,1.476,2.335c0.402,0.577,0.784,1.171,1.147,1.78l14.977-14.976
			c11.637-11.639,11.637-30.506,0-42.138L381.067,380.771c-11.632-11.636-30.501-11.636-42.137,0L134.606,585.098
			c-11.636,11.632-11.636,30.499,0,42.138l71.933,71.932C206.515,699.112,205.728,697.366,205.071,696.849z"/>
		<path fill="none" d="M416.93,527.615c-0.025-0.087-0.032-0.17-0.051-0.256c-0.002,0.096,0.003,0.197,0.007,0.3L416.93,527.615z"/>
		<path fill="none" d="M206.565,699.191l1.793,1.794l0.224-0.344C207.913,700.157,207.225,699.71,206.565,699.191z"/>
		<linearGradient id="SVGID_4_" gradientUnits="userSpaceOnUse" x1="560.5615" y1="1032.1436" x2="298.9136" y2="495.2555">
			<stop  offset="0" style="stop-color:#231F20;stop-opacity:0"/>
			<stop  offset="1" style="stop-color:#231F20"/>
		</linearGradient>
		<path opacity="0.3" fill="url(#SVGID_4_)" d="M381.067,831.557l189.35-189.346c-0.363-0.609-0.745-1.203-1.147-1.78
			c-0.453-0.812-0.948-1.582-1.476-2.335c-0.45-0.805-0.948-1.57-1.469-2.321c-0.455-0.812-0.955-1.585-1.48-2.335
			c-0.45-0.805-0.948-1.571-1.469-2.316c-0.455-0.816-0.953-1.592-1.482-2.342c-0.448-0.805-0.943-1.571-1.464-2.314
			c-0.455-0.814-0.953-1.585-1.479-2.335c-0.452-0.808-0.945-1.576-1.471-2.324c-0.452-0.81-0.953-1.585-1.478-2.335
			c-0.448-0.803-0.944-1.571-1.465-2.316c-0.457-0.816-0.962-1.594-1.489-2.349c-0.45-0.803-0.945-1.569-1.466-2.312
			c-0.45-0.81-0.948-1.58-1.472-2.331c-0.447-0.807-0.95-1.573-1.471-2.323c-0.455-0.813-0.957-1.587-1.482-2.342
			c-0.455-0.808-0.948-1.573-1.471-2.323c-0.453-0.806-0.948-1.569-1.465-2.314c-0.457-0.814-0.959-1.59-1.484-2.35
			c-0.452-0.798-0.948-1.562-1.464-2.305c-0.455-0.812-0.955-1.587-1.48-2.342c-0.452-0.803-0.948-1.573-1.469-2.319
			c-0.457-0.816-0.96-1.589-1.482-2.345c-0.455-0.807-0.953-1.57-1.469-2.318c-0.455-0.808-0.95-1.573-1.474-2.321
			c-1.228-2.199-2.685-4.204-4.44-5.955c-5.593-5.603-14.226-8.99-26.01-9.404l-0.229-0.443l-0.39-0.743l-0.384-0.743l-0.389-0.743
			l-0.385-0.741l-0.389-0.742l-0.387-0.744l-0.386-0.742l-0.387-0.741l-0.387-0.743l-0.389-0.743l-0.387-0.743l-0.387-0.743
			l-0.386-0.742l-0.389-0.743l-0.385-0.744l-0.389-0.741l-0.387-0.743l-0.387-0.742l-0.386-0.741l-0.39-0.742l-0.384-0.744
			l-0.389-0.743l-0.387-0.743l-0.387-0.742l-0.387-0.744l-0.389-0.742l-0.384-0.741l-0.389-0.743L492,547.219l-0.387-0.741
			l-0.387-0.742l-0.389-0.743l-0.384-0.742l-0.389-0.744l-0.387-0.743l-0.387-0.742l-0.387-0.743l-0.386-0.741l-0.39-0.743
			l-0.386-0.743l-0.387-0.741l-0.387-0.743l-0.389-0.742l-0.385-0.744l-0.386-0.742l-0.39-0.743l-0.386-0.743l-0.385-0.744
			l-0.391-0.739l-0.385-0.744h-10.617v2.228l-0.162-0.744l-0.389-0.739l-0.387-0.744h-9.814v2.228l-0.155-0.744l-0.391-0.739
			l-0.385-0.744h-3.474v12.566h-0.161v-0.743h-0.387v-0.741h-0.387v-0.742h-1.185v-0.686l-0.387-0.741l-0.387-0.743l-0.389-0.743
			l-0.384-0.741l-0.389-0.743l-0.387-0.742l-0.387-0.744l-0.389-0.742l-0.387-0.743l-0.387-0.743l-0.386-0.744l-0.387-0.739
			l-0.387-0.744h-3.47v7.4c-0.021-0.036-0.036-0.067-0.059-0.104c-0.104-0.244-0.229-0.494-0.392-0.751
			c-0.103-0.239-0.223-0.482-0.382-0.732c-0.104-0.245-0.229-0.497-0.391-0.756c-0.269-0.622-0.698-1.284-1.392-1.97l-5.816-5.731
			c0,0-0.027-0.008-0.036-0.01l-0.514-0.508c0.248,0.037,0.402,0.086,0.402,0.086l-0.068-0.07l0.062,0.018l-7.669-7.604
			c-1.528-1.125-2.328-2.922-4.779-2.969c-1.582-0.023-2.597,0.754-3.638,1.736l-5.938,5.751v0.005
			c-0.003,0.014-0.118,0.523-0.091,1.217l-0.287,0.287c-0.024-0.695,0.089-1.205,0.094-1.219l-0.01,0.002l-0.734,0.739l-6.618,6.687
			h-0.231l0.752-0.743h-1.139l0.752-0.742h-10.35c-2.623,0-4.872,1.52-5.963,3.714h-0.101v-0.741l-0.387-0.743l-0.386-0.744
			l-0.39-0.743l-0.386-0.742h-3.99v9.329c0,0-3.586-5.427-4.125-6.338c-0.925-1.246-2.058-2.991-3.997-2.991h-1.259h-2.77v2.229
			l-0.155-0.744l-0.389-0.743l-0.386-0.742h-3.977c0,0-3.022-0.024-3.897,2.024c-0.594,1.401-1.496,3.852-2.015,5.279
			c-0.036-0.1-0.156-0.377-0.387-0.744c-0.04-0.104-0.159-0.377-0.384-0.738c-0.036-0.094-0.157-0.373-0.389-0.744
			c-0.036-0.1-0.157-0.378-0.389-0.747c-0.039-0.101-0.159-0.38-0.392-0.749c-0.041-0.108-0.161-0.377-0.38-0.728
			c-0.113-0.305-1.153-2.854-4.115-2.854h-4.014v13.238l0.387,0.743l0.386,0.743l0.388,0.743l0.388,0.743l0.385,0.741l0.388,0.742
			l0.385,0.741l0.388,0.743l0.388,0.744l0.385,0.742l0.388,0.743l0.386,0.742l0.388,0.744l0.388,0.743l0.385,0.741l0.388,0.742
			l0.387,0.743l0.387,0.742l0.387,0.741l0.389,0.744l0.385,0.743l0.389,0.743l0.384,0.743l0.389,0.743l0.387,0.74l0.387,0.743
			l0.387,0.743l0.389,0.744l0.384,0.739l0.389,0.744l0.387,0.742l0.387,0.743l0.387,0.744l0.389,0.741l0.384,0.743l0.389,0.742
			l0.387,0.743l0.387,0.743l0.387,0.741l0.387,0.743l0.389,0.743l0.386,0.742l0.387,0.744l0.387,0.742l0.389,0.743l0.385,0.741
			l0.389,0.743l0.384,0.743l0.389,0.743l0.387,0.742l0.246,0.47c-4.359,5.587-7.28,12.766-7.977,21.396
			c-0.154-0.238-0.315-0.473-0.481-0.704c-0.45-0.812-0.948-1.585-1.476-2.335c-0.453-0.808-0.948-1.578-1.472-2.324
			c-0.45-0.807-0.947-1.575-1.469-2.323c-0.452-0.81-0.951-1.578-1.471-2.328c-0.455-0.81-0.955-1.585-1.483-2.34
			c-0.453-0.808-0.951-1.573-1.472-2.324c-0.454-0.807-0.95-1.577-1.472-2.325c-0.454-0.808-0.95-1.578-1.472-2.324
			c-1.228-2.193-2.684-4.196-4.431-5.945c-5.988-5.988-15.424-9.449-28.493-9.449c-11.263,0-19.307,1.674-26.75,4.368v-1.376
			l-1.474-2.323l-1.472-2.328l-1.474-2.331l-1.475-2.326l-1.476-2.328l-1.47-2.328l-1.475-2.33l-1.474-2.328l-1.475-2.326
			l-1.473-2.326l-1.471-2.33l-1.475-2.326l-1.476-2.33l-1.474-2.328h-25.187v21.249l1.473,2.328l1.475,2.33l1.472,2.326l1.474,2.311
			h-5.262v26.456c-0.32-0.207-0.391-1.658-0.391-1.658c-0.662-0.445-1.471-2.328-1.471-2.328c-0.666-0.447-1.472-2.328-1.472-2.328
			c-0.666-0.448-1.475-2.33-1.475-2.33c-0.664-0.446-1.476-2.328-1.476-2.328c-0.661-0.443-1.472-2.328-1.472-2.328
			c-0.665-0.443-1.471-2.324-1.471-2.324c-0.666-0.447-1.475-2.328-1.475-2.328c-9.137-6.141-20.782-9.763-31.488-9.763
			c-17.006,0-30.856,9.604-30.856,26.765v0.314c0,5.563,1.568,9.849,4.072,13.253c0.424,0.777,0.897,1.517,1.409,2.214
			c0.445,0.837,0.951,1.614,1.493,2.36c0.437,0.814,0.931,1.58,1.462,2.308c0.44,0.821,0.936,1.592,1.47,2.324
			c0.443,0.825,0.941,1.601,1.477,2.335c0.442,0.822,0.937,1.596,1.477,2.33c0.44,0.823,0.936,1.594,1.474,2.328
			c0.439,0.818,0.935,1.59,1.472,2.321c0.44,0.823,0.938,1.599,1.475,2.333c0.441,0.82,0.937,1.592,1.474,2.328
			c0.438,0.816,0.934,1.587,1.47,2.319c0.125,0.236,0.264,0.464,0.399,0.693c-4.794-1.691-9.78-4.29-14.638-7.806l-10.239,15.74
			c0.663,0.525,1.473,2.331,1.473,2.331c0.666,0.524,1.475,2.325,1.475,2.325c0.666,0.525,1.473,2.331,1.473,2.331
			c0.663,0.522,1.475,2.328,1.475,2.328c0.663,0.522,1.473,2.328,1.473,2.328c0.666,0.525,1.475,2.326,1.475,2.326
			c0.666,0.522,1.474,2.33,1.474,2.33c0.665,0.525,1.474,2.326,1.474,2.326c0.664,0.525,1.473,2.328,1.473,2.328
			c0.666,0.525,1.474,2.328,1.474,2.328c0.667,0.522,1.473,2.328,1.473,2.328c0.666,0.522,1.474,2.328,1.474,2.328
			c0.664,0.523,1.476,2.328,1.476,2.328c0.664,0.525,1.473,2.328,1.473,2.328c0.665,0.521,1.472,2.326,1.472,2.326
			c0.666,0.525,1.474,2.328,1.474,2.328c0.664,0.525,1.476,2.328,1.476,2.328c0.663,0.525,1.475,2.331,1.475,2.331
			c0.663,0.522,1.472,2.325,1.472,2.325c0.665,0.525,1.472,2.328,1.472,2.328c0.664,0.525,1.475,2.328,1.475,2.328
			c0.663,0.525,1.475,2.329,1.475,2.329c0.664,0.522,1.472,2.325,1.472,2.325c0.656,0.518,1.444,2.264,1.468,2.318l0.025,0.024
			c0.66,0.519,1.348,0.966,2.018,1.45l-0.224,0.344l130.572,130.571C350.566,843.193,369.436,843.193,381.067,831.557z
			 M416.93,527.615l-0.044,0.044c-0.004-0.103-0.009-0.204-0.007-0.3C416.897,527.445,416.904,527.528,416.93,527.615z"/>
	</g>
	<line fill="none" x1="313.185" y1="547.615" x2="396.448" y2="658.516"/>
	<g>
		<path fill="#FFFFFF" d="M171.108,643.414l10.238-15.742c9.131,6.611,18.732,10.083,26.611,10.083
			c6.917,0,10.066-2.523,10.066-6.312v-0.307c0-5.195-8.189-6.926-17.474-9.759c-11.805-3.465-25.189-8.974-25.189-25.349v-0.312
			c0-17.166,13.851-26.765,30.861-26.765c10.703,0,22.347,3.619,31.482,9.763l-9.135,16.531c-8.345-4.891-16.68-7.871-22.823-7.871
			c-5.824,0-8.818,2.515-8.818,5.815v0.318c0,4.723,8.027,6.926,17.163,10.075c11.804,3.942,25.504,9.605,25.504,25.034v0.312
			c0,18.732-14.017,27.229-32.278,27.229C195.515,656.16,182.291,652.227,171.108,643.414z"/>
		<path fill="#FFFFFF" d="M247.773,539.668h25.193v21.252h-25.193V539.668z M248.407,570.217h23.925v84.374h-23.925V570.217z"/>
		<path fill="#FFFFFF" d="M280.356,630.346v-0.312c0-18.424,14.015-26.925,34.001-26.925c8.504,0,14.646,1.424,20.624,3.468v-1.41
			c0-9.92-6.137-15.434-18.103-15.434c-9.128,0-15.582,1.73-23.295,4.562l-5.986-18.255c9.29-4.093,18.421-6.775,32.749-6.775
			c13.071,0,22.511,3.467,28.494,9.451c6.289,6.291,9.125,15.579,9.125,26.913v48.962h-23.137v-9.124
			c-5.825,6.446-13.853,10.693-25.506,10.693C293.42,656.16,280.356,647.031,280.356,630.346z M335.303,624.841v-4.249
			c-4.093-1.89-9.449-3.147-15.273-3.147c-10.234,0-16.529,4.091-16.529,11.639v0.321c0,6.459,5.35,10.231,13.063,10.231
			C327.746,639.636,335.303,633.499,335.303,624.841z"/>
		<path fill="#FFFFFF" d="M369.613,671.279l8.191-17.943c8.653,4.877,17.318,7.708,28.493,7.708c16.37,0,24.092-7.869,24.092-22.989
			v-4.085c-7.099,8.501-14.811,13.693-27.562,13.693c-19.681,0-37.467-14.326-37.467-39.35v-0.318
			c0-25.191,18.116-39.358,37.467-39.358c13.066,0,20.783,5.518,27.231,12.601v-11.021h23.925v65.326
			c0,15.112-3.612,26.133-10.69,33.22c-7.878,7.864-20.003,11.329-36.373,11.329C393.22,680.092,380.321,676.941,369.613,671.279z
			 M430.39,608.313v-0.318c0-11.488-8.985-19.521-20.629-19.521c-11.655,0-20.468,8.032-20.468,19.521v0.318
			c0,11.642,8.812,19.515,20.468,19.515C421.404,627.828,430.39,619.803,430.39,608.313z"/>
		<path fill="#FFFFFF" d="M460.908,630.346v-0.312c0-18.424,14.02-26.925,34.007-26.925c8.508,0,14.645,1.424,20.628,3.468v-1.41
			c0-9.92-6.139-15.434-18.104-15.434c-9.129,0-15.579,1.73-23.303,4.562l-5.979-18.255c9.288-4.093,18.414-6.775,32.74-6.775
			c13.069,0,22.514,3.467,28.498,9.451c6.296,6.291,9.129,15.579,9.129,26.913v48.962h-23.133v-9.124
			c-5.831,6.446-13.859,10.693-25.515,10.693C473.981,656.16,460.908,647.031,460.908,630.346z M515.857,624.841v-4.249
			c-4.095-1.89-9.445-3.147-15.27-3.147c-10.231,0-16.532,4.091-16.532,11.639v0.321c0,6.459,5.351,10.231,13.069,10.231
			C508.3,639.636,515.857,633.499,515.857,624.841z"/>
	</g>
	<g>
		<g>
			<path fill="#FFFFFF" d="M427.627,539.387l6,5.95c0-0.006,0-0.006,0-0.012c1.821-1.801,2.939-4.284,2.939-7.032
				c0-2.729-1.103-5.197-2.903-6.994l-1.887,1.842l-4.095,4.059c0.254,0.284,0.416,0.657,0.416,1.066
				C428.098,538.701,427.915,539.102,427.627,539.387z"/>
			<path fill="#FFFFFF" d="M416.891,527.866c0.346,1.147,0.871,1.687,0.946,1.765l0.802,0.805c1.949-1.928,4.644-3.122,7.612-3.122
				c2.968,0,5.659,1.188,7.612,3.117c0.021,0.019,0.034,0.041,0.057,0.055l0.894-0.87c0.073-0.082,0.625-0.6,1.78-0.941
				c0.452-0.135,0.871-0.175,1.217-0.175c0.627,0,1.027,0.139,1.027,0.139l-0.068-0.07l0.062,0.02l-7.669-7.606
				c-1.527-1.121-2.328-2.923-4.779-2.965c-1.584-0.028-2.599,0.746-3.638,1.729l-5.938,5.755l0,0v0.009
				C416.802,525.523,416.516,526.621,416.891,527.866z"/>
			<path fill="#FFFFFF" d="M433.322,530.957c-1.812-1.785-4.309-2.893-7.071-2.893c-2.765,0-5.266,1.107-7.084,2.905l0.873,0.873
				l5.036,5.011c0.293-0.285,0.688-0.464,1.13-0.464c0.447,0,0.85,0.179,1.139,0.472c0.016,0.014,0.034,0.037,0.053,0.051
				l4.092-4.059l1.895-1.84c-0.014-0.01-0.025-0.026-0.036-0.035C433.338,530.97,433.329,530.965,433.322,530.957z"/>
			<path fill="#FFFFFF" d="M418.873,545.325c0.005,0.006,0.005,0.006,0.007,0.012l1.944-1.896l4.028-4.001
				c-0.322-0.288-0.522-0.705-0.527-1.174c0-0.44,0.182-0.838,0.469-1.123l-3.97-3.933l-1.068-1.08l-0.876-0.877
				c-0.002,0.005-0.002,0.005-0.007,0.01c-1.818,1.798-2.935,4.283-2.935,7.03C415.938,541.041,417.057,543.524,418.873,545.325z"/>
			<path fill="#FFFFFF" d="M407.601,541.883l5.834,5.768c0.128,0.038,1.107,0.316,2.292-0.032c1.148-0.344,1.696-0.856,1.775-0.936
				l0.842-0.825c-1.958-1.936-3.165-4.611-3.165-7.564c0-2.96,1.207-5.634,3.174-7.572l-0.803-0.81
				c-0.072-0.073-0.598-0.617-0.941-1.761c-0.379-1.244-0.093-2.34-0.086-2.36l-0.009,0.003l-0.734,0.74l-6.928,6.999
				c-1.138,1.52-2.951,2.311-2.997,4.741C405.832,539.844,406.616,540.846,407.601,541.883z"/>
			<path fill="#FFFFFF" d="M426.21,538.266"/>
			<path fill="#FFFFFF" d="M426.251,538.293"/>
			<path fill="#FFFFFF" d="M419.312,545.573l5.848-5.902c0,0,0.978,0.977,2.066-0.024l5.952,5.892c0,0-3.085,3.383-8.019,2.848
				C425.16,548.386,421.59,547.894,419.312,545.573z"/>
			<path fill="#FFFFFF" d="M414.006,547.98c0,0,2.478,0.769,4.749-1.847c0,0,3.524,4.142,10.111,2.677c0,0,2.48-0.553,4.92-2.677
				c0,0,2.573,1.98,1.753,4.796l-6.616,6.531c0,0-2.717,2.279-6.05-0.513l-8.867-8.864"/>
			<path fill="#FFFFFF" d="M438.985,529.071c0,0-2.501-0.844-4.722,1.649c0,0,4.638,4.472,2.419,11.015c0,0-0.553,2.278-2.583,4.131
				c0,0,2.328,1.73,1.869,4.828l9.812-9.896c0,0,2.265-2.792-0.979-6.002L438.985,529.071z"/>
		</g>
		<path fill="#FFFFFF" d="M447.414,531.714h3.472v10.34h6.214v2.983h-9.686V531.714z"/>
		<path fill="#FFFFFF" d="M458.032,531.714h3.474v13.323h-3.474V531.714z"/>
		<path fill="#FFFFFF" d="M462.438,531.714h9.815v2.782h-6.346v2.725h5.488v2.688h-5.488v5.129h-3.47V531.714z"/>
		<path fill="#FFFFFF" d="M473.19,531.714h10.617v2.782h-7.147v2.331h6.527v2.688h-6.527v2.539h7.332v2.983H473.19V531.714z"/>
		<g>
			<g>
				<g>
					<g>
						<path fill="#FFFFFF" d="M387.343,531.732v9.331c0,0-3.586-5.433-4.125-6.339c-0.925-1.25-2.06-2.992-3.997-2.992h-1.262
							h-2.767v13.238h4.028v-9.33c0,0,3.588,5.426,4.125,6.338c0.921,1.252,1.96,2.992,3.997,2.992h1.262h2.729v-13.238H387.343z"/>
						<path fill="#FFFFFF" d="M366.389,533.76c-0.871,2.046-2.419,6.399-2.419,6.399l-1.892-5.513c0,0-0.989-2.914-4.139-2.914
							h-4.014v13.238h4.014v-9.188c0,0,0.48,0.096,1.408,2.721c0.928,2.623,2.297,6.5,2.297,6.5h2.708c0,0,1.944-0.131,3.076-3.214
							l1.462-3.977c0,0,0.728-2.16,1.394-2.422v9.579h3.979v-13.238h-3.979C370.283,531.732,367.265,531.711,366.389,533.76z"/>
						<path fill="#FFFFFF" d="M406.005,541.566c-0.007-0.008-0.021-0.016-0.027-0.029h-6.189c-1.748,0-3.167-1.409-3.167-3.153
							c0-1.743,1.419-3.159,3.167-3.159h5.943c0.5-0.553,1.032-0.992,1.41-1.363l2.153-2.129h-10.35
							c-3.69,0-6.678,2.975-6.678,6.651c0,3.673,2.987,6.649,6.678,6.649h10.481L406.005,541.566z"/>
					</g>
				</g>
			</g>
		</g>
	</g>
</g>
<g>
	<g>
		<path fill="#808285" d="M80.81,239.958l4.608-6.558c2.777,2.895,7.09,5.376,12.525,5.376c4.667,0,6.854-2.068,6.854-4.372
			c0-6.854-22.688-2.068-22.688-16.897c0-6.558,5.672-11.994,14.948-11.994c6.263,0,11.462,1.891,15.361,5.495l-4.667,6.263
			c-3.19-2.954-7.444-4.313-11.462-4.313c-3.545,0-5.554,1.536-5.554,3.899c0,6.204,22.628,2.009,22.628,16.72
			c0,7.208-5.199,12.644-15.775,12.644C89.968,246.22,84.532,243.68,80.81,239.958z"/>
		<path fill="#808285" d="M122.521,245.511v-39.408h27.887v7.385h-19.497v8.271h19.083v7.385h-19.083v8.98h19.497v7.385H122.521z"/>
		<path fill="#808285" d="M160.157,245.511v-39.408h8.449v32.022h16.661v7.385H160.157z"/>
		<path fill="#808285" d="M221.72,245.511l-2.481-6.676h-16.897l-2.481,6.676h-9.512l15.184-39.408h10.517l15.184,39.408H221.72z
			 M210.79,214.493l-6.145,16.957h12.289L210.79,214.493z"/>
		<path fill="#808285" d="M272.708,245.511v-28.418L261.6,245.511h-3.663l-11.107-28.418v28.418h-8.39v-39.408h11.757l9.571,24.637
			l9.571-24.637h11.816v39.408H272.708z"/>
		<path fill="#808285" d="M319.737,245.511l-2.481-6.676h-16.897l-2.481,6.676h-9.512l15.184-39.408h10.517l15.184,39.408H319.737z
			 M308.807,214.493l-6.145,16.957h12.289L308.807,214.493z"/>
		<path fill="#808285" d="M341.774,245.511v-32.022h-11.521v-7.385h31.431v7.385h-11.461v32.022H341.774z"/>
		<path fill="#808285" d="M389.335,245.511v-39.408h15.539c12.348,0,20.914,7.858,20.914,19.674
			c0,11.935-8.566,19.733-20.855,19.733H389.335z M417.222,225.778c0-6.913-4.254-12.289-12.289-12.289h-7.208v24.637h7.149
			C412.673,238.126,417.222,232.513,417.222,225.778z"/>
		<path fill="#808285" d="M460.526,245.511l-2.48-6.676h-16.898l-2.48,6.676h-9.513l15.185-39.408h10.516l15.185,39.408H460.526z
			 M449.597,214.493l-6.145,16.957h12.289L449.597,214.493z"/>
		<path fill="#808285" d="M482.565,245.511v-32.022h-11.521v-7.385h31.432v7.385h-11.461v32.022H482.565z"/>
		<path fill="#808285" d="M534.853,245.511l-2.482-6.676h-16.896l-2.482,6.676h-9.512l15.184-39.408h10.518l15.184,39.408H534.853z
			 M523.922,214.493l-6.145,16.957h12.289L523.922,214.493z"/>
		<path fill="#808285" d="M578.75,245.511l-18.788-25.701v25.701h-8.39v-39.408h8.626l18.256,24.755v-24.755h8.391v39.408H578.75z"
			/>
		<path fill="#808285" d="M596.297,225.837c0-12.466,9.453-20.383,21.033-20.383c8.153,0,13.294,4.136,16.247,8.803l-6.912,3.781
			c-1.832-2.777-5.199-5.14-9.335-5.14c-7.208,0-12.407,5.495-12.407,12.939s5.199,12.939,12.407,12.939
			c3.485,0,6.735-1.536,8.331-3.013v-4.727h-10.398v-7.326h18.787v15.125c-4.018,4.49-9.63,7.385-16.72,7.385
			C605.75,246.22,596.297,238.244,596.297,225.837z"/>
	</g>
	<g>
		<g>
			<path fill="#808285" d="M213.79,307.614v-33.25h13.111c10.418,0,17.647,6.63,17.647,16.601c0,10.07-7.229,16.65-17.597,16.65
				H213.79z M237.319,290.964c0-5.833-3.589-10.369-10.369-10.369h-6.082v20.788h6.032
				C233.481,301.383,237.319,296.647,237.319,290.964z"/>
			<path fill="#808285" d="M251.575,307.614v-33.25h7.079v33.25H251.575z"/>
			<path fill="#808285" d="M305.013,307.614l-2.094-5.633h-14.257l-2.094,5.633h-8.026l12.812-33.25h8.873l12.812,33.25H305.013z
				 M295.791,281.443l-5.185,14.307h10.369L295.791,281.443z"/>
			<path fill="#808285" d="M318.122,307.614v-33.25h15.553c7.229,0,11.167,4.886,11.167,10.718c0,5.783-3.988,10.668-11.167,10.668
				h-8.474v11.864H318.122z M337.614,285.082c0-2.792-2.144-4.487-4.935-4.487h-7.478v8.923h7.478
				C335.47,289.519,337.614,287.824,337.614,285.082z"/>
			<path fill="#808285" d="M350.973,307.614v-33.25h7.128v27.019h14.058v6.231H350.973z"/>
			<path fill="#808285" d="M378.938,307.614v-33.25h7.079v33.25H378.938z"/>
			<path fill="#808285" d="M414.331,307.614l-10.07-13.36l-2.592,3.141v10.219h-7.079v-33.25h7.079v14.806l11.765-14.806h8.724
				l-13.21,15.604l14.107,17.647H414.331z"/>
			<path fill="#808285" d="M451.269,307.614l-2.094-5.633h-14.258l-2.094,5.633h-8.025l12.812-33.25h8.873l12.812,33.25H451.269z
				 M442.046,281.443l-5.185,14.307h10.369L442.046,281.443z"/>
			<path fill="#808285" d="M461.735,302.928l3.889-5.533c2.343,2.442,5.981,4.536,10.568,4.536c3.938,0,5.782-1.745,5.782-3.689
				c0-5.783-19.143-1.745-19.143-14.257c0-5.534,4.785-10.12,12.612-10.12c5.284,0,9.671,1.595,12.961,4.636l-3.938,5.284
				c-2.691-2.492-6.281-3.639-9.671-3.639c-2.991,0-4.686,1.296-4.686,3.291c0,5.234,19.093,1.695,19.093,14.107
				c0,6.082-4.387,10.668-13.311,10.668C469.462,308.212,464.876,306.069,461.735,302.928z"/>
			<path fill="#808285" d="M495.932,307.614v-33.25h7.079v33.25H495.932z"/>
		</g>
	</g>
</g>
</svg>
