<?xml version="1.0" encoding="utf-8"?>
<!-- Generator: Adobe Illustrator 16.0.0, SVG Export Plug-In . SVG Version: 6.00 Build 0)  -->
<!DOCTYPE svg PUBLIC "-//W3C//DTD SVG 1.1//EN" "http://www.w3.org/Graphics/SVG/1.1/DTD/svg11.dtd">
<svg version="1.1" id="Layer_1" xmlns="http://www.w3.org/2000/svg" xmlns:xlink="http://www.w3.org/1999/xlink" x="0px" y="0px"
	 width="720px" height="1000px" viewBox="0 0 720 1000" enable-background="new 0 0 720 1000" xml:space="preserve">
<g>
	<path fill="#ED1C24" d="M377.236,611.904c-9.518,9.52-24.954,9.52-34.474,0L175.601,444.744c-9.521-9.521-9.521-24.957,0-34.473
		l167.162-167.166c9.52-9.519,24.956-9.519,34.474,0l167.163,167.166c9.521,9.516,9.521,24.951,0,34.473L377.236,611.904z"/>
	<g>
		<linearGradient id="SVGID_2_" gradientUnits="userSpaceOnUse" x1="280.6719" y1="598.4258" x2="188.2629" y2="408.8072">
			<stop  offset="0" style="stop-color:#231F20;stop-opacity:0"/>
			<stop  offset="1" style="stop-color:#231F20"/>
		</linearGradient>
		<path opacity="0.3" fill="url(#SVGID_2_)" d="M234.454,503.602c0.005,0.004,0.011,0.008,0.018,0.012l-0.021-0.02L234.454,503.602z
			"/>
		<path fill="none" d="M233.25,501.697c0,0-0.662-1.476-1.204-1.903c0,0-0.665-1.475-1.208-1.905c0,0-0.663-1.476-1.207-1.905
			c0,0-0.659-1.475-1.203-1.905c0,0-0.662-1.475-1.205-1.903c0,0-0.664-1.477-1.206-1.906c0,0-0.663-1.475-1.208-1.905
			c0,0-0.662-1.475-1.205-1.905c0,0-0.661-1.477-1.205-1.902c0,0-0.663-1.475-1.205-1.905c0,0-0.664-1.477-1.207-1.905
			c0,0-0.66-1.477-1.206-1.905c0,0-0.659-1.477-1.205-1.904c0,0-0.661-1.475-1.205-1.905c0,0-0.662-1.475-1.206-1.905
			c0,0-0.662-1.473-1.205-1.902c0,0-0.661-1.479-1.207-1.907c0,0-0.66-1.474-1.205-1.903c0,0-0.662-1.477-1.205-1.904
			c0,0-0.665-1.477-1.205-1.905c0,0-0.661-1.477-1.206-1.907c0,0-0.662-1.474-1.206-1.903c0,0-0.664-1.477-1.204-1.907l8.376-12.878
			c3.975,2.876,8.054,5.002,11.977,6.387c-0.111-0.188-0.226-0.374-0.327-0.568c-0.439-0.599-0.845-1.229-1.203-1.897
			c-0.439-0.603-0.845-1.234-1.205-1.905c-0.439-0.601-0.847-1.234-1.207-1.908c-0.44-0.599-0.845-1.229-1.204-1.899
			c-0.441-0.601-0.845-1.232-1.205-1.905c-0.441-0.601-0.847-1.233-1.209-1.907c-0.438-0.601-0.846-1.234-1.208-1.91
			c-0.438-0.599-0.843-1.229-1.203-1.901c-0.435-0.595-0.839-1.222-1.196-1.888c-0.441-0.61-0.857-1.246-1.222-1.931
			c-0.42-0.571-0.806-1.175-1.153-1.812c-2.047-2.784-3.33-6.291-3.33-10.842v-0.257c0-14.04,11.33-21.897,25.243-21.897
			c8.759,0,18.287,2.963,25.761,7.988c0,0,0.662,1.539,1.208,1.905c0,0,0.658,1.539,1.202,1.901c0,0,0.664,1.542,1.205,1.905
			c0,0,0.664,1.54,1.207,1.905c0,0,0.661,1.54,1.207,1.906c0,0,0.661,1.539,1.205,1.905c0,0,0.662,1.54,1.203,1.905
			c0,0,0.058,1.187,0.32,1.355v-21.644h4.304l-1.205-1.89l-1.206-1.903l-1.205-1.907l-1.205-1.904v-17.385h20.605l1.207,1.905
			l1.207,1.906l1.206,1.903l1.204,1.907l1.204,1.903l1.206,1.902l1.207,1.905l1.206,1.907l1.204,1.904l1.207,1.905l1.207,1.903
			l1.205,1.906l1.204,1.905l1.205,1.901v1.125c6.09-2.205,12.671-3.573,21.886-3.573c10.693,0,18.412,2.831,23.311,7.73
			c1.43,1.431,2.621,3.069,3.625,4.864c0.427,0.611,0.832,1.241,1.204,1.901c0.427,0.612,0.834,1.243,1.204,1.903
			c0.428,0.613,0.834,1.24,1.205,1.9c0.432,0.618,0.84,1.252,1.213,1.914c0.424,0.614,0.834,1.243,1.203,1.905
			c0.427,0.612,0.834,1.24,1.201,1.901c0.429,0.61,0.834,1.241,1.205,1.901c0.432,0.614,0.838,1.247,1.206,1.91
			c0.136,0.189,0.269,0.382,0.395,0.577c0.569-7.061,2.959-12.933,6.525-17.504l-0.201-0.384l-0.316-0.607l-0.317-0.608
			l-0.314-0.607l-0.317-0.608l-0.315-0.606l-0.317-0.608l-0.316-0.607l-0.316-0.608l-0.316-0.608l-0.317-0.608l-0.316-0.608
			l-0.316-0.606l-0.316-0.607l-0.316-0.608l-0.317-0.607l-0.315-0.608l-0.317-0.607l-0.316-0.608l-0.316-0.608l-0.316-0.607
			l-0.317-0.608l-0.315-0.606l-0.317-0.608l-0.316-0.608l-0.316-0.608l-0.315-0.605l-0.318-0.608l-0.314-0.607l-0.318-0.608
			l-0.313-0.608l-0.318-0.608l-0.316-0.607l-0.316-0.607l-0.317-0.608l-0.316-0.607l-0.316-0.606l-0.316-0.608l-0.317-0.608
			l-0.315-0.607l-0.317-0.608l-0.314-0.607l-0.318-0.608l-0.316-0.608l-0.316-0.606l-0.316-0.608l-0.316-0.606l-0.314-0.608
			l-0.319-0.607l-0.315-0.609l-0.317-0.608v-10.83h3.285c2.425,0,3.274,2.085,3.367,2.334c0.178,0.288,0.277,0.507,0.311,0.595
			c0.19,0.302,0.288,0.531,0.32,0.613c0.189,0.302,0.288,0.53,0.317,0.61c0.189,0.304,0.289,0.532,0.318,0.609
			c0.185,0.296,0.281,0.519,0.314,0.604c0.188,0.3,0.287,0.527,0.316,0.609c0.424-1.168,1.162-3.172,1.647-4.319
			c0.717-1.676,3.188-1.656,3.188-1.656h3.253l0.316,0.607l0.319,0.608l0.126,0.608v-1.823h2.267h1.029
			c1.587,0,2.513,1.427,3.27,2.447c0.441,0.746,3.374,5.186,3.374,5.186v-7.632h3.265l0.316,0.607l0.318,0.608l0.316,0.608
			l0.316,0.608v0.606h0.081c0.893-1.794,2.733-3.038,4.879-3.038h8.468l-0.616,0.607h0.933l-0.616,0.608h0.19l5.415-5.47
			l0.601-0.604l0.008-0.002c-0.004,0.011-0.098,0.429-0.077,0.997l0.235-0.235c-0.022-0.566,0.072-0.984,0.073-0.995v-0.004
			l4.858-4.705c0.853-0.804,1.683-1.44,2.978-1.421c2.005,0.039,2.659,1.509,3.909,2.429l6.274,6.221l-0.051-0.015l0.057,0.058
			c0,0-0.127-0.041-0.33-0.071l0.421,0.416c0.008,0.001,0.029,0.007,0.029,0.007l4.758,4.689c0.568,0.561,0.92,1.103,1.14,1.612
			c0.131,0.212,0.233,0.417,0.319,0.618c0.131,0.205,0.229,0.404,0.312,0.599c0.133,0.21,0.235,0.415,0.32,0.615
			c0.019,0.03,0.032,0.056,0.049,0.086v-6.055h2.839l0.316,0.608l0.316,0.605l0.315,0.608l0.316,0.608l0.316,0.608l0.317,0.607
			l0.316,0.608l0.316,0.607l0.318,0.608l0.314,0.606l0.317,0.609l0.316,0.607l0.316,0.606v0.561h0.97v0.607h0.315v0.606h0.316v0.609
			h0.132v-10.281h2.843l0.313,0.608l0.32,0.605l0.127,0.608v-1.822h8.03l0.316,0.608l0.317,0.605l0.133,0.608v-1.822h8.686
			l0.314,0.608l0.32,0.605l0.313,0.608l0.316,0.608l0.319,0.608l0.316,0.607l0.313,0.608l0.319,0.607l0.314,0.608l0.316,0.606
			l0.316,0.609l0.317,0.607l0.316,0.606l0.316,0.608l0.316,0.607l0.316,0.608l0.319,0.608l0.313,0.607l0.317,0.608l0.316,0.607
			l0.316,0.606l0.316,0.608l0.317,0.608l0.315,0.606l0.317,0.607l0.316,0.608l0.316,0.607l0.316,0.608l0.317,0.608l0.314,0.608
			l0.318,0.607l0.316,0.606l0.315,0.607l0.316,0.608l0.318,0.606l0.314,0.608l0.318,0.608l0.316,0.607l0.315,0.608l0.316,0.607
			l0.318,0.609l0.315,0.608l0.316,0.606l0.316,0.607l0.316,0.608l0.319,0.607l0.313,0.606l0.317,0.608l0.315,0.608l0.317,0.608
			l0.188,0.362c9.641,0.339,16.704,3.111,21.28,7.694c1.436,1.432,2.629,3.073,3.633,4.872c0.429,0.612,0.833,1.238,1.206,1.898
			c0.422,0.612,0.828,1.237,1.201,1.898c0.427,0.617,0.839,1.25,1.212,1.917c0.427,0.61,0.832,1.241,1.201,1.897
			c0.431,0.618,0.84,1.252,1.212,1.916c0.422,0.608,0.827,1.234,1.198,1.886c0.43,0.622,0.84,1.255,1.215,1.921
			c0.422,0.61,0.826,1.235,1.196,1.894c0.429,0.614,0.832,1.241,1.205,1.901c0.429,0.618,0.841,1.25,1.212,1.916
			c0.426,0.614,0.838,1.241,1.203,1.901c0.428,0.614,0.837,1.245,1.204,1.907c0.426,0.608,0.832,1.235,1.199,1.892
			c0.432,0.617,0.845,1.253,1.219,1.921c0.426,0.61,0.832,1.239,1.198,1.896c0.43,0.614,0.839,1.248,1.209,1.911
			c0.43,0.612,0.833,1.24,1.203,1.9c0.431,0.614,0.838,1.245,1.209,1.911c0.427,0.608,0.831,1.235,1.198,1.893
			c0.433,0.615,0.841,1.249,1.213,1.916c0.427,0.61,0.834,1.237,1.201,1.896c0.43,0.614,0.839,1.247,1.212,1.911
			c0.426,0.613,0.833,1.24,1.201,1.898c0.432,0.616,0.837,1.247,1.207,1.911c0.329,0.471,0.643,0.958,0.939,1.457l12.252-12.253
			c9.521-9.521,9.521-24.957,0-34.473L377.236,243.105c-9.518-9.519-24.954-9.519-34.474,0L175.601,410.271
			c-9.521,9.516-9.521,24.951,0,34.473l58.85,58.85C234.431,503.549,233.786,502.12,233.25,501.697z"/>
		<path fill="none" d="M406.576,363.243c-0.021-0.071-0.026-0.139-0.042-0.21c-0.001,0.079,0.002,0.162,0.006,0.246L406.576,363.243
			z"/>
		<path fill="none" d="M234.472,503.613l1.466,1.469l0.185-0.283C235.574,504.403,235.011,504.037,234.472,503.613z"/>
		<linearGradient id="SVGID_4_" gradientUnits="userSpaceOnUse" x1="524.084" y1="776.0078" x2="310.0245" y2="336.7687">
			<stop  offset="0" style="stop-color:#231F20;stop-opacity:0"/>
			<stop  offset="1" style="stop-color:#231F20"/>
		</linearGradient>
		<path opacity="0.3" fill="url(#SVGID_4_)" d="M377.236,611.904l154.911-154.908c-0.297-0.498-0.61-0.985-0.939-1.457
			c-0.37-0.664-0.775-1.295-1.207-1.911c-0.368-0.658-0.775-1.285-1.201-1.898c-0.373-0.664-0.782-1.297-1.212-1.911
			c-0.367-0.659-0.774-1.286-1.201-1.896c-0.372-0.667-0.78-1.301-1.213-1.916c-0.367-0.658-0.771-1.285-1.198-1.893
			c-0.371-0.666-0.778-1.297-1.209-1.911c-0.37-0.66-0.773-1.289-1.203-1.9c-0.37-0.663-0.779-1.297-1.209-1.911
			c-0.366-0.657-0.772-1.286-1.198-1.896c-0.374-0.668-0.787-1.304-1.219-1.921c-0.367-0.657-0.773-1.284-1.199-1.892
			c-0.367-0.662-0.776-1.293-1.204-1.907c-0.365-0.661-0.777-1.287-1.203-1.901c-0.371-0.666-0.783-1.298-1.212-1.916
			c-0.373-0.66-0.776-1.288-1.205-1.901c-0.37-0.658-0.774-1.283-1.196-1.894c-0.375-0.666-0.785-1.3-1.215-1.921
			c-0.371-0.652-0.776-1.278-1.198-1.886c-0.372-0.664-0.781-1.298-1.212-1.916c-0.369-0.656-0.774-1.287-1.201-1.897
			c-0.373-0.668-0.785-1.3-1.212-1.917c-0.373-0.661-0.779-1.286-1.201-1.898c-0.373-0.66-0.777-1.287-1.206-1.898
			c-1.004-1.799-2.197-3.44-3.633-4.872c-4.576-4.583-11.64-7.355-21.28-7.694l-0.188-0.362l-0.317-0.608l-0.315-0.608l-0.317-0.608
			l-0.313-0.606l-0.319-0.607l-0.316-0.608l-0.316-0.607l-0.316-0.606l-0.315-0.608l-0.318-0.609l-0.316-0.607l-0.315-0.608
			l-0.316-0.607l-0.318-0.608l-0.314-0.608l-0.318-0.606l-0.316-0.608l-0.315-0.607l-0.316-0.606l-0.318-0.607l-0.314-0.608
			l-0.317-0.608l-0.316-0.608l-0.316-0.607l-0.316-0.608l-0.317-0.607l-0.315-0.606l-0.317-0.608l-0.316-0.608l-0.316-0.606
			l-0.316-0.607l-0.317-0.608l-0.313-0.607l-0.319-0.608l-0.316-0.608l-0.316-0.607l-0.316-0.608l-0.316-0.606l-0.317-0.607
			l-0.316-0.609l-0.316-0.606l-0.314-0.608l-0.319-0.607l-0.313-0.608l-0.316-0.607l-0.319-0.608l-0.316-0.608l-0.313-0.608
			l-0.32-0.605l-0.314-0.608h-8.686v1.822l-0.133-0.608l-0.317-0.605l-0.316-0.608h-8.03v1.822l-0.127-0.608l-0.32-0.605
			l-0.313-0.608h-2.843v10.281h-0.132v-0.609h-0.316v-0.606h-0.315v-0.607h-0.97v-0.561l-0.316-0.606l-0.316-0.607l-0.317-0.609
			l-0.314-0.606l-0.318-0.608l-0.316-0.607l-0.316-0.608l-0.317-0.607l-0.316-0.608l-0.316-0.608l-0.315-0.608l-0.316-0.605
			l-0.316-0.608h-2.839v6.055c-0.017-0.03-0.03-0.056-0.049-0.086c-0.085-0.2-0.188-0.404-0.32-0.615
			c-0.083-0.195-0.181-0.395-0.312-0.599c-0.086-0.201-0.188-0.406-0.319-0.618c-0.22-0.509-0.571-1.051-1.14-1.612l-4.758-4.689
			c0,0-0.021-0.006-0.029-0.007l-0.421-0.416c0.203,0.031,0.33,0.071,0.33,0.071l-0.057-0.058l0.051,0.015l-6.274-6.221
			c-1.25-0.92-1.904-2.391-3.909-2.429c-1.295-0.019-2.125,0.617-2.978,1.421l-4.858,4.705v0.004
			c-0.001,0.011-0.096,0.429-0.073,0.995l-0.235,0.235c-0.021-0.568,0.073-0.986,0.077-0.997l-0.008,0.002l-0.601,0.604l-5.415,5.47
			h-0.19l0.616-0.608h-0.933l0.616-0.607h-8.468c-2.146,0-3.986,1.243-4.879,3.038h-0.081v-0.606l-0.316-0.608l-0.316-0.608
			l-0.318-0.608l-0.316-0.607h-3.265v7.632c0,0-2.933-4.44-3.374-5.186c-0.757-1.02-1.683-2.447-3.27-2.447h-1.029h-2.267v1.823
			l-0.126-0.608l-0.319-0.608l-0.316-0.607h-3.253c0,0-2.472-0.02-3.188,1.656c-0.485,1.147-1.224,3.151-1.647,4.319
			c-0.029-0.082-0.128-0.309-0.316-0.609c-0.033-0.084-0.13-0.308-0.314-0.604c-0.029-0.077-0.129-0.305-0.318-0.609
			c-0.029-0.081-0.128-0.308-0.317-0.61c-0.032-0.083-0.13-0.311-0.32-0.613c-0.033-0.088-0.133-0.308-0.311-0.595
			c-0.093-0.249-0.942-2.334-3.367-2.334h-3.285v10.83l0.317,0.608l0.315,0.609l0.319,0.607l0.314,0.608l0.316,0.606l0.316,0.608
			l0.316,0.606l0.316,0.608l0.318,0.608l0.314,0.607l0.317,0.608l0.315,0.607l0.317,0.608l0.316,0.608l0.316,0.606l0.316,0.607
			l0.317,0.608l0.316,0.607l0.316,0.607l0.318,0.608l0.313,0.608l0.318,0.608l0.314,0.607l0.318,0.608l0.315,0.605l0.316,0.608
			l0.316,0.608l0.317,0.608l0.315,0.606l0.317,0.608l0.316,0.607l0.316,0.608l0.316,0.608l0.317,0.607l0.315,0.608l0.317,0.607
			l0.316,0.608l0.316,0.607l0.316,0.606l0.316,0.608l0.317,0.608l0.316,0.608l0.316,0.608l0.316,0.607l0.317,0.608l0.315,0.606
			l0.317,0.608l0.314,0.607l0.317,0.608l0.316,0.607l0.201,0.384c-3.566,4.571-5.956,10.444-6.525,17.504
			c-0.126-0.195-0.259-0.387-0.395-0.577c-0.368-0.664-0.774-1.296-1.206-1.91c-0.371-0.66-0.776-1.291-1.205-1.901
			c-0.367-0.661-0.774-1.289-1.201-1.901c-0.369-0.662-0.779-1.292-1.203-1.905c-0.373-0.662-0.781-1.296-1.213-1.914
			c-0.371-0.66-0.777-1.287-1.205-1.9c-0.37-0.661-0.777-1.292-1.204-1.903c-0.372-0.66-0.777-1.291-1.204-1.901
			c-1.004-1.794-2.195-3.433-3.625-4.864c-4.898-4.899-12.617-7.73-23.311-7.73c-9.215,0-15.796,1.369-21.886,3.573v-1.125
			l-1.205-1.901l-1.204-1.905l-1.205-1.906l-1.207-1.903l-1.207-1.905l-1.204-1.904l-1.206-1.907l-1.207-1.905l-1.206-1.902
			l-1.204-1.903l-1.204-1.907l-1.206-1.903l-1.207-1.906l-1.207-1.905h-20.605v17.385l1.205,1.904l1.205,1.907l1.206,1.903
			l1.205,1.89h-4.304v21.644c-0.263-0.169-0.32-1.355-0.32-1.355c-0.541-0.365-1.203-1.905-1.203-1.905
			c-0.544-0.367-1.205-1.905-1.205-1.905c-0.546-0.366-1.207-1.906-1.207-1.906c-0.543-0.365-1.207-1.905-1.207-1.905
			c-0.541-0.363-1.205-1.905-1.205-1.905c-0.544-0.362-1.202-1.901-1.202-1.901c-0.546-0.366-1.208-1.905-1.208-1.905
			c-7.474-5.024-17.002-7.988-25.761-7.988c-13.913,0-25.243,7.858-25.243,21.897v0.257c0,4.552,1.283,8.058,3.33,10.842
			c0.348,0.637,0.733,1.241,1.153,1.812c0.364,0.685,0.78,1.32,1.222,1.931c0.357,0.667,0.762,1.293,1.196,1.888
			c0.36,0.671,0.765,1.302,1.203,1.901c0.362,0.676,0.77,1.31,1.208,1.91c0.362,0.674,0.768,1.306,1.209,1.907
			c0.36,0.673,0.764,1.304,1.205,1.905c0.359,0.669,0.764,1.3,1.204,1.899c0.36,0.674,0.768,1.308,1.207,1.908
			c0.36,0.671,0.766,1.302,1.205,1.905c0.358,0.667,0.764,1.298,1.203,1.897c0.102,0.194,0.216,0.379,0.327,0.568
			c-3.923-1.385-8.002-3.51-11.977-6.387l-8.376,12.878c0.54,0.43,1.204,1.907,1.204,1.907c0.544,0.429,1.206,1.903,1.206,1.903
			c0.545,0.43,1.206,1.907,1.206,1.907c0.54,0.428,1.205,1.905,1.205,1.905c0.543,0.427,1.205,1.904,1.205,1.904
			c0.545,0.43,1.205,1.903,1.205,1.903c0.546,0.428,1.207,1.907,1.207,1.907c0.543,0.43,1.205,1.902,1.205,1.902
			c0.544,0.43,1.206,1.905,1.206,1.905c0.544,0.43,1.205,1.905,1.205,1.905c0.546,0.428,1.205,1.904,1.205,1.904
			c0.546,0.428,1.206,1.905,1.206,1.905c0.543,0.428,1.207,1.905,1.207,1.905c0.542,0.43,1.205,1.905,1.205,1.905
			c0.544,0.425,1.205,1.902,1.205,1.902c0.543,0.43,1.205,1.905,1.205,1.905c0.545,0.43,1.208,1.905,1.208,1.905
			c0.542,0.429,1.206,1.906,1.206,1.906c0.543,0.428,1.205,1.903,1.205,1.903c0.544,0.43,1.203,1.905,1.203,1.905
			c0.544,0.429,1.207,1.905,1.207,1.905c0.543,0.43,1.208,1.905,1.208,1.905c0.542,0.428,1.204,1.903,1.204,1.903
			c0.536,0.423,1.181,1.852,1.2,1.896l0.021,0.02c0.539,0.424,1.103,0.79,1.65,1.186l-0.185,0.283l106.825,106.822
			C352.282,621.424,367.719,621.424,377.236,611.904z M406.576,363.243l-0.036,0.036c-0.004-0.084-0.007-0.167-0.006-0.246
			C406.55,363.104,406.555,363.171,406.576,363.243z"/>
	</g>
	<line fill="none" x1="321.7" y1="379.605" x2="389.819" y2="470.335"/>
	<g>
		<path fill="#FFFFFF" d="M205.464,457.981l8.375-12.88c7.47,5.409,15.325,8.25,21.771,8.25c5.659,0,8.235-2.064,8.235-5.164v-0.251
			c0-4.25-6.699-5.666-14.295-7.984c-9.658-2.834-20.608-7.342-20.608-20.738v-0.254c0-14.044,11.332-21.897,25.248-21.897
			c8.757,0,18.282,2.961,25.757,7.987l-7.475,13.525c-6.827-4.001-13.646-6.439-18.671-6.439c-4.765,0-7.214,2.057-7.214,4.758v0.26
			c0,3.863,6.566,5.666,14.04,8.242c9.657,3.226,20.867,7.859,20.867,20.481v0.255c0,15.325-11.468,22.276-26.408,22.276
			C225.431,468.408,214.612,465.19,205.464,457.981z"/>
		<path fill="#FFFFFF" d="M268.186,373.104h20.61v17.386h-20.61V373.104z M268.703,398.096h19.574v69.028h-19.574V398.096z"/>
		<path fill="#FFFFFF" d="M294.842,447.289v-0.255c0-15.072,11.467-22.027,27.817-22.027c6.957,0,11.982,1.164,16.873,2.837v-1.153
			c0-8.116-5.021-12.626-14.81-12.626c-7.468,0-12.749,1.415-19.06,3.731l-4.897-14.935c7.601-3.349,15.072-5.543,26.793-5.543
			c10.694,0,18.416,2.836,23.312,7.732c5.145,5.146,7.464,12.746,7.464,22.019v40.057h-18.929v-7.464
			c-4.765,5.273-11.334,8.748-20.866,8.748C305.529,468.408,294.842,460.939,294.842,447.289z M339.795,442.786v-3.477
			c-3.349-1.546-7.729-2.574-12.496-2.574c-8.372,0-13.522,3.346-13.522,9.522v0.262c0,5.285,4.378,8.37,10.688,8.37
			C333.613,454.889,339.795,449.869,339.795,442.786z"/>
		<path fill="#FFFFFF" d="M367.865,480.778l6.701-14.681c7.08,3.99,14.169,6.306,23.312,6.306c13.393,0,19.709-6.438,19.709-18.808
			v-3.342c-5.808,6.955-12.116,11.203-22.548,11.203c-16.102,0-30.652-11.721-30.652-32.193v-0.26
			c0-20.61,14.82-32.201,30.652-32.201c10.689,0,17.003,4.515,22.278,10.309v-9.016h19.574v53.444
			c0,12.364-2.956,21.38-8.747,27.178c-6.444,6.434-16.365,9.269-29.758,9.269C387.178,487.988,376.625,485.41,367.865,480.778z
			 M417.587,429.264v-0.26c0-9.399-7.351-15.971-16.876-15.971c-9.535,0-16.746,6.572-16.746,15.971v0.26
			c0,9.524,7.211,15.965,16.746,15.965C410.236,445.229,417.587,438.664,417.587,429.264z"/>
		<path fill="#FFFFFF" d="M442.556,447.289v-0.255c0-15.072,11.469-22.027,27.821-22.027c6.961,0,11.98,1.164,16.877,2.837v-1.153
			c0-8.116-5.022-12.626-14.812-12.626c-7.469,0-12.745,1.415-19.065,3.731l-4.892-14.935c7.599-3.349,15.064-5.543,26.786-5.543
			c10.691,0,18.419,2.836,23.314,7.732c5.149,5.146,7.467,12.746,7.467,22.019v40.057h-18.924v-7.464
			c-4.771,5.273-11.339,8.748-20.874,8.748C453.251,468.408,442.556,460.939,442.556,447.289z M487.51,442.786v-3.477
			c-3.35-1.546-7.726-2.574-12.492-2.574c-8.37,0-13.524,3.346-13.524,9.522v0.262c0,5.285,4.377,8.37,10.691,8.37
			C481.328,454.889,487.51,449.869,487.51,442.786z"/>
	</g>
	<g>
		<g>
			<path fill="#FFFFFF" d="M415.327,372.874l4.909,4.867c0-0.004,0-0.004,0-0.009c1.489-1.474,2.404-3.505,2.404-5.754
				c0-2.231-0.901-4.252-2.375-5.721l-1.544,1.506l-3.351,3.32c0.209,0.232,0.341,0.538,0.341,0.873
				C415.712,372.312,415.562,372.64,415.327,372.874z"/>
			<path fill="#FFFFFF" d="M406.544,363.448c0.283,0.938,0.712,1.38,0.773,1.443l0.657,0.659c1.594-1.578,3.798-2.554,6.227-2.554
				s4.631,0.973,6.229,2.55c0.016,0.015,0.028,0.034,0.047,0.045l0.73-0.712c0.061-0.067,0.512-0.491,1.457-0.771
				c0.369-0.11,0.712-0.142,0.994-0.142c0.514,0,0.841,0.113,0.841,0.113l-0.056-0.058l0.05,0.016l-6.273-6.223
				c-1.251-0.917-1.905-2.391-3.91-2.426c-1.296-0.023-2.126,0.611-2.977,1.415l-4.858,4.708l0,0v0.007
				C406.472,361.531,406.237,362.43,406.544,363.448z"/>
			<path fill="#FFFFFF" d="M419.987,365.977c-1.483-1.46-3.525-2.366-5.786-2.366s-4.308,0.906-5.796,2.376l0.715,0.714l4.12,4.1
				c0.24-0.234,0.564-0.38,0.925-0.38c0.366,0,0.695,0.146,0.932,0.386c0.013,0.012,0.027,0.03,0.043,0.041l3.348-3.32l1.55-1.505
				c-0.011-0.008-0.021-0.021-0.03-0.029C419.999,365.987,419.992,365.983,419.987,365.977z"/>
			<path fill="#FFFFFF" d="M408.166,377.732c0.004,0.005,0.004,0.005,0.005,0.009l1.591-1.551l3.296-3.273
				c-0.264-0.236-0.428-0.578-0.432-0.961c0-0.36,0.149-0.686,0.384-0.919l-3.248-3.217l-0.875-0.884l-0.716-0.718
				c-0.001,0.004-0.001,0.004-0.005,0.008c-1.488,1.471-2.402,3.504-2.402,5.751C405.764,374.227,406.68,376.258,408.166,377.732z"
				/>
			<path fill="#FFFFFF" d="M398.943,374.916l4.772,4.718c0.104,0.032,0.906,0.259,1.875-0.026c0.939-0.281,1.389-0.701,1.453-0.766
				l0.688-0.675c-1.602-1.583-2.589-3.772-2.589-6.189c0-2.421,0.987-4.609,2.596-6.195l-0.656-0.662
				c-0.06-0.06-0.489-0.505-0.77-1.441c-0.311-1.017-0.076-1.914-0.071-1.931l-0.008,0.003l-0.601,0.604l-5.667,5.726
				c-0.932,1.244-2.415,1.891-2.451,3.879C397.495,373.247,398.138,374.067,398.943,374.916z"/>
			<path fill="#FFFFFF" d="M414.168,371.956"/>
			<path fill="#FFFFFF" d="M414.201,371.978"/>
			<path fill="#FFFFFF" d="M408.524,377.935l4.784-4.829c0,0,0.8,0.799,1.691-0.02l4.869,4.82c0,0-2.523,2.768-6.561,2.33
				C413.309,380.236,410.388,379.833,408.524,377.935z"/>
			<path fill="#FFFFFF" d="M404.184,379.905c0,0,2.026,0.628,3.886-1.512c0,0,2.883,3.389,8.272,2.191c0,0,2.029-0.452,4.024-2.191
				c0,0,2.104,1.621,1.435,3.924l-5.414,5.343c0,0-2.222,1.865-4.949-0.419l-7.254-7.251"/>
			<path fill="#FFFFFF" d="M424.619,364.434c0,0-2.045-0.69-3.862,1.349c0,0,3.794,3.659,1.979,9.012c0,0-0.453,1.863-2.113,3.379
				c0,0,1.904,1.416,1.529,3.95l8.028-8.096c0,0,1.853-2.284-0.802-4.91L424.619,364.434z"/>
		</g>
		<path fill="#FFFFFF" d="M431.516,366.596h2.84v8.458h5.084v2.441h-7.924V366.596z"/>
		<path fill="#FFFFFF" d="M440.202,366.596h2.843v10.9h-2.843V366.596z"/>
		<path fill="#FFFFFF" d="M443.808,366.596h8.029v2.276h-5.192v2.229h4.491v2.199h-4.491v4.196h-2.837V366.596z"/>
		<path fill="#FFFFFF" d="M452.604,366.596h8.688v2.276h-5.849v1.908h5.34v2.198h-5.34v2.077h5.998v2.441h-8.837V366.596z"/>
		<g>
			<g>
				<g>
					<g>
						<path fill="#FFFFFF" d="M382.37,366.611v7.634c0,0-2.935-4.445-3.375-5.187c-0.756-1.022-1.685-2.448-3.271-2.448h-1.032
							h-2.264v10.831h3.296v-7.633c0,0,2.936,4.439,3.375,5.185c0.753,1.024,1.604,2.448,3.271,2.448h1.032h2.231v-10.831H382.37z"
							/>
						<path fill="#FFFFFF" d="M365.228,368.27c-0.713,1.674-1.979,5.236-1.979,5.236l-1.549-4.511c0,0-0.808-2.384-3.385-2.384
							h-3.284v10.831h3.284v-7.517c0,0,0.393,0.079,1.152,2.227c0.759,2.146,1.878,5.317,1.878,5.317h2.216
							c0,0,1.59-0.107,2.517-2.63l1.195-3.253c0,0,0.597-1.767,1.141-1.981v7.837h3.256v-10.831h-3.256
							C368.413,366.611,365.943,366.593,365.228,368.27z"/>
						<path fill="#FFFFFF" d="M397.638,374.657c-0.006-0.006-0.017-0.013-0.022-0.024h-5.063c-1.431,0-2.59-1.154-2.59-2.58
							c0-1.426,1.159-2.585,2.59-2.585h4.862c0.41-0.452,0.844-0.812,1.153-1.115l1.762-1.742h-8.467
							c-3.019,0-5.464,2.434-5.464,5.442c0,3.005,2.445,5.439,5.464,5.439h8.575L397.638,374.657z"/>
					</g>
				</g>
			</g>
		</g>
	</g>
</g>
<g>
	<g>
		<path fill="#808285" d="M295.213,167.855l-1.471-3.956h-10.01l-1.471,3.956h-5.636l8.996-23.348h6.23l8.996,23.348H295.213z
			 M288.737,149.479l-3.64,10.046h7.28L288.737,149.479z"/>
		<path fill="#808285" d="M305.115,167.855v-23.348h10.922c5.076,0,7.841,3.431,7.841,7.526c0,4.061-2.8,7.491-7.841,7.491h-5.951
			v8.331H305.115z M318.803,152.034c0-1.96-1.506-3.15-3.466-3.15h-5.251v6.266h5.251
			C317.297,155.149,318.803,153.959,318.803,152.034z"/>
		<path fill="#808285" d="M328.881,167.855v-23.348h5.006v18.972h9.871v4.375H328.881z"/>
		<path fill="#808285" d="M349.215,167.855v-23.348h4.971v23.348H349.215z"/>
		<path fill="#808285" d="M374.767,167.855l-7.071-9.381l-1.82,2.205v7.176h-4.97v-23.348h4.97v10.396l8.262-10.396h6.125
			l-9.275,10.957l9.905,12.391H374.767z"/>
		<path fill="#808285" d="M401.401,167.855l-1.471-3.956H389.92l-1.471,3.956h-5.635l8.995-23.348h6.231l8.996,23.348H401.401z
			 M394.926,149.479l-3.641,10.046h7.28L394.926,149.479z"/>
		<path fill="#808285" d="M409.449,164.565l2.73-3.885c1.645,1.715,4.2,3.186,7.421,3.186c2.765,0,4.06-1.225,4.06-2.59
			c0-4.061-13.441-1.225-13.441-10.011c0-3.885,3.36-7.105,8.856-7.105c3.71,0,6.791,1.12,9.101,3.255l-2.765,3.71
			c-1.891-1.75-4.411-2.555-6.791-2.555c-2.101,0-3.29,0.91-3.29,2.311c0,3.675,13.406,1.19,13.406,9.906
			c0,4.271-3.08,7.491-9.346,7.491C414.875,168.275,411.654,166.771,409.449,164.565z"/>
		<path fill="#808285" d="M434.16,167.855v-23.348h4.971v23.348H434.16z"/>
	</g>
</g>
<g>
	<g>
		<g>
			<path fill="#58595B" d="M265.186,716.683c0-10.044,7.398-16.904,16.807-16.904c5.781,0,9.799,2.744,12.395,6.468l-3.381,1.911
				c-1.861-2.793-5.291-4.753-9.014-4.753c-7.154,0-12.592,5.438-12.592,13.278c0,7.741,5.438,13.277,12.592,13.277
				c3.723,0,7.152-2.009,9.014-4.752l3.43,1.861c-2.742,3.772-6.662,6.517-12.443,6.517
				C272.584,733.586,265.186,726.727,265.186,716.683z"/>
			<path fill="#58595B" d="M314.283,732.998v-2.694c-1.912,2.155-4.656,3.282-7.84,3.282c-3.969,0-8.232-2.694-8.232-7.839
				c0-5.341,4.215-7.791,8.232-7.791c3.234,0,5.928,1.029,7.84,3.185v-4.263c0-3.136-2.549-4.948-5.979-4.948
				c-2.842,0-5.145,0.98-7.252,3.283l-1.715-2.548c2.549-2.646,5.586-3.92,9.457-3.92c5.047,0,9.162,2.254,9.162,7.986v16.267
				H314.283z M314.283,728v-4.507c-1.422-1.911-3.92-2.891-6.469-2.891c-3.479,0-5.879,2.155-5.879,5.145
				c0,3.037,2.4,5.193,5.879,5.193C310.363,730.94,312.861,729.96,314.283,728z"/>
			<path fill="#58595B" d="M325.357,732.998v-23.665h3.676v3.772c1.91-2.449,4.654-4.312,7.887-4.312v3.772
				c-0.439-0.049-0.881-0.098-1.42-0.098c-2.303,0-5.389,1.862-6.467,3.772v16.757H325.357z"/>
			<path fill="#58595B" d="M356.324,732.998v-2.694c-1.912,2.155-4.656,3.282-7.84,3.282c-3.969,0-8.232-2.694-8.232-7.839
				c0-5.341,4.215-7.791,8.232-7.791c3.234,0,5.928,1.029,7.84,3.185v-4.263c0-3.136-2.549-4.948-5.979-4.948
				c-2.842,0-5.145,0.98-7.252,3.283l-1.715-2.548c2.549-2.646,5.586-3.92,9.457-3.92c5.047,0,9.162,2.254,9.162,7.986v16.267
				H356.324z M356.324,728v-4.507c-1.422-1.911-3.92-2.891-6.469-2.891c-3.479,0-5.879,2.155-5.879,5.145
				c0,3.037,2.4,5.193,5.879,5.193C352.404,730.94,354.902,729.96,356.324,728z"/>
			<path fill="#58595B" d="M380.236,732.998v-32.681h14.551c5.684,0,9.164,3.43,9.164,8.33c0,4.115-2.744,6.859-5.734,7.496
				c3.48,0.539,6.371,4.115,6.371,8.035c0,5.242-3.479,8.819-9.457,8.819H380.236z M399.736,709.235c0-2.94-1.959-5.292-5.635-5.292
				h-9.799v10.534h9.799C397.777,714.478,399.736,712.224,399.736,709.235z M400.373,723.738c0-2.989-2.057-5.635-6.025-5.635
				h-10.045v11.269h10.045C398.119,729.372,400.373,727.217,400.373,723.738z"/>
			<path fill="#58595B" d="M409.539,721.141c0-6.859,4.898-12.396,11.66-12.396c7.154,0,11.367,5.586,11.367,12.689v0.932h-19.107
				c0.293,4.458,3.381,8.182,8.477,8.182c2.742,0,5.438-1.077,7.348-3.037l1.766,2.4c-2.402,2.352-5.586,3.675-9.408,3.675
				C414.586,733.586,409.539,728.539,409.539,721.141z M421.15,711.783c-5.047,0-7.545,4.263-7.74,7.839h15.531
				C428.893,716.144,426.541,711.783,421.15,711.783z"/>
			<path fill="#58595B" d="M438.498,732.998v-32.681h3.674v32.681H438.498z"/>
			<path fill="#58595B" d="M448.885,703.503c0-1.372,1.127-2.499,2.498-2.499c1.373,0,2.451,1.127,2.451,2.499
				c0,1.371-1.078,2.449-2.451,2.449C450.012,705.952,448.885,704.874,448.885,703.503z M449.521,732.998v-23.665h3.676v23.665
				H449.521z"/>
			<path fill="#ED1C24" d="M86.043,779.798l-1.617-4.703H71.539l-1.615,4.703h-9.555l12.297-32.681H83.25l12.348,32.681H86.043z
				 M77.959,755.447l-4.166,12.298h8.33L77.959,755.447z"/>
			<path fill="#ED1C24" d="M96.432,775.192l4.459-6.32c2.352,2.352,5.979,4.312,10.436,4.312c2.891,0,4.656-1.127,4.656-2.695
				c0-4.458-18.521-0.882-18.521-13.474c0-5.487,4.654-10.387,13.033-10.387c5.242,0,9.799,1.567,13.277,4.557l-4.605,6.026
				c-2.744-2.254-6.32-3.381-9.555-3.381c-2.449,0-3.527,0.979-3.527,2.352c0,4.165,18.473,1.127,18.473,13.278
				c0,6.565-4.852,10.926-13.621,10.926C104.32,780.386,99.715,778.328,96.432,775.192z"/>
			<path fill="#ED1C24" d="M129.457,766.569v-19.452h8.574v19.158c0,3.87,2.303,6.663,6.908,6.663c4.508,0,6.859-2.793,6.859-6.663
				v-19.158h8.525v19.402c0,8.134-4.949,13.866-15.385,13.866C134.406,780.386,129.457,774.604,129.457,766.569z"/>
			<path fill="#ED1C24" d="M185.414,779.798l-5.488-10.975h-4.311v10.975h-8.428v-32.681h16.365c7.25,0,11.367,4.802,11.367,10.878
				c0,5.683-3.48,8.721-6.518,9.799l6.664,12.004H185.414z M186.346,757.945c0-2.204-1.863-3.479-4.068-3.479h-6.662v7.007h6.662
				C184.482,761.474,186.346,760.248,186.346,757.945z"/>
			<path fill="#ED1C24" d="M222.75,779.798l-1.617-4.703h-12.885l-1.617,4.703h-9.555l12.299-32.681h10.582l12.348,32.681H222.75z
				 M214.666,755.447l-4.164,12.298h8.328L214.666,755.447z"/>
			<path fill="#ED1C24" d="M257.932,779.798l-13.816-18.912v18.912h-8.428v-32.681h8.674l13.229,17.981v-17.981h8.477v32.681
				H257.932z"/>
			<path fill="#ED1C24" d="M270.576,775.192l4.459-6.32c2.352,2.352,5.977,4.312,10.436,4.312c2.891,0,4.654-1.127,4.654-2.695
				c0-4.458-18.52-0.882-18.52-13.474c0-5.487,4.654-10.387,13.031-10.387c5.244,0,9.801,1.567,13.279,4.557l-4.605,6.026
				c-2.744-2.254-6.32-3.381-9.555-3.381c-2.449,0-3.527,0.979-3.527,2.352c0,4.165,18.471,1.127,18.471,13.278
				c0,6.565-4.85,10.926-13.621,10.926C278.465,780.386,273.859,778.328,270.576,775.192z"/>
			<path fill="#ED1C24" d="M303.602,779.798v-32.681h8.428v32.681H303.602z"/>
			<path fill="#ED1C24" d="M351.619,779.798l-8.574-12.298l-2.205,2.743v9.555h-8.428v-32.681h8.428v13.425l10.045-13.425h10.387
				l-12.689,15.287l13.375,17.394H351.619z"/>
			<path fill="#ED1C24" d="M365.438,779.798v-32.681h23.959v7.35h-15.531v5.096h15.189v7.35h-15.189v5.536h15.531v7.35H365.438z"/>
			<path fill="#ED1C24" d="M393.613,763.482c0-10.094,7.643-16.904,17.688-16.904c7.889,0,12.102,4.459,14.258,8.771l-7.252,3.43
				c-1.078-2.597-3.869-4.752-7.006-4.752c-5.34,0-9.113,4.115-9.113,9.456s3.773,9.456,9.113,9.456
				c3.137,0,5.928-2.156,7.006-4.753l7.252,3.43c-2.107,4.214-6.369,8.771-14.258,8.771
				C401.256,780.386,393.613,773.526,393.613,763.482z"/>
			<path fill="#ED1C24" d="M430.166,779.798v-32.681h23.959v7.35h-15.531v5.096h15.188v7.35h-15.188v5.536h15.531v7.35H430.166z"/>
			<path fill="#ED1C24" d="M460.006,779.798v-32.681h8.428v25.331h13.131v7.35H460.006z"/>
			<path fill="#ED1C24" d="M509.102,779.798l-1.617-4.703H494.6l-1.617,4.703h-9.555l12.299-32.681h10.582l12.348,32.681H509.102z
				 M501.018,755.447l-4.164,12.298h8.328L501.018,755.447z"/>
			<path fill="#ED1C24" d="M541.246,779.798l-8.574-12.298l-2.205,2.743v9.555h-8.428v-32.681h8.428v13.425l10.045-13.425h10.387
				l-12.689,15.287l13.375,17.394H541.246z"/>
			<path fill="#ED1C24" d="M577.26,779.798l-1.617-4.703h-12.885l-1.617,4.703h-9.555l12.299-32.681h10.582l12.348,32.681H577.26z
				 M569.176,755.447l-4.164,12.298h8.328L569.176,755.447z"/>
			<path fill="#ED1C24" d="M612.393,779.798l-1.617-4.703h-12.885l-1.617,4.703h-9.555l12.299-32.681H609.6l12.348,32.681H612.393z
				 M604.309,755.447l-4.164,12.298h8.328L604.309,755.447z"/>
			<path fill="#ED1C24" d="M647.574,779.798l-13.816-18.912v18.912h-8.428v-32.681h8.672l13.229,17.981v-17.981h8.477v32.681
				H647.574z"/>
			<path fill="#58595B" d="M204.305,821.992l2.449-3.136c2.107,2.449,5.635,4.703,10.24,4.703c5.83,0,7.691-3.136,7.691-5.684
				c0-8.427-19.354-3.724-19.354-15.385c0-5.389,4.803-9.113,11.27-9.113c4.949,0,8.82,1.715,11.562,4.606l-2.449,2.988
				c-2.449-2.744-5.879-3.92-9.457-3.92c-3.869,0-6.711,2.107-6.711,5.194c0,7.349,19.354,3.136,19.354,15.335
				c0,4.704-3.234,9.604-12.053,9.604C211.213,827.186,206.998,825.03,204.305,821.992z"/>
			<path fill="#58595B" d="M233.459,814.74c0-6.859,4.898-12.396,11.66-12.396c7.154,0,11.367,5.586,11.367,12.689v0.932h-19.107
				c0.293,4.458,3.381,8.182,8.477,8.182c2.742,0,5.438-1.077,7.348-3.037l1.766,2.4c-2.402,2.352-5.586,3.675-9.408,3.675
				C238.506,827.186,233.459,822.139,233.459,814.74z M245.07,805.383c-5.047,0-7.545,4.263-7.74,7.839h15.531
				C252.812,809.743,250.461,805.383,245.07,805.383z"/>
			<path fill="#58595B" d="M261.045,814.74c0-7.006,4.754-12.396,11.809-12.396c4.312,0,6.859,1.764,8.672,4.115l-2.449,2.205
				c-1.568-2.155-3.576-3.038-6.027-3.038c-4.996,0-8.182,3.871-8.182,9.113c0,5.243,3.186,9.163,8.182,9.163
				c2.451,0,4.459-0.98,6.027-3.087l2.449,2.254c-1.812,2.352-4.359,4.115-8.672,4.115
				C265.799,827.186,261.045,821.747,261.045,814.74z"/>
			<path fill="#58595B" d="M301.518,826.598v-2.694c-1.91,2.155-4.654,3.282-7.84,3.282c-3.969,0-8.23-2.694-8.23-7.839
				c0-5.341,4.213-7.791,8.23-7.791c3.234,0,5.93,1.029,7.84,3.185v-4.263c0-3.136-2.547-4.948-5.977-4.948
				c-2.842,0-5.145,0.98-7.252,3.283l-1.715-2.548c2.547-2.646,5.586-3.92,9.457-3.92c5.045,0,9.162,2.254,9.162,7.986v16.267
				H301.518z M301.518,821.6v-4.507c-1.42-1.911-3.92-2.891-6.467-2.891c-3.479,0-5.881,2.155-5.881,5.145
				c0,3.037,2.402,5.193,5.881,5.193C297.598,824.54,300.098,823.56,301.518,821.6z"/>
			<path fill="#58595B" d="M312.594,826.598v-23.665h3.674v3.772c1.91-2.449,4.654-4.312,7.889-4.312v3.772
				c-0.441-0.049-0.883-0.098-1.422-0.098c-2.303,0-5.389,1.862-6.467,3.772v16.757H312.594z"/>
			<path fill="#58595B" d="M343.559,826.598v-2.694c-1.91,2.155-4.654,3.282-7.84,3.282c-3.969,0-8.23-2.694-8.23-7.839
				c0-5.341,4.213-7.791,8.23-7.791c3.234,0,5.93,1.029,7.84,3.185v-4.263c0-3.136-2.547-4.948-5.977-4.948
				c-2.842,0-5.145,0.98-7.252,3.283l-1.715-2.548c2.547-2.646,5.586-3.92,9.457-3.92c5.045,0,9.162,2.254,9.162,7.986v16.267
				H343.559z M343.559,821.6v-4.507c-1.42-1.911-3.92-2.891-6.467-2.891c-3.479,0-5.881,2.155-5.881,5.145
				c0,3.037,2.402,5.193,5.881,5.193C339.639,824.54,342.139,823.56,343.559,821.6z"/>
			<path fill="#58595B" d="M366.883,826.598v-32.681h15.287c7.105,0,10.975,4.802,10.975,10.534c0,5.684-3.918,10.485-10.975,10.485
				h-8.328v11.661H366.883z M386.041,804.451c0-2.743-2.107-4.409-4.85-4.409h-7.35v8.771h7.35
				C383.934,808.812,386.041,807.146,386.041,804.451z"/>
			<path fill="#58595B" d="M397.361,826.598v-23.665h6.223v3.185c1.715-2.058,4.605-3.772,7.545-3.772v6.075
				c-0.439-0.098-0.979-0.146-1.715-0.146c-2.057,0-4.801,1.176-5.83,2.694v15.63H397.361z"/>
			<path fill="#58595B" d="M429.211,826.598v-2.499c-1.617,1.96-4.41,3.087-7.498,3.087c-3.771,0-8.182-2.548-8.182-7.839
				c0-5.586,4.41-7.644,8.182-7.644c3.186,0,5.93,1.028,7.498,2.891v-2.989c0-2.4-2.059-3.969-5.195-3.969
				c-2.498,0-4.85,0.98-6.809,2.793l-2.451-4.36c2.891-2.597,6.615-3.724,10.338-3.724c5.439,0,10.389,2.155,10.389,8.966v15.287
				H429.211z M429.211,820.914v-2.939c-1.029-1.372-2.99-2.107-4.998-2.107c-2.449,0-4.459,1.323-4.459,3.577
				s2.01,3.527,4.459,3.527C426.221,822.972,428.182,822.286,429.211,820.914z"/>
			<path fill="#58595B" d="M456.945,826.598l-6.271-9.113l-2.842,3.038v6.075h-6.223v-32.681h6.223v19.55l8.965-10.534h7.645
				l-9.359,10.73l9.652,12.935H456.945z"/>
			<path fill="#58595B" d="M469.146,820.669v-12.298h-3.92v-5.438h3.92v-6.468h6.223v6.468h4.801v5.438h-4.801v10.632
				c0,1.52,0.783,2.646,2.156,2.646c0.93,0,1.812-0.344,2.154-0.735l1.324,4.753c-0.932,0.833-2.598,1.519-5.193,1.519
				C471.449,827.186,469.146,824.932,469.146,820.669z"/>
			<path fill="#58595B" d="M483.846,796.661c0-2.058,1.666-3.675,3.676-3.675c2.057,0,3.723,1.617,3.723,3.675
				s-1.666,3.724-3.723,3.724C485.512,800.385,483.846,798.719,483.846,796.661z M484.434,826.598v-23.665h6.223v23.665H484.434z"/>
			<path fill="#58595B" d="M494.773,823.511l2.693-4.508c1.764,1.666,5.242,3.283,8.184,3.283c2.693,0,3.969-1.029,3.969-2.499
				c0-3.87-14.014-0.686-14.014-9.995c0-3.969,3.43-7.447,9.701-7.447c3.969,0,7.154,1.372,9.506,3.233l-2.5,4.41
				c-1.42-1.47-4.115-2.744-7.006-2.744c-2.254,0-3.725,0.98-3.725,2.303c0,3.479,14.062,0.539,14.062,10.094
				c0,4.36-3.723,7.545-10.289,7.545C501.24,827.186,497.271,825.813,494.773,823.511z"/>
		</g>
	</g>
	<g>
		<g>
			<g>
				<g>
					<g>
						<path fill="#EF3940" d="M542.073,840.323c0.266,0.095,0.264-0.696,0.321-0.833
							C541.915,839.617,542.061,840.527,542.073,840.323z"/>
						<polygon fill="#EF3940" points="537.364,841.644 537.479,841.332 536.73,842.049 						"/>
						<path fill="#EF3940" d="M533.165,841.203c0.261,1.377,1.543-0.062,2.243,0.49l0.091,0.315l0.452-1.039
							C535.021,841.047,533.768,841.642,533.165,841.203z"/>
						<path fill="#EF3940" d="M531.199,838.085c0.09,0.534-0.53,0.398,0.51,0.217c-0.045-0.062-0.057-0.097-0.082-0.142
							C531.535,838.158,531.409,838.144,531.199,838.085z"/>
						<path fill="#EF3940" d="M531.627,838.16C532.076,838.167,531.377,837.692,531.627,838.16L531.627,838.16z"/>
						<path fill="#EF3940" d="M529.542,838.25l0.629-0.405c-0.094-0.32-0.61-0.442-0.396-0.646
							C529.148,837.393,529.246,837.71,529.542,838.25z"/>
						<path fill="#EF3940" d="M528.898,839.17l0.321-0.166C529.178,838.869,529.102,838.816,528.898,839.17z"/>
						<path fill="#EF3940" d="M529.901,838.654l-0.682,0.35c0.065,0.225,0.035,0.658,0.309-0.12
							C529.44,839.274,529.602,838.906,529.901,838.654z"/>
						<path fill="#EF3940" d="M530.246,838.895c0.303,0.324,0.708,0.55,0.078,0.953C531.46,839.776,531.385,838.82,530.246,838.895z
							"/>
						<path fill="#EF3940" d="M532.812,842.563l0.396,0.436l0.422-0.409C533.42,842.792,532.827,842.143,532.812,842.563z"/>
						<path fill="#EF3940" d="M525.945,837.188c-0.06,0.28,0.135,0.779,0.148,1.147l0.46-0.283
							C526.348,837.835,525.94,837.612,525.945,837.188z"/>
						<path fill="#EF3940" d="M526.094,838.335l-0.687,0.423C525.98,838.875,526.105,838.653,526.094,838.335z"/>
						<polygon fill="#EF3940" points="528.662,840.644 529.814,839.725 528.457,840.638 						"/>
						<polygon fill="#EF3940" points="523.465,836.982 523.884,836.346 523.151,837.301 						"/>
						<path fill="#EF3940" d="M521.81,836.996c0.312-0.53-0.308-0.947,0.005-1.267c-0.456,0.07-0.872,0.517-1.245,0.916
							C520.951,836.434,521.338,836.518,521.81,836.996z"/>
						<path fill="#EF3940" d="M519.949,837.226c0.191-0.12,0.396-0.344,0.62-0.58C520.366,836.761,520.162,836.93,519.949,837.226z"
							/>
						<path fill="#EF3940" d="M524.314,838.549c-0.036-0.175-0.098-0.632-0.447-0.846l0.193,0.817
							C524.138,838.529,524.226,838.539,524.314,838.549z"/>
						<path fill="#EF3940" d="M524.067,838.548l-0.007-0.027c-0.275-0.039-0.466-0.066-0.548-0.078
							C523.583,838.456,523.75,838.487,524.067,838.548z"/>
						<path fill="#EF3940" d="M524.379,838.557c-0.023-0.003-0.041-0.005-0.064-0.008
							C524.333,838.629,524.346,838.656,524.379,838.557z"/>
						<path fill="#EF3940" d="M527.035,839.748c-0.418,0.41-1.245,0.811-0.54,1.57C526.812,840.798,526.408,840.364,527.035,839.748
							z"/>
						<path fill="#EF3940" d="M524.616,839.578l0.672,0.226c0.004-0.212-0.096-0.531,0.11-0.738L524.616,839.578z"/>
						<polygon fill="#EF3940" points="524.26,839.812 524.616,839.578 524.367,839.494 						"/>
						<path fill="#EF3940" d="M521.078,838.049c-0.322,0.33-0.649,0.34-1.021,0.373c0.383,0.183,0.784,0.292,1.17,0.314
							C521.3,838.487,521.503,838.046,521.078,838.049z"/>
						<path fill="#EF3940" d="M522.526,838.361c-0.022,0.018-0.049,0.024-0.069,0.042
							C522.492,838.474,522.523,838.497,522.526,838.361z"/>
						<path fill="#EF3940" d="M516.441,838.194c0.016,0.048,0.032,0.1,0.049,0.15c0.008-0.048,0.015-0.092,0.022-0.139
							L516.441,838.194z"/>
						<path fill="#EF3940" d="M521.283,838.89c0.284,0.173,0.476-0.013,0.662-0.249c-0.228,0.066-0.466,0.105-0.718,0.096
							C521.195,838.849,521.186,838.924,521.283,838.89z"/>
						<path fill="#EF3940" d="M518.913,837.538c0.144,0.178,0.309,0.33,0.483,0.473
							C519.264,837.748,518.981,837.332,518.913,837.538z"/>
						<path fill="#EF3940" d="M522.373,838.175c0.016-0.013,0.03-0.025,0.047-0.032
							C522.336,837.963,522.342,838.049,522.373,838.175z"/>
						<path fill="#EF3940" d="M522.373,838.175c-0.161,0.107-0.295,0.297-0.428,0.466c0.185-0.053,0.357-0.129,0.512-0.237
							C522.424,838.344,522.394,838.255,522.373,838.175z"/>
						<path fill="#EF3940" d="M515.046,843.279c0.094-0.741,0.907-1.381,1.523-0.543c0.688-0.517,0.416-2.989-0.079-4.392
							c-0.04,0.322-0.059,0.622-0.763,1.021c0.214,0.42,1.445,1.042,0.833,1.68c-0.918,0.327-0.718-0.309-1.13-0.729
							c0.314,0.949-1.218,1.279-1.1,2.653l0.81-0.432C515.144,842.75,514.84,843.072,515.046,843.279z"/>
						<path fill="#EF3940" d="M517.781,838.499l0.285-0.074c-0.311-0.15-0.52-0.461-0.904-1.068
							c-0.489,0.334-0.603,0.604-0.649,0.85l1.371,0.188L517.781,838.499z"/>
						<path fill="#EF3940" d="M519.323,838.498c-0.272,0.796-0.965,1.1-0.612,1.998c0.82-0.004,0.618-0.639,1.131-0.96
							c-1.336,0.119,0.411-0.427-0.515-0.944c0.27-0.121,0.507-0.149,0.73-0.17c-0.231-0.112-0.454-0.248-0.661-0.411
							c0.011,0.021,0.019,0.034,0.027,0.052l0.007-0.002c-0.001,0.006-0.002,0.008-0.003,0.012c0.051,0.105,0.065,0.168,0.005,0.104
							c-0.005,0.011-0.021,0.014-0.028,0.015c-0.017,0.112-0.048,0.21-0.081,0.303c-0.372-0.19-0.046-0.214,0.081-0.303
							c0.007-0.038,0.02-0.075,0.023-0.119l-0.004-0.01l-1.357,0.362C518.341,838.554,518.693,838.553,519.323,838.498z"/>
						<path fill="#EF3940" d="M525.65,842.985c-0.035-0.075-0.028-0.133-0.026-0.192
							C525.531,842.885,525.493,842.948,525.65,842.985z"/>
						<path fill="#EF3940" d="M525.15,842.441c0.104-0.102,0.21-0.417,0.514-0.303c0.25,0.271-0.033,0.388-0.04,0.654
							c0.204-0.195,0.702-0.513,0.147-0.966l-0.102,0.102c-0.506-0.342-1.11-1.379-1.008-1.487
							C524.759,841.18,524.855,841.702,525.15,842.441z"/>
						<path fill="#EF3940" d="M522.195,840.675l-1.128,0.328l0.509,0.734l0.002-0.422
							C522.191,841.519,522.094,840.992,522.195,840.675z"/>
						<polygon fill="#EF3940" points="516.339,837.785 516.538,836.938 515.826,838.106 						"/>
						<polygon fill="#EF3940" points="514.896,837.798 514.991,837.058 514.586,837.483 						"/>
						<path fill="#EF3940" d="M434.66,848.5l-0.301,0.235C434.505,848.659,434.596,848.581,434.66,848.5z"/>
						<path fill="#EF3940" d="M436.975,848.365l0.027-0.37C436.911,848.204,436.879,848.356,436.975,848.365z"/>
						<path fill="#EF3940" d="M479.581,837.112c-0.481-0.691-1.026-1.767-0.958-0.931l0.156,0.815
							C479.108,836.85,479.363,836.939,479.581,837.112z"/>
						<path fill="#EF3940" d="M455.69,842.764c0.048,0.077,0.1,0.158,0.15,0.239c0.099-0.286,0.19-0.553,0.275-0.798
							C455.987,842.375,455.842,842.564,455.69,842.764z"/>
						<path fill="#EF3940" d="M455.538,846.155l-0.643-0.49C455.044,845.84,455.251,846.005,455.538,846.155z"/>
						<path fill="#EF3940" d="M422.146,850.553l-0.284,0.863C422.441,851.354,422.144,850.963,422.146,850.553z"/>
						<path fill="#EF3940" d="M500.159,837.488c-0.4-0.329-0.723-0.472-1.007-0.519
							C499.633,837.451,500.012,838.164,500.159,837.488z"/>
						<path fill="#EF3940" d="M434.847,839.796c-0.186,0.163-0.257,0.336-0.235,0.517
							C434.803,840.156,434.905,839.992,434.847,839.796z"/>
						<path fill="#EF3940" d="M497.971,836.941c0.07,0.083,0.14,0.127,0.212,0.197c0.302-0.129,0.605-0.23,0.97-0.169
							C498.797,836.61,498.384,836.385,497.971,836.941z"/>
						<path fill="#EF3940" d="M376.611,856.098c-0.039-0.031-0.082-0.041-0.119-0.078
							C376.501,856.13,376.548,856.128,376.611,856.098z"/>
						<path fill="#EF3940" d="M361.877,850.447c0.122-0.075,0.336-0.123,0.536-0.172
							C362.304,850.239,362.14,850.278,361.877,850.447z"/>
						<path fill="#EF3940" d="M509.127,837.088C509.435,837.053,509.179,837.001,509.127,837.088L509.127,837.088z"/>
						<path fill="#EF3940" d="M510.457,840.403c-0.068,0.087-0.123,0.2-0.14,0.39C510.352,840.597,510.399,840.475,510.457,840.403z
							"/>
						<path fill="#EF3940" d="M494.85,841.939l-0.026-0.002C494.91,842.1,494.896,842.068,494.85,841.939z"/>
						<path fill="#EF3940" d="M509.569,837.486c-0.11-0.106-0.238-0.198-0.38-0.266C509.25,837.288,509.365,837.374,509.569,837.486
							z"/>
						<path fill="#EF3940" d="M509.524,837.098c0.104,0.043,0.186,0.068,0.264,0.095
							C509.832,837.059,509.803,836.972,509.524,837.098z"/>
						<path fill="#EF3940" d="M508.699,837.104c0.176-0.001,0.337,0.047,0.49,0.116c-0.057-0.06-0.08-0.107-0.062-0.133
							C509.036,837.095,508.91,837.104,508.699,837.104z"/>
						<path fill="#EF3940" d="M400.626,850.229c-0.023-0.021-0.048-0.035-0.074-0.067
							C400.296,850.539,400.421,850.467,400.626,850.229z"/>
						<path fill="#EF3940" d="M471.87,845.733c0.014-0.009,0.021-0.03,0.033-0.04c-0.015-0.009-0.032-0.02-0.045-0.028
							L471.87,845.733z"/>
						<path fill="#EF3940" d="M470.809,846.377c0.432-1.031,0.696-0.914,1.05-0.712l-0.419-2.34L470.809,846.377z"/>
						<path fill="#EF3940" d="M429.153,849.212l0.821,0.654c-0.797,1.293-1.49,0.944-0.689,1.901
							c-0.131-2.564,2.896-0.548,2.774-3.083l0.545,0.495c-0.145-0.013-0.154,0.138-0.297,0.125
							c1.073,1.141,0.556-1.898,1.837-1.636c0.452,0.159,0.787,0.505,0.516,0.831l0.916-0.708c0.286,0.027,0.254,0.474-0.03,0.449
							l1.461-0.322l-0.005,0.076c0.178-0.417,0.606-1.072,0.819-1.354c0.405,0.334-0.167,0.283-0.046,0.595l0.771-0.684
							c0.386,0.634-0.242,1.329-0.814,1.279c0.967,2.481,0.628-0.696,2.394,0.656l-0.747,0.387c0.609,1.404,1.171,0.833,2.108,1.664
							c-0.24-0.454-1.917-2.13-1.079-2.837c0.266,0.173,0.602,0.238,1.042-0.313c0.072,0.905,0.523,0.646,1.104,0.547l0.048,1.204
							c0.606-0.397,0.512-1.005,0.846-1.575c0.714,0.062,0.926,0.98,1.146,1.75c1.14,0.101-0.884-1.428,0.436-1.762
							c0.972,0.402,1.597-0.124,2.676-0.908c0.686,0.375-0.067,0.742,0.191,1.07l0.521-0.99c0.145,0.015,0.117,0.312,0.104,0.461
							c0.468-0.4-0.036-1.202,0.718-1.574c0.128-1.334,1.708,1.843,2.575,0.285c0.256,0.327-0.071,0.742,0.028,1.203
							c1.256-1.062,1.083-0.781,2.089-2.171l0.964,0.736c-0.725-0.863,0.08-1.98,0.795-2.901c-0.264-0.422-0.489-0.792-0.638-0.966
							l1.181-0.715c0.157,0.188,0.056,0.608-0.117,1.122c0.078-0.104,0.151-0.207,0.208-0.301c0.457,0.419,0.267,1.126-0.009,1.814
							c-0.157-0.236-0.317-0.479-0.475-0.716c-0.262,0.747-0.498,1.571-0.398,2.271c0.071-0.143,0.216-0.271,0.378-0.348
							c-0.067,0.203-0.107,0.383-0.065,0.501c0.048,0.124,0.16-0.149,0.342-0.467l0.343,1.323l0.039-0.536l1.62,0.748
							c1.062-1.416,1.954-3.466,3.735-4.066c-0.405,0.998-0.027,1.608-0.002,2.774c-0.544-1.211-1.368,0.556-2.308,0.362
							c0.491,0.102,0.41,0.662,0.296,0.863l1.606-1.183c0.004,0.953,0.384,0.703,0.833,1.083c-0.407-1.872,1.184-1.295,1.837-1.894
							c0.065,0.63-0.07,1.28-0.899,1.155c0.963,1.389,1.088-2.249,2.027-1.074c-0.201,0.021-0.312-0.071-0.381,0.252
							c0.449-0.577,1.615-0.17,1.364,0.391l-0.2,0.02c1.343,0.179,4.062-0.119,4.218-1.725c0.019,0.205-0.12,1.934-0.191,2.26
							l2.245-5.461c-0.176,1.381,0.711,4.627-0.376,5.439c0.323,0.185,0.721,0.4,1.378-0.106c-0.221-0.188-0.588-1.97-0.294-2.104
							c0.851,1.503,0.585,0.8,1.616,2.07c-0.331-0.285-0.017-2.45,0.5-2.398c-0.073,0.326,0.086,2.125-0.097,2.356l1.238-2.142
							c-0.313,0.383-0.023,1.793,0.272,2.39c-0.14-0.413,1.104,0.034,1.441-0.179l-0.549-0.487c1.446,0.313,1.383-2.98,2.825-2.877
							c-0.17,0.438-0.398,2.691,0.332,2.954c0.319-1.085,1.432-5.218,2.71-6.059l0.249,0.618l0.979-0.711
							c-0.609,1.634-2.296,5.072-3.207,6.412c0.544,0.487,0.156,0.729,0.963,0.669c0.289,0.578-0.433,0.883-0.669,0.919l1.877,0.365
							c-0.09-1.265,1.431-1.275,1.356-2.329l-2.036,1.321c-0.093-1.263,1.162-3.596,2.504-3.379c0.341,0.502-0.25,2.253-0.221,2.674
							c0.171-0.437,1.264-0.838,1.387-0.529l-0.565,0.679c0.74,0.472,1.213-1.682,2.103-0.479c0.309,0.08,0.912,1.624,0.969,0.876
							c-0.494-1.441-0.578-5.904-0.234-6.99c0.109,0.097,1.626,1.372,1.973,2.083c0.5,1.128-0.785,2.701-0.359,3.67
							c0.021-0.346,0.305-0.773,0.424-0.91c0.321,0.293-0.144,1.07,0.561,0.911c0.13-1.292,1.43,0.123,0.344-1.086
							c0.692-0.357,0.729,0.28,1.537,0.244c-0.248-0.836,0.764-2.802,1.465-3.148c-0.046,0.325,0.104,0.754,0.176,0.948
							c1.415,0.154,2.163,0.757,3.481,0.802c0.115,0.314,0.742,0.707,0.458,1.251c0.194-0.222,0.379-0.652,0.787-0.672
							c0.757,1.129-0.91,0.148-0.345,1.496c0.069-0.744,1.075-1,1.668-1.451c-0.146-1.154-1.334-0.255-1.924,0.194
							c0.035-1.587,1.089-3.222,2.499-3.919c1.115-0.365,0.447,1.037,0.646,0.817c2.058,0.331,1.857-2.725,3.541-1.535
							c0.645,1.029-0.046,2.013,0.078,2.746c-0.908,0.359-1.351-0.678-1.96-0.653l0.73,0.498c-0.297,0.327-0.902,0.567-1.218,0.266
							c0.538,0.924,3.479,0.267,5.033,1.146c0.297-0.321,0.8-0.642,0.587-1.062l-0.509,0.11c-0.429-0.842,0.997-1.069,0.376-1.488
							c0.701-0.531,1.505-1.385,2.438-0.866l0.123,1.163c-0.004-0.338-0.59-0.725-0.875-0.39c0.424-0.486,1.383,1.649,1.895,0.168
							l-0.628-0.84c0.709-0.537,1.619-1.708,2.448-1.292c-0.323-1.161-0.201,0.118-0.733-1.25c0.435,1.687-2.172-0.203-1.421,1.589
							c-0.541-1.583-1.037-0.721-1.785-2.089c0.007,0.382,0.253,0.745-0.452,0.514c-0.038,0.109-0.12,0.246-0.172,0.325
							c-0.021-0.011-0.029-0.018-0.047-0.031l0.037,0.048c-0.033,0.054-0.037,0.066,0.014,0.016
							c0.163,0.177,0.291,0.385,0.337,0.601c-0.395,0.856-1.523,0.742-1.925,1.198c-0.415-0.192,0.194-0.432-0.019-0.843l-0.6,0.659
							c-0.021-0.846-1.068-1.432-0.051-1.899l-0.896-0.062c-0.511-0.487-1.232-0.695-1.694-0.352
							c-0.418-0.194-1.103,0.906-0.711,0.255l-1.426,0.486l-0.007-0.212c-1.389-0.143-2.895,1.323-4.446-0.243
							c-0.473,0.201-0.961,0.449-1.739,0.188l-0.139-0.733c-0.605,0.238-1.795-0.78-2.064-0.025
							c-0.622-1.988-2.918-0.511-3.97-0.832l-0.047,0.955c-0.728-0.051-1.427,0.223-2.329,0.609l0.053,0.845
							c-0.777,0.695-1.995-0.591-3.226-0.497c0.083-0.324,0.396-0.241,0.616-0.048c-1.479-1.898-3.091,1.401-4.431,0.02
							c-0.329,0.309-0.57,0.205-0.805-0.006c0.03-0.002,0.058-0.018,0.081-0.044c-0.033-0.011-0.084-0.012-0.136-0.011
							c-0.148-0.144-0.302-0.312-0.467-0.447c0.142,0.206,0.276,0.374,0.394,0.451c-0.256,0.019-0.643,0.125-1.021,0.339
							l-0.175-0.905c-0.03,0.012-0.056,0.011-0.088,0.026c-0.378-0.334-0.294,0.431-0.085,1.11c-0.189,0.15-0.362,0.33-0.495,0.55
							c-0.325-1.462-0.988,0.497-1.428-1.062c-0.244,0.752-1.902,0.593-2.069,2.21c-0.018-0.207-0.131-0.303,0.073-0.323
							c-0.427-0.168-0.854-0.336-1.222,0.127l-0.206-1.146l-0.886,1.578c-0.577-0.684-0.821-1.083-0.286-1.987
							c-1.311,1.405-1.08,0.549-2.185,1.937l0.034-0.746c-0.408,0.042-1.031,1.06-1.296,0.452c-0.961-1.384-4.527-0.048-6.931-1.285
							c0.55,2.177-1.135-0.945-1.154,0.756c-0.159-0.514-0.501-0.796-0.14-1.259c-1.178,0.543-1.842-0.728-2.601,0.744
							c-0.163-0.513,0.219-0.775,0.082-1.075c-0.091,0.117-0.359,0.473-0.499,0.17c-0.138-0.301,0.154-0.444,0.333-0.682
							c-1.223,0.158-1.266,1.762-1.277,3.266c-0.655-0.675-0.96-0.557-1.354,0.452c-0.241-0.478-0.629-0.97,0.122-1.189
							c-0.431-0.047-2.651-0.567-2.627,0.636c-0.15-0.297-0.602-0.055-0.706,0.091c-0.962-0.017-1.053-0.12-1.986,0.048l0.272,0.181
							c-0.283,1.47-0.761,0.368-1.509,0.586l0.013-0.149c-1.806-0.943-0.717,0.544-2.511-0.549l0.153,0.895
							c-0.027,1.953-1.596-1.07-2.539-0.237l0.395,0.485c-0.494,0.705-1.704-2.511-2.271-2.709
							c-0.132-0.158,0.169-0.285,0.326-0.424c-1.517-1.026-0.1,1.195-1.145,1.555c-0.244-0.62,0.133-1.638-0.595-1.699
							c-0.399-0.485-1.924,2.232-2.997,1.092c0.255,0.473,0.507,0.944,0.042,1.352c-0.742,0.236-2.202-1.687-2.759-0.088
							c-0.107-0.126-0.154-0.251-0.169-0.372c-0.546,0.444-1.827,0.812-2.103,1.678c-0.812-3.073-3.46,1.808-3.707-1.039
							l-1.765,0.332l0.019-0.297c-1.156-0.075-1.491,0.652-1.823,1.379c-0.282-0.169-0.116-0.456-0.109-0.606
							c-1.718-0.41-1.874-0.271-3.119,1.293l-0.24-0.913c-0.319,0.577-2.556-1.211-4.07,0.035c0.004-0.107,0.019-0.29,0.134-0.434
							c-1.712,1.256-4.68-2.061-4.964,1.383l-1.109,0.975c1.59,0.076-0.061,1.491,0.646,1.976c-0.588,0.271-1.702-0.828-0.971-1.091
							l0.139,0.154c0.068-1.792-2.012-0.392-2.113-1.593c-3.061,0.449-6.181-0.168-9.065,0.17l0.513,1.319l-1.012,0.059
							c-0.306-0.283-0.497-1.019,0.226-1.061c-0.48-0.721-1.112,0.812-1.091,1.111c-1.476-0.361,0.33-1.665-0.104-1.64l-0.57,0.182
							l0.153,0.142c-0.396,0.622-0.357,1.217-1.226,1.269c-0.581-0.199-0.396-0.803-0.617-0.826
							c-0.012-0.097-0.091-0.133-0.334,0.006l-1.28,0.058l0.657,1.006c-0.484,0.605-1.194,0.105-0.439,1.245
							c-1.124-1.779-4.799-0.004-5.406-0.498c-0.664,0.902-1.437,1.006-2.406,1.058c0.271,0.188,0.598,1.373-0.247,1.35
							c-0.082-2.536-1.674-0.851-2.621-2.54c0.782,1.097-2.3,0.651-1.097,2.194c-0.72-0.096-0.19-0.925-0.806-1.431
							c-1.479,1.237-3.707-0.023-5.679,0.64c0.024,0.33,0.447,0.773,0.096,1.331l-1.346-1.452c-0.372,0.227-0.043,1.944-0.968,0.934
							c0.15,0.258,0.376,0.645,0.126,0.794c-4.243-0.889-7.817,2.737-12.407,0.554c0.669,0.523,0.318,0.657-0.092,0.76
							c0.3,0.1,0.153,0.804,0.294,1.232l-1.927-0.879c-0.058,1.283-1.784,0.447-1.721,1.654l0.49-0.321
							c-0.414,1.517,1.624,2.854,1.881,4.641c0.465-1.724,2.513,1.895,3.351-0.588c0.354,0.306-0.13,0.616,0.102,0.997
							c0.176-0.821,0.539-1.055,1.331-0.854l-0.046,0.204c2.005-0.586,3.024,0.001,5.414,0.091l-0.33-0.847
							c0.516,0.028,0.669,0.284,0.94,0.462c0.327-1.432-1.401,0.176-1.151-1.384c0.979,1.666,3.496-0.603,4.296,1.347
							c0.762-0.124-0.401-0.98,0.362-1.098l0.298,0.516l0.069-0.74c0.521,0.033,0.891,0.679,0.989,1.141
							c-0.13-0.035-0.321,0.188-0.444,0.249c0.758,0.539,1.787-0.525,2.045-0.352l-0.789-0.217c1.994-0.858,4.647-0.57,6.48-2.011
							l-0.22-0.393c1.42-1.003,1.307,0.268,2.941-0.345l-0.046,0.108c0.274-0.466,0.694-0.744,1.165-0.767
							c-0.353,0.552,0.948,0.823,0.471,1.447c1.543-1.08,0.726-0.774,1.598-2.488l0.357,0.65c0.283-0.681,0.266-1.015,1.086-1.322
							c-0.606,0.698,0.695,0.969,0.034,1.87c1.99,1.233,2.412-1.918,3.545,0.182c0.544-2.022-1.689-0.851-1.291-1.322
							c-0.474-0.573,0.469-1.521,1.056-1.405c0.576-0.035,1.313,2.313,2.734,2.082c-0.144,0.011-0.133,0.155-0.275,0.168
							c0.602,0.414,0.955-0.804,1.719-0.102c0.209-1.206,0.858-0.05,0.765-1.539l-1.264,0.52c0.688-0.486,1.153-2.309,2.492-1.639
							c-0.057,0.311-0.368,0.751-0.589,1.004c0.416,0.387,0.65-0.382,1.081,0.015c0.092,1.492-1.549,0.539-2.19,1.773
							c0.468,0.571,1.357-1.276,1.175,0.379c0.301-2.112,1.438,0.064,2.198-1.621l0.052,0.894c0.135-0.159,0.396-0.62,0.682-0.637
							l-0.359,1.217c0.654-1.082,1.615,0.643,2.297,0.022c-1.566,0.228-0.49-1.022-1.237-1.581c1.788-1.438,1.413,2.177,3.526,1.488
							c-0.278,0.161-1.17-0.399-0.762-0.865c0.437,0.134,1.024,0.408,1.335,0.843c1.415-0.355-0.333-0.885,0.212-1.503
							c0.623,1.021,0.652-0.524,1.243-0.945l0.113,0.901c1.71,0.382,0.209-1.931,1.772-1.409l-0.477,1.325l0.731-0.415l-0.037,1.044
							c0.747-0.86,1.032-0.696,1.885-0.506c-0.265-0.612-0.082-1.648,0.643-1.765c0.558,0.477-0.18,0.892,0.836,0.639
							c-0.168,0.592-0.342,1.331-0.885,0.554c-0.013,0.299-0.164,0.594-0.178,0.889c0.604,0.553,1.354-0.02,1.727-0.072
							c-0.147-0.017-0.324-0.045-0.427-0.163l1.353-1.428c0.272,0.311,0.116,0.605-0.038,0.894c0.291-0.134,0.454-0.575,0.892-0.695
							c-0.034,0.747,0.075,1.494-0.515,1.911l1.333-0.961c0.13,0.31,0.825,0.802,0.669,1.092c0.834,0.352,1.782-1.618,2.889-1.155
							c0.04-0.147,0.135-0.295,0.347-0.422c1.001,0.066,1.961,0.879,3.026-0.244l0.79,1.249c0.883-0.391-1.058-1.567,0.415-2.218
							c1.037-0.528,0.51,1.082,0.922,1.41c0.471-0.717,1.276-2.162,2.365-1.189C429.725,849.253,429.45,849.084,429.153,849.212z
							 M440.385,847.688c-0.205,0.208-0.595,0.828-0.796,0.308C439.757,846.938,439.989,847.419,440.385,847.688z M457.451,844.408
							c-0.148,0.31-0.408,0.176-0.711-0.15C456.943,844.171,457.18,844.191,457.451,844.408z M505.753,837.718
							c-0.01,0.015-0.017,0.025-0.025,0.044C505.244,837.395,505.415,837.539,505.753,837.718z M506.769,838.139
							c0.108-0.125,0.106-0.25,0.068-0.377c-0.081,0.228-0.313,0.237-0.574,0.165C506.326,838.166,506.453,838.334,506.769,838.139z
							 M396.596,844.615l0.23,0.208C396.415,845.143,396.508,844.893,396.596,844.615z"/>
						<path fill="#EF3940" d="M455.562,845.762c-0.069-0.149-0.096-0.317-0.119-0.487
							C455.363,845.432,455.371,845.608,455.562,845.762z"/>
						<path fill="#EF3940" d="M422.2,850.393c-0.013-0.006-0.023-0.002-0.036-0.007c-0.013,0.056-0.017,0.113-0.018,0.167
							L422.2,850.393z"/>
						<path fill="#EF3940" d="M490.744,845.447c-0.208-0.13-0.324-0.296-0.4-0.467C490.331,845.202,490.425,845.39,490.744,845.447z
							"/>
						<path fill="#EF3940" d="M512.307,836.872l-0.674,0.195c0.322-0.025,0.426,0.18,0.58,0.333
							C512.209,837.188,512.099,836.874,512.307,836.872z"/>
						<path fill="#EF3940" d="M517.692,842.83c0.103-0.105,0.203,0,0.305-0.106l0.001-0.423
							C517.589,842.304,517.283,842.625,517.692,842.83z"/>
						<path fill="#EF3940" d="M512.76,839.921c0.013,0.767,0.438,0.532,0.906,0.42c-0.028,0.001-0.055,0.006-0.082-0.006
							C513.778,839.277,513.268,839.6,512.76,839.921z"/>
						<path fill="#EF3940" d="M513.773,840.321c0.145-0.027,0.29-0.039,0.427,0.007
							C514.278,839.903,514.032,840.229,513.773,840.321z"/>
						<path fill="#EF3940" d="M508.098,837.668c0.211,0.201,0.179-0.972,0.29-0.658
							C508.674,836.046,506.874,838.146,508.098,837.668z"/>
						<polygon fill="#EF3940" points="512.999,842.456 512.885,841.505 512.588,842.248 						"/>
						<path fill="#EF3940" d="M509.414,841.543l0.721,0.306c-0.004-0.158,0.094-0.246,0.211-0.31
							C509.896,841.48,509.409,841.263,509.414,841.543z"/>
						<path fill="#EF3940" d="M510.346,841.539c0.234,0.033,0.459,0.026,0.598-0.12C510.815,841.422,510.54,841.436,510.346,841.539
							z"/>
						<polygon fill="#EF3940" points="511.984,842.677 511.777,842.467 511.265,842.365 						"/>
						<path fill="#EF3940" d="M501.53,841.117l-0.809,0.248c-0.091,0.321,0.122,0.524,0.424,0.403
							C501.343,841.549,501.645,841.432,501.53,841.117z"/>
						<path fill="#EF3940" d="M503.865,843.76c-0.209-0.201-0.216-0.411-0.327-0.725l-0.063,1.167L503.865,843.76z"/>
						<path fill="#EF3940" d="M501.532,843.972c-0.089,0.322-1.182,0.899-0.171,0.853
							C501.451,844.506,502.257,844.258,501.532,843.972z"/>
						<polygon fill="#EF3940" points="489.534,842.249 489.737,842.232 489.72,840.317 						"/>
						<path fill="#EF3940" d="M478.978,846.884c0.945,0.454,0.208-1.184,1.065-0.614c0.216-0.454-0.701-0.465-0.479-0.857
							C479.002,845.894,478.7,845.624,478.978,846.884z"/>
						<path fill="#EF3940" d="M479.564,845.412c0.09-0.075,0.186-0.168,0.286-0.292C479.688,845.24,479.611,845.333,479.564,845.412
							z"/>
						<polygon fill="#EF3940" points="359.452,849.893 358.763,849.626 359.287,850.176 						"/>
						<path fill="#EF3940" d="M358.574,851.529l-0.405-1.164l-0.134,1.16C358.162,851.442,358.41,851.282,358.574,851.529z"/>
						<path fill="#EF3940" d="M442.244,850.006l0.024-0.296c-0.117-0.31-0.26-0.322-0.546-0.349L442.244,850.006z"/>
						<polygon fill="#EF3940" points="434.003,849.752 434.146,849.765 433.787,848.686 						"/>
						<path fill="#EF3940" d="M427.283,851.781c0.283,0.018,0.588-0.261,0.873-0.243
							C427.567,851.799,427.075,850.417,427.283,851.781z"/>
					</g>
				</g>
			</g>
		</g>
	</g>
</g>
</svg>
